{"glyphs":{"0":{"ha":884,"x_min":69,"x_max":814,"o":"m 530 1031 q 741 939 668 1031 q 814 676 814 848 q 780 417 814 546 q 684 187 745 289 q 535 33 621 85 q 347 -20 450 -20 q 142 73 214 -20 q 69 335 69 165 q 104 593 69 464 q 201 823 139 722 q 348 978 264 925 q 530 1031 431 1031 m 522 922 q 424 895 471 922 q 340 814 378 867 q 241 590 278 724 q 204 315 204 456 q 244 146 204 203 q 361 89 283 89 q 461 116 415 89 q 545 197 507 144 q 643 420 606 286 q 679 696 679 554 q 639 865 679 808 q 522 922 600 922 z "},"1":{"ha":884,"x_min":68,"x_max":673,"o":"m 90 115 l 314 115 l 465 895 l 212 846 l 236 964 l 488 1013 l 625 1013 l 450 115 l 673 115 l 652 0 l 68 0 l 90 115 z "},"2":{"ha":884,"x_min":5,"x_max":798,"o":"m 640 489 l 203 114 l 686 114 l 663 0 l 5 0 l 28 115 l 485 507 q 615 647 576 587 q 653 770 653 707 q 607 877 653 836 q 486 918 561 918 q 343 895 422 918 q 175 828 264 872 l 200 964 q 361 1014 284 997 q 503 1031 437 1031 q 716 960 635 1031 q 798 775 798 890 q 759 628 798 698 q 640 489 720 557 z "},"3":{"ha":884,"x_min":3,"x_max":794,"o":"m 220 987 q 365 1020 294 1009 q 503 1031 435 1031 q 715 971 637 1031 q 794 811 794 911 q 732 642 794 713 q 561 546 670 572 q 686 470 646 522 q 726 334 726 418 q 687 181 726 252 q 575 58 648 110 q 442 0 519 19 q 264 -20 365 -20 q 135 -7 200 -20 q 3 31 70 5 l 28 160 q 156 107 92 125 q 289 90 221 90 q 506 159 422 90 q 589 338 589 228 q 536 447 589 408 q 385 485 483 485 l 267 485 l 288 596 l 412 596 q 590 648 525 596 q 654 787 654 699 q 607 886 654 851 q 473 921 559 921 q 340 907 408 921 q 199 865 272 893 l 220 987 z "},"4":{"ha":884,"x_min":25,"x_max":785,"o":"m 597 1013 l 770 1013 l 640 353 l 785 353 l 762 239 l 618 239 l 572 0 l 436 0 l 482 239 l 25 239 l 52 371 l 597 1013 m 610 893 l 158 353 l 504 353 l 610 893 z "},"5":{"ha":884,"x_min":28,"x_max":807,"o":"m 807 1013 l 786 899 l 367 899 l 318 648 q 381 663 349 659 q 447 668 414 668 q 669 593 587 668 q 750 389 750 517 q 708 216 750 298 q 590 71 667 133 q 457 4 536 27 q 286 -20 379 -20 q 161 -9 225 -20 q 28 24 98 2 l 53 151 q 178 105 115 121 q 304 90 241 90 q 523 170 437 90 q 610 368 610 249 q 553 505 610 456 q 395 554 496 554 q 283 542 341 554 q 164 504 225 529 l 262 1013 l 807 1013 z "},"6":{"ha":884,"x_min":87,"x_max":822,"o":"m 637 375 q 593 511 637 461 q 473 561 549 561 q 297 480 368 561 q 225 279 225 399 q 269 139 225 190 q 390 89 313 89 q 567 172 496 89 q 637 375 637 255 m 822 989 l 799 864 q 709 903 760 890 q 600 917 658 917 q 375 829 460 917 q 248 553 290 741 q 362 640 297 610 q 504 669 428 669 q 702 598 628 669 q 775 406 775 526 q 739 221 775 307 q 633 72 703 136 q 523 4 586 28 q 389 -20 460 -20 q 168 69 249 -20 q 87 313 87 158 q 124 590 87 456 q 228 821 161 723 q 397 977 298 924 q 616 1031 496 1031 q 721 1020 669 1031 q 822 989 772 1010 z "},"7":{"ha":884,"x_min":129,"x_max":871,"o":"m 178 1013 l 871 1013 l 859 954 l 279 0 l 129 0 l 676 897 l 155 897 l 178 1013 z "},"8":{"ha":884,"x_min":46,"x_max":823,"o":"m 618 307 q 564 432 618 384 q 424 481 511 481 q 249 417 318 481 q 180 257 180 354 q 233 134 180 180 q 375 89 286 89 q 550 151 481 89 q 618 307 618 212 m 688 779 q 640 883 688 844 q 514 922 593 922 q 361 870 421 922 q 301 739 301 818 q 348 630 301 671 q 473 589 395 589 q 627 643 567 589 q 688 779 688 696 m 595 533 q 712 445 671 504 q 753 302 753 386 q 644 71 753 162 q 364 -20 536 -20 q 132 52 218 -20 q 46 243 46 123 q 120 436 46 351 q 313 543 194 520 q 204 619 241 568 q 167 743 167 670 q 269 948 167 866 q 528 1031 371 1031 q 741 964 659 1031 q 823 794 823 897 q 762 634 823 705 q 595 533 701 564 z "},"9":{"ha":884,"x_min":61,"x_max":798,"o":"m 61 22 l 86 147 q 176 108 125 121 q 283 94 226 94 q 510 183 424 94 q 637 460 595 272 q 521 372 587 402 q 379 342 455 342 q 183 413 256 342 q 110 606 110 485 q 146 790 110 705 q 252 939 182 875 q 361 1007 299 983 q 494 1031 424 1031 q 716 942 635 1031 q 798 699 798 852 q 760 422 798 555 q 656 191 722 288 q 486 34 585 87 q 267 -20 387 -20 q 162 -9 214 -20 q 61 22 111 1 m 245 637 q 290 501 245 551 q 411 450 335 450 q 587 531 516 450 q 659 732 659 612 q 614 872 659 821 q 493 922 570 922 q 317 840 388 922 q 245 637 245 758 z "},"\u0000":{"ha":833,"x_min":69,"x_max":764,"o":"m 69 -245 l 69 979 l 764 979 l 764 -245 l 69 -245 m 147 -168 l 686 -168 l 686 901 l 147 901 l 147 -168 z "}," ":{"ha":441,"x_min":0,"x_max":0,"o":""},"!":{"ha":557,"x_min":110,"x_max":444,"o":"m 307 1013 l 444 1013 l 358 568 l 297 326 l 187 326 l 221 568 l 307 1013 m 144 172 l 282 172 l 249 0 l 110 0 l 144 172 z "},"\"":{"ha":639,"x_min":134,"x_max":505,"o":"m 249 1013 l 249 636 l 134 636 l 134 1013 l 249 1013 m 505 1013 l 505 636 l 390 636 l 390 1013 l 505 1013 z "},"#":{"ha":1164,"x_min":97,"x_max":1074,"o":"m 608 997 l 538 715 l 736 715 l 807 997 l 916 997 l 846 715 l 1074 715 l 1047 611 l 819 611 l 764 385 l 994 385 l 970 281 l 737 281 l 667 0 l 558 0 l 628 281 l 429 281 l 359 0 l 250 0 l 321 281 l 97 281 l 122 385 l 346 385 l 403 611 l 175 611 l 201 715 l 429 715 l 498 997 l 608 997 m 710 611 l 513 611 l 456 385 l 654 385 l 710 611 z "},"$":{"ha":884,"x_min":46,"x_max":791,"o":"m 407 98 q 556 146 501 102 q 611 260 611 190 q 576 348 611 317 q 464 392 542 379 l 407 98 m 475 800 q 334 747 385 791 q 283 636 283 704 q 316 562 283 589 q 421 522 348 535 l 475 800 m 791 856 l 768 733 q 653 781 710 764 q 543 800 597 798 l 486 510 q 676 432 611 490 q 742 282 742 374 q 645 86 742 163 q 387 0 548 8 l 347 -204 l 279 -204 l 319 0 q 172 18 241 2 q 46 62 102 34 l 69 187 q 199 122 132 145 q 339 96 267 99 l 399 406 q 212 480 271 430 q 154 616 154 531 q 247 807 154 729 q 493 897 340 885 l 525 1055 l 593 1055 l 563 897 q 682 885 624 895 q 791 856 740 874 z "},"%":{"ha":1320,"x_min":126,"x_max":1193,"o":"m 326 479 q 180 539 234 479 q 126 703 126 600 q 205 940 126 849 q 410 1031 283 1031 q 556 970 502 1031 q 610 806 610 909 q 531 570 610 661 q 326 479 452 479 m 501 802 q 475 909 501 873 q 396 945 448 945 q 277 879 320 945 q 235 696 235 813 q 262 600 235 633 q 340 566 290 566 q 457 630 413 566 q 501 802 501 694 m 1084 302 q 1059 411 1084 375 q 981 447 1033 447 q 862 381 905 447 q 819 197 819 315 q 847 100 819 134 q 925 66 874 66 q 1041 131 998 66 q 1084 302 1084 195 m 911 -20 q 765 41 819 -20 q 711 204 711 101 q 790 441 711 351 q 994 532 868 532 q 1140 472 1086 532 q 1193 309 1193 412 q 1115 72 1193 163 q 911 -20 1036 -20 m 1141 1031 l 304 -20 l 196 -20 l 1034 1031 l 1141 1031 z "},"&":{"ha":1083,"x_min":65,"x_max":1022,"o":"m 656 176 l 367 545 q 242 418 285 485 q 200 281 200 351 q 258 142 200 195 q 412 90 316 90 q 538 112 476 90 q 656 176 600 134 m 1022 543 q 942 346 991 435 q 822 183 892 256 l 964 0 l 793 0 l 721 94 q 566 9 649 38 q 393 -20 484 -20 q 154 54 243 -20 q 65 250 65 128 q 128 448 65 355 q 314 619 191 541 q 283 683 293 650 q 273 751 273 715 q 289 839 273 798 q 334 914 304 880 q 451 1000 380 970 q 603 1031 522 1031 q 709 1019 656 1031 q 818 982 763 1006 l 794 859 q 693 907 743 890 q 595 924 642 924 q 458 880 511 924 q 406 768 406 836 q 418 709 406 739 q 478 621 431 680 l 754 268 q 841 391 805 321 q 896 543 877 460 l 1022 543 z "},"'":{"ha":382,"x_min":134,"x_max":249,"o":"m 249 1013 l 249 636 l 134 636 l 134 1013 l 249 1013 z "},"(":{"ha":542,"x_min":107,"x_max":593,"o":"m 593 1054 q 325 628 413 829 q 236 239 236 426 q 262 26 236 132 q 339 -183 288 -79 l 231 -183 q 138 44 168 -66 q 107 260 107 154 q 200 659 107 461 q 482 1054 294 857 l 593 1054 z "},")":{"ha":542,"x_min":-86,"x_max":400,"o":"m -86 -183 q 182 243 94 41 q 271 632 271 445 q 245 845 271 739 q 168 1054 220 950 l 277 1054 q 370 827 339 937 q 400 612 400 718 q 306 211 400 410 q 25 -183 212 12 l -86 -183 z "},"*":{"ha":694,"x_min":41,"x_max":653,"o":"m 653 846 l 410 714 l 653 582 l 614 515 l 386 653 l 386 397 l 309 397 l 309 653 l 81 515 l 41 582 l 285 714 l 41 846 l 81 913 l 309 775 l 309 1031 l 386 1031 l 386 775 l 614 913 l 653 846 z "},"+":{"ha":1164,"x_min":147,"x_max":1017,"o":"m 639 871 l 639 493 l 1017 493 l 1017 378 l 639 378 l 639 0 l 525 0 l 525 378 l 147 378 l 147 493 l 525 493 l 525 871 l 639 871 z "},",":{"ha":441,"x_min":4,"x_max":268,"o":"m 125 172 l 268 172 l 245 56 l 92 -161 l 4 -161 l 102 56 l 125 172 z "},"-":{"ha":501,"x_min":62,"x_max":450,"o":"m 85 436 l 450 436 l 429 325 l 62 325 l 85 436 z "},".":{"ha":441,"x_min":81,"x_max":257,"o":"m 114 172 l 257 172 l 224 0 l 81 0 l 114 172 z "},"/":{"ha":468,"x_min":-102,"x_max":593,"o":"m 472 1013 l 593 1013 l 18 -129 l -102 -129 l 472 1013 z "},":":{"ha":468,"x_min":72,"x_max":355,"o":"m 212 718 l 355 718 l 322 546 l 179 546 l 212 718 m 106 172 l 249 172 l 215 0 l 72 0 l 106 172 z "},";":{"ha":468,"x_min":1,"x_max":371,"o":"m 122 172 l 265 172 l 241 56 l 89 -161 l 1 -161 l 98 56 l 122 172 m 228 718 l 371 718 l 338 546 l 195 546 l 228 718 z "},"<":{"ha":1164,"x_min":147,"x_max":1017,"o":"m 1017 684 l 317 435 l 1017 187 l 1017 64 l 147 379 l 147 492 l 1017 807 l 1017 684 z "},"=":{"ha":1164,"x_min":147,"x_max":1017,"o":"m 147 631 l 1017 631 l 1017 517 l 147 517 l 147 631 m 147 354 l 1017 354 l 1017 239 l 147 239 l 147 354 z "},">":{"ha":1164,"x_min":147,"x_max":1017,"o":"m 147 684 l 147 807 l 1017 492 l 1017 379 l 147 64 l 147 187 l 846 435 l 147 684 z "},"?":{"ha":737,"x_min":171,"x_max":710,"o":"m 346 172 l 313 0 l 175 0 l 208 172 l 346 172 m 196 954 q 334 1012 265 993 q 475 1031 403 1031 q 647 980 584 1031 q 710 842 710 929 q 674 711 710 772 q 555 583 637 650 l 485 526 q 409 450 428 481 q 378 355 390 418 l 361 272 l 232 272 l 253 376 q 292 485 265 440 q 393 591 318 529 l 465 652 q 545 735 522 699 q 568 810 568 771 q 531 890 568 861 q 429 920 494 920 q 308 896 375 920 q 171 827 241 871 l 196 954 z "},"@":{"ha":1389,"x_min":81,"x_max":1320,"o":"m 850 161 q 748 85 803 111 q 635 60 694 60 q 470 127 535 60 q 404 297 404 194 q 505 558 404 446 q 741 669 606 669 q 852 642 803 669 q 928 567 901 615 l 946 656 l 1043 656 l 946 155 q 1143 277 1066 174 q 1221 522 1221 380 q 1109 780 1221 680 q 819 880 997 880 q 586 838 699 880 q 387 718 473 795 q 234 508 289 627 q 179 264 179 389 q 297 -29 179 87 q 599 -144 416 -144 q 771 -115 686 -144 q 949 -22 856 -85 l 1004 -100 q 807 -204 913 -169 q 589 -240 701 -240 q 225 -95 370 -240 q 81 272 81 50 q 152 567 81 425 q 350 814 222 710 q 566 934 444 891 q 817 977 688 977 q 1177 848 1034 977 q 1320 528 1320 720 q 1182 194 1320 328 q 829 57 1044 61 l 850 161 m 742 574 q 579 498 646 574 q 513 317 513 422 q 551 198 513 241 q 659 155 590 155 q 820 233 755 155 q 885 422 885 310 q 846 533 885 492 q 742 574 807 574 z "},"A":{"ha":950,"x_min":-74,"x_max":854,"o":"m 511 1013 l 667 1013 l 854 0 l 711 0 l 669 260 l 214 260 l 71 0 l -74 0 l 511 1013 m 561 878 l 277 374 l 648 374 l 561 878 z "},"B":{"ha":953,"x_min":37,"x_max":868,"o":"m 235 1013 l 585 1013 q 798 960 727 1013 q 868 800 868 907 q 807 632 868 703 q 648 546 747 561 q 774 473 732 527 q 817 330 817 420 q 704 89 817 178 q 395 0 591 0 l 37 0 l 235 1013 m 268 484 l 196 113 l 416 113 q 608 170 541 113 q 675 330 675 227 q 630 447 675 410 q 488 484 586 484 l 268 484 m 349 900 l 289 595 l 493 595 q 664 642 602 595 q 725 774 725 690 q 684 870 725 840 q 551 900 642 900 l 349 900 z "},"C":{"ha":970,"x_min":58,"x_max":965,"o":"m 965 935 l 937 790 q 799 888 872 856 q 642 920 726 920 q 438 864 526 920 q 286 694 350 808 q 224 539 245 621 q 203 375 203 458 q 274 164 203 237 q 482 92 346 92 q 663 122 576 92 q 832 212 750 152 l 800 50 q 637 -2 720 16 q 472 -20 555 -20 q 168 86 277 -20 q 58 380 58 192 q 100 618 58 501 q 220 831 142 734 q 409 982 302 933 q 656 1031 515 1031 q 820 1007 743 1031 q 965 935 898 983 z "},"D":{"ha":1069,"x_min":37,"x_max":1003,"o":"m 235 1013 l 529 1013 q 883 913 764 1013 q 1003 618 1003 814 q 958 369 1003 488 q 832 167 912 249 q 627 41 751 83 q 334 0 503 0 l 37 0 l 235 1013 m 350 900 l 197 113 l 376 113 q 732 245 606 113 q 859 618 859 377 q 777 832 859 764 q 522 900 696 900 l 350 900 z "},"E":{"ha":878,"x_min":37,"x_max":875,"o":"m 235 1013 l 875 1013 l 852 897 l 349 897 l 290 597 l 774 597 l 751 482 l 268 482 l 197 115 l 713 115 l 690 0 l 37 0 l 235 1013 z "},"F":{"ha":799,"x_min":37,"x_max":815,"o":"m 235 1013 l 815 1013 l 793 897 l 349 897 l 290 599 l 692 599 l 669 484 l 268 484 l 174 0 l 37 0 l 235 1013 z "},"G":{"ha":1076,"x_min":62,"x_max":1007,"o":"m 758 151 l 811 416 l 586 416 l 607 529 l 966 529 l 879 83 q 682 7 789 34 q 468 -20 576 -20 q 170 86 277 -20 q 62 380 62 192 q 128 679 62 537 q 309 914 193 820 q 467 1002 381 973 q 659 1031 553 1031 q 841 1007 753 1031 q 1007 935 928 983 l 979 789 q 836 886 918 852 q 661 920 754 920 q 471 879 553 920 q 325 751 389 838 q 238 579 270 678 q 207 376 207 479 q 279 163 207 235 q 496 92 352 92 q 635 107 568 92 q 758 151 702 122 z "},"H":{"ha":1044,"x_min":37,"x_max":1007,"o":"m 235 1013 l 372 1013 l 292 597 l 789 597 l 869 1013 l 1007 1013 l 810 0 l 672 0 l 766 482 l 269 482 l 175 0 l 37 0 l 235 1013 z "},"I":{"ha":410,"x_min":37,"x_max":372,"o":"m 235 1013 l 372 1013 l 175 0 l 37 0 l 235 1013 z "},"J":{"ha":410,"x_min":-228,"x_max":370,"o":"m 232 1013 l 370 1013 l 186 71 q 65 -196 150 -113 q -174 -278 -20 -278 l -228 -278 l -205 -163 l -163 -163 q -24 -111 -71 -163 q 49 71 24 -58 l 232 1013 z "},"K":{"ha":911,"x_min":37,"x_max":1003,"o":"m 235 1013 l 372 1013 l 289 586 l 821 1013 l 1003 1013 l 401 529 l 842 0 l 675 0 l 271 493 l 175 0 l 37 0 l 235 1013 z "},"L":{"ha":774,"x_min":37,"x_max":690,"o":"m 233 1013 l 371 1013 l 197 114 l 690 114 l 668 0 l 37 0 l 233 1013 z "},"M":{"ha":1198,"x_min":37,"x_max":1161,"o":"m 235 1013 l 440 1013 l 558 330 l 950 1013 l 1161 1013 l 964 0 l 831 0 l 1003 888 l 606 195 l 472 195 l 343 890 l 171 0 l 37 0 l 235 1013 z "},"N":{"ha":1039,"x_min":37,"x_max":1002,"o":"m 235 1013 l 419 1013 l 699 144 l 868 1013 l 1002 1013 l 804 0 l 619 0 l 340 873 l 171 0 l 37 0 l 235 1013 z "},"O":{"ha":1093,"x_min":56,"x_max":1038,"o":"m 633 920 q 435 865 521 920 q 285 699 349 810 q 223 547 244 627 q 201 386 201 467 q 269 168 201 245 q 460 92 336 92 q 658 147 571 92 q 807 311 745 202 q 870 465 848 385 q 892 625 892 545 q 824 843 892 766 q 633 920 756 920 m 456 -20 q 162 91 269 -20 q 56 393 56 201 q 97 618 56 503 q 212 822 139 732 q 404 979 298 927 q 637 1031 510 1031 q 930 921 823 1031 q 1038 623 1038 812 q 997 393 1038 506 q 880 189 956 281 q 689 32 793 83 q 456 -20 584 -20 z "},"P":{"ha":838,"x_min":37,"x_max":835,"o":"m 235 1013 l 551 1013 q 762 948 690 1013 q 835 760 835 884 q 728 500 835 593 q 427 407 621 407 l 254 407 l 175 0 l 37 0 l 235 1013 m 350 900 l 277 519 l 449 519 q 628 579 566 519 q 690 750 690 639 q 648 861 690 821 q 529 900 606 900 l 350 900 z "},"Q":{"ha":1093,"x_min":57,"x_max":1038,"o":"m 501 -18 q 486 -19 494 -19 q 461 -20 477 -20 q 164 89 271 -20 q 57 390 57 198 q 98 617 57 503 q 212 822 139 731 q 403 979 297 926 q 637 1031 509 1031 q 930 921 823 1031 q 1038 623 1038 812 q 926 249 1038 418 q 633 9 814 79 l 771 -179 l 618 -179 l 501 -18 m 633 920 q 435 865 521 920 q 285 699 349 810 q 223 547 244 627 q 201 386 201 467 q 269 168 201 245 q 460 92 336 92 q 658 147 571 92 q 807 311 745 202 q 870 465 848 385 q 892 625 892 545 q 824 843 892 766 q 633 920 756 920 z "},"R":{"ha":965,"x_min":37,"x_max":833,"o":"m 350 900 l 281 541 l 457 541 q 625 598 561 541 q 689 747 689 655 q 646 861 689 821 q 522 900 603 900 l 350 900 m 602 486 q 674 436 645 476 q 741 277 703 396 l 827 0 l 682 0 l 603 260 q 532 394 572 360 q 410 428 492 428 l 258 428 l 175 0 l 37 0 l 235 1013 l 543 1013 q 759 949 684 1013 q 833 766 833 886 q 770 583 833 661 q 602 486 706 506 z "},"S":{"ha":882,"x_min":8,"x_max":838,"o":"m 838 979 l 811 846 q 675 901 743 882 q 545 920 608 920 q 349 866 422 920 q 277 724 277 812 q 303 649 277 675 q 441 593 330 623 l 524 572 q 717 481 663 536 q 771 326 771 426 q 651 77 771 173 q 334 -20 530 -20 q 172 -4 253 -20 q 8 45 90 12 l 36 186 q 187 115 111 139 q 338 92 262 92 q 543 149 466 92 q 621 297 621 205 q 590 390 621 358 q 457 447 559 421 l 375 468 q 183 552 235 505 q 132 686 132 600 q 249 934 132 838 q 551 1031 365 1031 q 695 1018 624 1031 q 838 979 766 1005 z "},"T":{"ha":848,"x_min":60,"x_max":939,"o":"m 82 1013 l 939 1013 l 917 897 l 555 897 l 382 0 l 244 0 l 418 897 l 60 897 l 82 1013 z "},"U":{"ha":1017,"x_min":81,"x_max":990,"o":"m 215 1013 l 353 1013 l 233 397 q 223 329 226 356 q 220 282 220 302 q 272 140 220 189 q 425 92 324 92 q 629 163 556 92 q 733 397 702 235 l 852 1013 l 990 1013 l 868 380 q 716 78 828 176 q 410 -20 604 -20 q 169 57 258 -20 q 81 264 81 133 q 84 317 81 288 q 94 380 87 347 l 215 1013 z "},"V":{"ha":950,"x_min":109,"x_max":1031,"o":"m 286 0 l 109 1013 l 243 1013 l 390 142 l 882 1013 l 1031 1013 l 446 0 l 286 0 z "},"W":{"ha":1373,"x_min":134,"x_max":1417,"o":"m 134 1013 l 267 1013 l 315 151 l 697 1013 l 850 1013 l 900 151 l 1278 1013 l 1417 1013 l 966 0 l 794 0 l 747 844 l 368 0 l 196 0 l 134 1013 z "},"X":{"ha":951,"x_min":-60,"x_max":977,"o":"m 191 1013 l 329 1013 l 503 647 l 817 1013 l 977 1013 l 559 529 l 811 0 l 673 0 l 469 427 l 100 0 l -60 0 l 414 545 l 191 1013 z "},"Y":{"ha":848,"x_min":87,"x_max":939,"o":"m 87 1013 l 235 1013 l 424 596 l 785 1013 l 939 1013 l 479 482 l 386 0 l 249 0 l 342 482 l 87 1013 z "},"Z":{"ha":951,"x_min":-31,"x_max":977,"o":"m 182 1013 l 977 1013 l 957 908 l 172 115 l 818 115 l 796 0 l -31 0 l -11 104 l 774 897 l 160 897 l 182 1013 z "},"[":{"ha":542,"x_min":56,"x_max":583,"o":"m 296 1055 l 583 1055 l 564 958 l 401 958 l 199 -86 l 361 -86 l 343 -183 l 56 -183 l 296 1055 z "},"\\":{"ha":468,"x_min":118,"x_max":364,"o":"m 233 1013 l 364 -129 l 250 -129 l 118 1013 l 233 1013 z "},"]":{"ha":542,"x_min":-53,"x_max":475,"o":"m 475 1055 l 235 -183 l -53 -183 l -35 -86 l 127 -86 l 330 958 l 170 958 l 187 1055 l 475 1055 z "},"^":{"ha":1164,"x_min":147,"x_max":1017,"o":"m 648 1013 l 1017 635 l 880 635 l 582 903 l 283 635 l 147 635 l 515 1013 l 648 1013 z "},"_":{"ha":694,"x_min":-14,"x_max":708,"o":"m 708 -231 l 708 -328 l -14 -328 l -14 -231 l 708 -231 z "},"`":{"ha":694,"x_min":264,"x_max":539,"o":"m 397 1111 l 539 857 l 435 857 l 264 1111 l 397 1111 z "},"a":{"ha":851,"x_min":57,"x_max":760,"o":"m 746 433 l 661 0 l 536 0 l 559 115 q 434 14 505 47 q 278 -20 364 -20 q 119 40 181 -20 q 57 192 57 99 q 163 402 57 325 q 456 479 269 479 l 629 479 l 636 513 q 638 525 637 518 q 639 545 639 531 q 590 638 639 605 q 452 672 541 672 q 327 656 391 672 q 195 610 262 641 l 216 725 q 354 765 287 751 q 485 778 422 778 q 689 720 619 778 q 760 550 760 661 q 756 497 760 528 q 746 433 753 467 m 611 382 l 486 382 q 259 341 333 382 q 186 214 186 300 q 223 120 186 154 q 328 86 261 86 q 505 159 429 86 q 606 354 581 232 l 611 382 z "},"b":{"ha":882,"x_min":50,"x_max":815,"o":"m 688 464 q 643 618 688 562 q 518 673 597 673 q 410 645 460 673 q 322 564 359 617 q 260 433 283 507 q 237 285 237 359 q 282 138 237 191 q 404 85 326 85 q 513 112 463 85 q 602 193 564 140 q 664 323 640 249 q 688 464 688 397 m 300 644 q 415 742 346 707 q 561 778 485 778 q 746 699 677 778 q 815 486 815 621 q 775 273 815 376 q 660 90 734 170 q 547 9 611 37 q 414 -20 484 -20 q 286 14 340 -20 q 197 115 231 48 l 175 0 l 50 0 l 256 1055 l 380 1055 l 300 644 z "},"c":{"ha":764,"x_min":64,"x_max":745,"o":"m 745 730 l 720 607 q 624 656 675 640 q 519 672 574 672 q 406 651 460 672 q 315 591 352 630 q 225 453 257 532 q 193 289 193 374 q 244 136 193 186 q 400 86 296 86 q 510 102 452 86 q 631 149 568 117 l 607 25 q 495 -8 553 3 q 378 -20 438 -20 q 145 56 227 -20 q 64 272 64 132 q 106 489 64 390 q 232 668 149 589 q 366 750 289 722 q 533 778 442 778 q 638 766 586 778 q 745 730 690 754 z "},"d":{"ha":882,"x_min":64,"x_max":888,"o":"m 581 114 q 462 14 530 48 q 310 -20 393 -20 q 130 58 196 -20 q 64 271 64 136 q 104 485 64 383 q 220 668 144 587 q 333 750 270 722 q 465 778 396 778 q 594 743 538 778 q 681 642 650 707 l 762 1055 l 888 1055 l 682 0 l 557 0 l 581 114 m 193 293 q 238 140 193 195 q 361 85 282 85 q 469 113 419 85 q 557 196 519 141 q 620 328 597 253 q 643 475 643 402 q 598 622 643 569 q 476 675 554 675 q 366 647 417 675 q 279 567 315 619 q 217 436 240 511 q 193 293 193 361 z "},"e":{"ha":854,"x_min":64,"x_max":793,"o":"m 668 448 q 671 470 670 458 q 672 493 672 481 q 624 624 672 576 q 492 672 575 672 q 328 613 399 672 q 220 447 256 555 l 668 448 m 777 350 l 196 350 q 191 309 192 324 q 189 283 189 294 q 247 138 189 189 q 411 86 305 86 q 565 104 492 86 q 700 158 637 123 l 676 35 q 537 -6 609 7 q 392 -20 466 -20 q 149 56 234 -20 q 64 271 64 132 q 106 491 64 389 q 231 673 149 593 q 356 751 283 724 q 511 778 429 778 q 716 701 640 778 q 793 493 793 623 q 789 426 793 462 q 777 350 785 391 z "},"f":{"ha":489,"x_min":94,"x_max":664,"o":"m 664 1055 l 644 951 l 525 951 q 426 925 457 951 q 380 827 395 898 l 367 760 l 572 760 l 554 663 l 349 663 l 220 0 l 94 0 l 224 663 l 104 663 l 122 760 l 241 760 l 252 812 q 342 1001 277 947 q 546 1055 407 1055 l 664 1055 z "},"g":{"ha":882,"x_min":45,"x_max":828,"o":"m 828 760 l 699 94 q 556 -194 661 -99 q 272 -289 450 -289 q 150 -279 206 -289 q 45 -249 94 -269 l 68 -127 q 165 -172 114 -157 q 275 -186 217 -186 q 470 -121 394 -186 q 571 65 547 -56 l 582 122 q 460 31 530 62 q 311 0 391 0 q 130 76 196 0 q 64 286 64 153 q 104 492 64 391 q 216 671 144 593 q 329 750 264 722 q 463 778 393 778 q 596 742 539 778 q 681 642 653 707 l 703 760 l 828 760 m 640 481 q 597 623 640 573 q 473 673 553 673 q 379 654 424 673 q 302 599 334 634 q 222 461 251 541 q 193 298 193 382 q 237 155 193 205 q 363 104 281 104 q 561 212 481 104 q 640 481 640 319 z "},"h":{"ha":880,"x_min":49,"x_max":786,"o":"m 774 458 l 685 0 l 559 0 l 648 454 q 658 510 654 486 q 661 549 661 534 q 625 637 661 606 q 525 669 589 669 q 351 602 425 669 q 256 421 277 534 l 174 0 l 49 0 l 254 1055 l 379 1055 l 298 640 q 420 741 346 704 q 575 778 494 778 q 731 724 675 778 q 786 571 786 669 q 783 519 786 547 q 774 458 780 491 z "},"i":{"ha":386,"x_min":49,"x_max":379,"o":"m 254 1055 l 379 1055 l 349 897 l 224 897 l 254 1055 m 197 760 l 322 760 l 174 0 l 49 0 l 197 760 z "},"j":{"ha":386,"x_min":-157,"x_max":385,"o":"m 201 760 l 326 760 l 176 -14 l 176 -17 q 118 -195 151 -146 q 29 -264 87 -240 q -110 -289 -30 -289 l -157 -289 l -136 -183 l -104 -183 q 0 -153 -31 -183 q 52 -14 31 -122 l 201 760 m 260 1055 l 385 1055 l 354 897 l 229 897 l 260 1055 z "},"k":{"ha":804,"x_min":49,"x_max":850,"o":"m 254 1055 l 379 1055 l 260 440 l 688 760 l 850 760 l 372 396 l 721 0 l 570 0 l 245 371 l 174 0 l 49 0 l 254 1055 z "},"l":{"ha":386,"x_min":49,"x_max":379,"o":"m 254 1055 l 379 1055 l 174 0 l 49 0 l 254 1055 z "},"m":{"ha":1353,"x_min":49,"x_max":1258,"o":"m 1247 458 l 1158 0 l 1034 0 l 1121 454 q 1129 505 1126 484 q 1132 541 1132 526 q 1098 635 1132 602 q 1003 669 1064 669 q 841 601 912 669 q 749 424 770 533 l 665 0 l 541 0 l 629 454 q 637 501 635 479 q 640 539 640 522 q 606 635 640 601 q 513 669 572 669 q 349 601 420 669 q 257 424 278 533 l 174 0 l 49 0 l 197 760 l 322 760 l 298 642 q 417 743 349 708 q 564 778 486 778 q 700 734 646 778 q 764 614 753 691 q 896 736 821 694 q 1054 778 970 778 q 1205 722 1152 778 q 1258 562 1258 665 q 1255 513 1258 540 q 1247 458 1253 486 z "},"n":{"ha":880,"x_min":49,"x_max":786,"o":"m 774 458 l 685 0 l 559 0 l 648 454 q 658 510 654 486 q 661 549 661 534 q 625 637 661 606 q 525 669 589 669 q 352 603 425 669 q 257 421 279 536 l 174 0 l 49 0 l 196 760 l 321 760 l 296 640 q 421 742 348 706 q 575 778 494 778 q 731 724 675 778 q 786 571 786 669 q 783 519 786 547 q 774 458 780 491 z "},"o":{"ha":850,"x_min":64,"x_max":786,"o":"m 353 -20 q 141 63 219 -20 q 64 288 64 145 q 91 456 64 370 q 160 600 117 542 q 310 734 227 691 q 497 778 393 778 q 706 697 627 778 q 786 486 786 616 q 760 307 786 396 q 690 158 733 217 q 541 24 624 67 q 353 -20 458 -20 m 193 292 q 236 137 193 189 q 367 86 279 86 q 575 196 492 86 q 657 473 657 305 q 613 622 657 572 q 484 672 569 672 q 358 639 413 672 q 260 539 303 606 q 211 425 228 489 q 193 292 193 360 z "},"p":{"ha":882,"x_min":-4,"x_max":818,"o":"m 689 468 q 646 621 689 568 q 521 673 602 673 q 415 645 465 673 q 325 562 364 616 q 263 433 286 509 q 240 282 240 357 q 283 136 240 187 q 407 85 327 85 q 516 113 466 85 q 603 193 567 140 q 665 324 642 249 q 689 468 689 399 m 302 644 q 421 744 353 710 q 572 778 489 778 q 753 702 689 778 q 818 488 818 625 q 778 273 818 375 q 663 90 738 171 q 549 8 612 37 q 416 -20 486 -20 q 281 14 336 -20 q 199 114 226 47 l 121 -289 l -4 -289 l 200 760 l 325 760 l 302 644 z "},"q":{"ha":882,"x_min":64,"x_max":829,"o":"m 579 114 q 461 14 529 48 q 310 -20 393 -20 q 129 58 195 -20 q 64 272 64 136 q 104 484 64 382 q 220 668 144 587 q 332 749 269 721 q 465 778 395 778 q 604 745 549 778 q 682 644 658 711 l 704 758 l 829 758 l 627 -286 l 501 -286 l 579 114 m 193 290 q 235 137 193 190 q 357 85 277 85 q 558 198 475 85 q 642 472 642 311 q 598 622 642 570 q 475 673 555 673 q 366 646 416 673 q 278 566 315 618 q 216 435 239 510 q 193 290 193 361 z "},"r":{"ha":571,"x_min":49,"x_max":643,"o":"m 619 644 q 576 660 600 654 q 524 665 551 665 q 349 590 424 665 q 250 387 275 514 l 174 0 l 49 0 l 197 760 l 322 760 l 298 642 q 417 743 348 707 q 564 778 486 778 q 604 775 584 778 q 643 768 623 773 l 619 644 z "},"s":{"ha":724,"x_min":16,"x_max":694,"o":"m 694 737 l 671 619 q 566 660 621 646 q 453 673 511 673 q 298 640 355 673 q 241 549 241 606 q 373 446 241 481 q 388 441 383 443 l 428 429 q 594 357 553 395 q 636 253 636 319 q 540 56 636 132 q 289 -20 444 -20 q 162 -8 229 -20 q 16 28 96 3 l 40 157 q 175 103 109 121 q 302 85 241 85 q 451 124 394 85 q 509 224 509 163 q 358 329 509 289 l 345 332 l 302 343 q 163 409 208 368 q 119 514 119 450 q 211 707 119 635 q 458 778 302 778 q 579 768 520 778 q 694 737 637 758 z "},"t":{"ha":545,"x_min":89,"x_max":587,"o":"m 587 760 l 568 663 l 319 663 l 239 250 q 233 212 235 227 q 231 187 231 196 q 257 124 231 144 q 340 104 283 104 l 467 104 l 446 0 l 326 0 q 160 43 215 0 q 106 175 106 87 q 108 209 106 191 q 114 250 110 228 l 195 663 l 89 663 l 109 760 l 212 760 l 254 975 l 379 975 l 338 760 l 587 760 z "},"u":{"ha":880,"x_min":79,"x_max":818,"o":"m 93 301 l 182 760 l 307 760 l 218 306 q 209 249 212 273 q 205 210 205 225 q 241 120 205 152 q 340 89 276 89 q 514 157 441 89 q 610 339 587 224 l 693 760 l 818 760 l 671 0 l 546 0 l 571 119 q 445 17 518 53 q 290 -20 372 -20 q 135 35 191 -20 q 79 187 79 90 q 83 238 79 208 q 93 301 86 269 z "},"v":{"ha":822,"x_min":100,"x_max":839,"o":"m 100 760 l 232 760 l 343 114 l 707 760 l 839 760 l 407 0 l 239 0 l 100 760 z "},"w":{"ha":1136,"x_min":118,"x_max":1137,"o":"m 118 760 l 241 760 l 273 149 l 557 760 l 701 760 l 743 149 l 1013 760 l 1137 760 l 790 0 l 644 0 l 607 629 l 317 0 l 170 0 l 118 760 z "},"x":{"ha":822,"x_min":-36,"x_max":833,"o":"m 833 760 l 485 387 l 699 0 l 555 0 l 395 301 l 115 0 l -36 0 l 338 400 l 139 760 l 282 760 l 428 485 l 682 760 l 833 760 z "},"y":{"ha":822,"x_min":-35,"x_max":838,"o":"m 345 -71 q 203 -253 258 -216 q 64 -289 149 -289 l -35 -289 l -14 -184 l 58 -184 q 147 -156 111 -184 q 229 -45 184 -127 l 268 28 l 100 760 l 232 760 l 358 178 l 707 760 l 838 760 l 345 -71 z "},"z":{"ha":729,"x_min":-4,"x_max":754,"o":"m 161 760 l 754 760 l 732 646 l 160 100 l 632 100 l 612 0 l -4 0 l 18 114 l 590 660 l 142 660 l 161 760 z "},"{":{"ha":884,"x_min":168,"x_max":840,"o":"m 840 1055 l 821 958 l 768 958 q 644 931 676 958 q 591 803 612 905 l 557 632 q 494 474 535 524 q 378 411 453 425 q 455 364 427 399 q 482 278 482 329 q 479 239 482 262 q 472 191 477 217 l 440 26 q 435 -13 437 5 q 433 -47 433 -31 q 462 -110 433 -90 q 557 -129 491 -129 l 610 -129 l 590 -227 l 542 -227 q 359 -190 414 -227 q 304 -69 304 -153 q 307 -24 304 -47 q 314 24 309 -1 l 345 183 q 346 191 345 185 q 353 256 353 225 q 319 339 353 313 q 210 364 286 364 l 168 364 l 187 464 l 229 464 q 370 501 327 464 q 435 640 413 538 l 467 806 q 508 938 484 889 q 570 1013 532 986 q 648 1045 601 1036 q 785 1055 694 1055 l 840 1055 z "},"|":{"ha":468,"x_min":176,"x_max":292,"o":"m 292 1061 l 292 -328 l 176 -328 l 176 1061 l 292 1061 z "},"}":{"ha":884,"x_min":9,"x_max":682,"o":"m 9 -227 l 29 -129 l 82 -129 q 206 -102 174 -129 q 258 26 238 -75 l 293 197 q 356 355 315 306 q 472 418 397 404 q 395 465 422 431 q 368 551 368 500 q 371 590 368 568 q 378 637 373 612 l 410 802 q 415 842 414 825 q 416 876 416 859 q 388 939 416 920 q 293 958 359 958 l 240 958 l 258 1055 l 309 1055 q 491 1019 435 1055 q 546 899 546 982 q 544 854 546 878 q 536 805 541 831 l 505 646 q 504 637 505 644 q 497 574 497 604 q 530 490 497 515 q 640 465 564 465 l 682 465 l 663 366 l 621 366 q 480 328 523 366 q 418 189 437 291 l 382 24 q 340 -110 364 -62 q 281 -183 317 -157 q 202 -216 249 -206 q 65 -227 155 -227 l 9 -227 z "},"~":{"ha":1164,"x_min":147,"x_max":1017,"o":"m 1017 554 l 1017 433 q 885 357 945 380 q 758 334 824 334 q 585 374 684 334 q 574 378 577 376 q 559 383 569 380 q 390 425 454 425 q 272 399 330 425 q 147 317 214 373 l 147 437 q 279 514 218 491 q 406 538 340 538 q 580 497 480 538 q 590 493 587 494 q 605 488 595 491 q 774 446 710 446 q 889 471 832 446 q 1017 554 947 497 z "}," ":{"ha":441,"x_min":0,"x_max":0,"o":""},"¡":{"ha":557,"x_min":118,"x_max":453,"o":"m 256 -253 l 118 -253 l 204 191 l 265 433 l 375 433 l 342 191 l 256 -253 m 418 587 l 281 587 l 314 760 l 453 760 l 418 587 z "},"¢":{"ha":884,"x_min":103,"x_max":782,"o":"m 514 668 q 312 544 393 652 q 231 289 231 435 q 272 148 231 198 q 400 85 313 98 l 514 668 m 603 777 q 696 761 652 772 q 782 730 740 749 l 758 607 q 684 647 726 632 q 582 671 642 663 l 468 86 q 563 105 513 90 q 669 149 613 120 l 646 25 q 552 -5 602 6 q 450 -20 503 -16 l 410 -212 l 342 -212 l 382 -20 q 176 65 248 -11 q 103 272 103 140 q 223 620 103 479 q 534 777 343 761 l 572 970 l 640 970 l 603 777 z "},"£":{"ha":884,"x_min":33,"x_max":885,"o":"m 885 990 l 861 867 q 775 908 820 894 q 688 922 731 922 q 538 868 588 922 q 460 673 488 814 l 432 528 l 697 528 l 677 431 l 412 431 l 351 115 l 715 115 l 693 0 l 33 0 l 56 115 l 215 115 l 277 431 l 142 431 l 161 528 l 296 528 l 326 689 q 450 949 361 867 q 696 1031 538 1031 q 791 1021 743 1031 q 885 990 838 1010 z "},"¤":{"ha":884,"x_min":64,"x_max":822,"o":"m 604 673 l 745 815 l 822 737 l 682 597 q 720 517 707 557 q 732 435 732 477 q 719 353 732 392 q 679 275 706 314 l 821 135 l 743 58 l 603 199 q 524 159 563 172 q 443 146 484 146 q 363 158 404 146 q 281 196 322 171 l 140 56 l 64 134 l 204 273 q 166 355 179 315 q 154 435 154 395 q 167 517 154 478 q 205 595 180 557 l 65 734 l 143 812 l 283 672 q 360 711 321 699 q 443 724 399 724 q 523 711 484 724 q 604 673 563 699 m 625 436 q 573 564 625 512 q 443 616 520 616 q 313 564 367 616 q 260 436 260 512 q 313 306 260 359 q 443 253 366 253 q 572 306 519 253 q 625 436 625 359 z "},"¥":{"ha":884,"x_min":62,"x_max":935,"o":"m 761 309 l 482 309 l 422 0 l 285 0 l 345 309 l 62 309 l 78 392 l 361 392 l 368 427 l 332 532 l 106 532 l 122 615 l 302 615 l 164 1013 l 293 1013 l 456 538 l 803 1013 l 935 1013 l 643 615 l 821 615 l 804 532 l 582 532 l 505 427 l 498 392 l 777 392 l 761 309 z "},"¦":{"ha":468,"x_min":176,"x_max":292,"o":"m 292 277 l 292 -237 l 176 -237 l 176 277 l 292 277 m 292 971 l 292 457 l 176 457 l 176 971 l 292 971 z "},"§":{"ha":694,"x_min":17,"x_max":673,"o":"m 408 278 q 493 349 464 311 q 522 425 522 387 q 486 500 522 462 q 353 600 450 538 l 298 635 q 215 562 243 600 q 186 486 186 524 q 215 419 186 452 q 329 330 243 387 l 408 278 m 673 991 l 652 880 q 556 920 603 907 q 471 933 510 933 q 356 900 401 933 q 311 818 311 867 q 403 703 311 764 q 435 682 423 690 l 494 642 q 606 544 577 584 q 635 457 635 505 q 590 328 635 389 q 468 231 545 267 q 510 176 496 207 q 524 109 524 146 q 441 -65 524 2 q 224 -132 359 -132 q 125 -122 177 -132 q 17 -93 73 -113 l 39 18 q 139 -21 90 -7 q 228 -35 188 -35 q 349 -2 304 -35 q 395 83 395 30 q 273 232 395 150 l 262 239 l 211 273 q 100 369 127 330 q 72 457 72 407 q 115 581 72 522 q 239 682 159 640 q 196 735 210 708 q 183 798 183 763 q 266 964 183 897 q 475 1031 348 1031 q 572 1021 523 1031 q 673 991 621 1011 z "},"¨":{"ha":694,"x_min":256,"x_max":685,"o":"m 282 1053 l 421 1053 l 393 916 l 256 916 l 282 1053 m 547 1053 l 685 1053 l 659 916 l 521 916 l 547 1053 z "},"©":{"ha":1389,"x_min":192,"x_max":1197,"o":"m 694 1007 q 887 970 798 1007 q 1050 859 976 932 q 1160 696 1124 785 q 1197 503 1197 607 q 1160 311 1197 399 q 1050 149 1124 222 q 887 37 976 75 q 694 0 798 0 q 502 37 591 0 q 339 149 413 75 q 229 311 265 222 q 192 503 192 399 q 229 696 192 607 q 339 859 265 785 q 502 970 413 932 q 694 1007 591 1007 m 694 937 q 529 905 606 937 q 389 810 452 873 q 292 668 325 746 q 260 503 260 591 q 292 338 260 415 q 389 197 325 261 q 529 101 452 134 q 694 69 606 69 q 861 101 784 69 q 1002 197 938 134 q 1096 337 1065 260 q 1128 503 1128 414 q 1096 670 1128 593 q 1002 810 1064 747 q 861 905 938 873 q 694 937 784 937 m 897 771 l 897 684 q 808 717 852 706 q 720 728 764 728 q 562 668 618 728 q 505 503 505 609 q 563 336 505 395 q 726 277 621 277 q 811 287 770 277 q 897 321 852 298 l 897 235 q 805 205 852 215 q 711 196 759 196 q 480 279 565 196 q 395 503 395 361 q 480 726 395 644 q 711 808 565 808 q 807 799 761 808 q 897 771 853 789 z "},"ª":{"ha":654,"x_min":56,"x_max":619,"o":"m 403 749 q 248 723 296 749 q 200 642 200 698 q 226 578 200 602 q 296 554 252 554 q 427 600 374 554 q 498 729 480 646 l 503 749 l 403 749 m 612 790 l 553 486 l 452 486 l 467 562 q 375 496 427 518 q 258 473 323 473 q 141 515 186 473 q 97 624 97 556 q 175 773 97 719 q 395 827 254 827 l 518 827 l 518 829 q 520 849 519 842 q 521 861 521 857 q 489 931 521 909 q 390 953 458 953 q 293 941 342 953 q 195 907 244 930 l 211 993 q 316 1021 264 1012 q 414 1031 368 1031 q 567 989 515 1031 q 619 865 619 947 q 617 828 619 847 q 612 790 616 810 m 71 401 l 538 401 l 522 318 l 56 318 l 71 401 z "},"«":{"ha":857,"x_min":86,"x_max":771,"o":"m 469 718 l 443 582 l 203 399 l 374 218 l 349 96 l 86 379 l 97 435 l 469 718 m 771 718 l 745 582 l 504 399 l 675 218 l 650 96 l 387 379 l 399 435 l 771 718 z "},"¬":{"ha":1164,"x_min":147,"x_max":1017,"o":"m 147 585 l 1017 585 l 1017 195 l 903 195 l 903 469 l 147 469 l 147 585 z "},"­":{"ha":501,"x_min":62,"x_max":450,"o":"m 85 436 l 450 436 l 429 325 l 62 325 l 85 436 z "},"®":{"ha":1389,"x_min":192,"x_max":1197,"o":"m 694 937 q 529 905 606 937 q 389 810 452 873 q 292 668 325 746 q 260 503 260 591 q 292 338 260 415 q 389 197 325 261 q 529 101 452 134 q 694 69 606 69 q 861 101 784 69 q 1002 197 938 134 q 1096 337 1065 260 q 1128 503 1128 414 q 1096 670 1128 593 q 1002 810 1064 747 q 861 905 938 873 q 694 937 784 937 m 694 1007 q 887 970 798 1007 q 1050 859 976 932 q 1160 696 1124 785 q 1197 503 1197 607 q 1160 311 1197 399 q 1050 149 1124 222 q 887 37 976 75 q 694 0 798 0 q 502 37 591 0 q 339 149 413 75 q 229 311 265 222 q 192 503 192 399 q 229 696 192 607 q 339 859 265 785 q 502 970 413 932 q 694 1007 591 1007 m 676 726 l 593 726 l 593 539 l 676 539 q 780 560 751 539 q 810 632 810 581 q 780 705 810 684 q 676 726 750 726 m 681 796 q 859 756 800 796 q 918 633 918 715 q 883 537 918 575 q 782 488 847 499 q 821 456 798 482 q 875 380 844 430 l 968 229 l 851 229 l 764 371 q 699 453 724 436 q 637 471 674 471 l 593 471 l 593 229 l 488 229 l 488 796 l 681 796 z "},"¯":{"ha":694,"x_min":258,"x_max":684,"o":"m 278 1035 l 684 1035 l 664 935 l 258 935 l 278 1035 z "},"°":{"ha":694,"x_min":132,"x_max":562,"o":"m 347 943 q 256 906 293 943 q 218 814 218 868 q 256 723 218 760 q 347 686 293 686 q 439 723 401 686 q 476 814 476 760 q 438 905 476 867 q 347 943 401 943 m 347 1031 q 431 1014 391 1031 q 500 966 471 998 q 547 897 531 936 q 562 814 562 859 q 499 662 562 724 q 346 600 437 600 q 193 661 254 600 q 132 814 132 722 q 195 968 132 905 q 347 1031 257 1031 z "},"±":{"ha":1164,"x_min":147,"x_max":1017,"o":"m 639 871 l 639 608 l 1017 608 l 1017 493 l 639 493 l 639 231 l 525 231 l 525 493 l 147 493 l 147 608 l 525 608 l 525 871 l 639 871 m 147 115 l 1017 115 l 1017 0 l 147 0 l 147 115 z "},"²":{"ha":557,"x_min":50,"x_max":534,"o":"m 447 739 l 186 530 l 485 530 l 469 453 l 50 453 l 65 528 l 351 758 q 411 819 391 789 q 431 875 431 848 q 402 934 431 911 q 326 957 374 957 q 244 945 289 957 q 143 909 199 934 l 160 993 q 258 1021 212 1012 q 347 1031 304 1031 q 483 992 431 1031 q 534 893 534 954 q 513 813 534 851 q 447 739 491 774 z "},"³":{"ha":557,"x_min":22,"x_max":511,"o":"m 146 1007 q 245 1025 202 1019 q 325 1031 288 1031 q 460 995 410 1031 q 511 901 511 960 q 473 810 511 849 q 368 760 434 772 q 446 717 419 749 q 473 636 473 685 q 398 496 473 550 q 197 443 322 443 q 110 450 154 443 q 22 471 66 457 l 39 553 q 113 526 75 534 q 193 517 151 517 q 324 548 277 517 q 371 635 371 579 q 338 698 371 677 q 239 720 305 720 l 180 720 l 196 793 l 258 793 q 367 817 328 793 q 406 885 406 842 q 378 939 406 921 q 294 957 350 957 q 214 950 256 957 q 131 929 172 943 l 146 1007 z "},"´":{"ha":694,"x_min":350,"x_max":725,"o":"m 590 1111 l 725 1111 l 454 856 l 350 856 l 590 1111 z "},"µ":{"ha":884,"x_min":-18,"x_max":822,"o":"m -18 -289 l 186 760 l 311 760 l 219 287 q 214 255 216 273 q 212 220 212 237 q 252 123 212 157 q 366 89 292 89 q 528 146 466 89 q 611 317 589 203 l 697 760 l 822 760 l 709 176 q 705 153 706 163 q 704 136 704 144 q 712 105 704 115 q 739 96 721 96 q 758 99 746 96 q 791 111 770 102 l 772 11 q 715 -12 743 -4 q 663 -20 688 -20 q 592 9 618 -20 q 567 87 567 37 q 476 7 529 33 q 353 -20 424 -20 q 242 9 290 -20 q 180 86 195 39 l 107 -289 l -18 -289 z "},"¶":{"ha":884,"x_min":109,"x_max":796,"o":"m 521 1013 l 796 1013 l 574 -134 l 479 -134 l 686 929 l 557 929 l 350 -134 l 254 -134 l 366 440 q 177 508 245 444 q 109 679 109 572 q 225 917 109 822 q 521 1013 342 1013 z "},"·":{"ha":441,"x_min":158,"x_max":335,"o":"m 192 568 l 335 568 l 301 396 l 158 396 l 192 568 z "},"¸":{"ha":694,"x_min":68,"x_max":371,"o":"m 323 0 q 359 -64 348 -35 q 371 -122 371 -94 q 321 -229 371 -190 q 184 -268 271 -268 q 126 -264 155 -268 q 68 -252 97 -260 l 83 -163 q 137 -179 110 -174 q 192 -184 163 -184 q 257 -164 233 -184 q 281 -107 281 -143 q 272 -63 281 -87 q 243 0 264 -39 l 323 0 z "},"¹":{"ha":557,"x_min":92,"x_max":482,"o":"m 106 528 l 244 528 l 325 942 l 170 914 l 184 993 l 340 1019 l 439 1019 l 343 528 l 482 528 l 467 453 l 92 453 l 106 528 z "},"º":{"ha":654,"x_min":56,"x_max":642,"o":"m 534 800 q 501 914 534 875 q 401 953 467 953 q 266 880 323 953 q 208 705 208 808 q 242 591 208 631 q 338 551 275 551 q 477 623 420 551 q 534 800 534 694 m 421 1031 q 582 972 522 1031 q 642 817 642 914 q 551 570 642 667 q 323 473 461 473 q 162 534 222 473 q 103 700 103 595 q 116 791 103 746 q 154 879 129 836 q 267 991 196 951 q 421 1031 337 1031 m 71 401 l 538 401 l 522 318 l 56 318 l 71 401 z "},"»":{"ha":857,"x_min":86,"x_max":770,"o":"m 386 96 l 412 232 l 653 415 l 482 596 l 509 718 l 770 435 l 760 379 l 386 96 m 86 96 l 113 232 l 351 415 l 182 596 l 207 718 l 468 435 l 458 379 l 86 96 z "},"¼":{"ha":1346,"x_min":92,"x_max":1331,"o":"m 1197 481 l 930 200 l 1141 200 l 1197 481 m 1197 566 l 1310 566 l 1238 200 l 1331 200 l 1316 126 l 1223 126 l 1198 0 l 1103 0 l 1128 126 l 846 126 l 863 215 l 1197 566 m 106 528 l 244 528 l 325 942 l 170 914 l 184 993 l 340 1019 l 439 1019 l 343 528 l 482 528 l 467 453 l 92 453 l 106 528 m 1030 1031 l 1152 1031 l 315 -20 l 193 -20 l 1030 1031 z "},"½":{"ha":1346,"x_min":92,"x_max":1323,"o":"m 106 528 l 244 528 l 325 942 l 170 914 l 184 993 l 340 1019 l 439 1019 l 343 528 l 482 528 l 467 453 l 92 453 l 106 528 m 1030 1031 l 1152 1031 l 315 -20 l 193 -20 l 1030 1031 m 1236 286 l 975 77 l 1274 77 l 1258 0 l 839 0 l 854 75 l 1140 305 q 1200 366 1180 336 q 1219 422 1219 395 q 1191 481 1219 458 q 1115 504 1162 504 q 1033 492 1078 504 q 932 456 988 481 l 949 540 q 1046 568 1000 559 q 1136 578 1093 578 q 1271 539 1219 578 q 1323 440 1323 500 q 1301 360 1323 398 q 1236 286 1280 321 z "},"¾":{"ha":1346,"x_min":22,"x_max":1331,"o":"m 1197 481 l 930 200 l 1141 200 l 1197 481 m 1197 566 l 1310 566 l 1238 200 l 1331 200 l 1316 126 l 1223 126 l 1198 0 l 1103 0 l 1128 126 l 846 126 l 863 215 l 1197 566 m 146 1007 q 245 1025 202 1019 q 325 1031 288 1031 q 460 995 410 1031 q 511 901 511 960 q 473 810 511 849 q 368 760 434 772 q 446 717 419 749 q 473 636 473 685 q 398 496 473 550 q 197 443 322 443 q 110 450 154 443 q 22 471 66 457 l 39 553 q 113 526 75 534 q 193 517 151 517 q 324 548 277 517 q 371 635 371 579 q 338 698 371 677 q 239 720 305 720 l 180 720 l 196 793 l 258 793 q 367 817 328 793 q 406 885 406 842 q 378 939 406 921 q 294 957 350 957 q 214 950 256 957 q 131 929 172 943 l 146 1007 m 1030 1031 l 1152 1031 l 315 -20 l 193 -20 l 1030 1031 z "},"¿":{"ha":737,"x_min":52,"x_max":590,"o":"m 415 587 l 449 760 l 586 760 l 553 587 l 415 587 m 566 -195 q 427 -252 496 -233 q 286 -271 359 -271 q 114 -220 177 -271 q 52 -82 52 -170 q 88 49 52 -12 q 205 176 124 110 l 275 233 q 352 311 333 279 q 383 404 372 343 l 400 488 l 529 488 l 509 383 q 469 275 496 319 q 368 168 443 231 l 296 108 q 216 24 239 60 q 193 -50 193 -12 q 230 -131 193 -102 q 332 -160 267 -160 q 453 -136 387 -160 q 590 -67 519 -112 l 566 -195 z "},"À":{"ha":950,"x_min":-74,"x_max":854,"o":"m 511 1013 l 667 1013 l 854 0 l 711 0 l 669 260 l 214 260 l 71 0 l -74 0 l 511 1013 m 561 878 l 277 374 l 648 374 l 561 878 m 586 1288 l 686 1109 l 591 1109 l 463 1288 l 586 1288 z "},"Á":{"ha":950,"x_min":-74,"x_max":854,"o":"m 511 1013 l 667 1013 l 854 0 l 711 0 l 669 260 l 214 260 l 71 0 l -74 0 l 511 1013 m 561 878 l 277 374 l 648 374 l 561 878 m 672 1288 l 812 1288 l 604 1109 l 497 1109 l 672 1288 z "},"Â":{"ha":950,"x_min":-74,"x_max":854,"o":"m 511 1013 l 667 1013 l 854 0 l 711 0 l 669 260 l 214 260 l 71 0 l -74 0 l 511 1013 m 561 878 l 277 374 l 648 374 l 561 878 m 554 1289 l 700 1289 l 807 1109 l 715 1109 l 621 1230 l 479 1109 l 376 1109 l 554 1289 z "},"Ã":{"ha":950,"x_min":-74,"x_max":857,"o":"m 511 1013 l 667 1013 l 854 0 l 711 0 l 669 260 l 214 260 l 71 0 l -74 0 l 511 1013 m 561 878 l 277 374 l 648 374 l 561 878 m 608 1160 l 585 1177 l 584 1177 q 529 1199 555 1199 q 488 1182 506 1199 q 457 1131 469 1164 l 372 1131 q 438 1242 396 1204 q 537 1279 479 1279 q 582 1272 561 1279 q 627 1247 602 1264 l 648 1230 q 673 1216 661 1220 q 700 1211 686 1211 q 746 1230 726 1211 q 772 1279 765 1248 l 857 1279 q 792 1168 835 1205 q 688 1131 750 1131 q 648 1138 667 1131 q 608 1160 629 1145 z "},"Ä":{"ha":950,"x_min":-74,"x_max":854,"o":"m 511 1013 l 667 1013 l 854 0 l 711 0 l 669 260 l 214 260 l 71 0 l -74 0 l 511 1013 m 561 878 l 277 374 l 648 374 l 561 878 m 422 1268 l 561 1268 l 533 1131 l 396 1131 l 422 1268 m 688 1268 l 825 1268 l 799 1131 l 661 1131 l 688 1268 z "},"Å":{"ha":950,"x_min":-74,"x_max":854,"o":"m 692 1103 q 662 1176 692 1145 q 589 1206 631 1206 q 516 1176 545 1206 q 486 1103 486 1147 q 516 1030 486 1060 q 589 1000 545 1000 q 662 1030 631 1000 q 692 1103 692 1060 m 478 954 q 422 1018 441 979 q 403 1103 403 1056 q 457 1235 403 1180 q 589 1289 511 1289 q 721 1235 666 1289 q 775 1103 775 1180 q 750 1008 775 1049 q 679 942 726 966 l 854 0 l 711 0 l 669 260 l 214 260 l 71 0 l -74 0 l 478 954 m 561 878 l 277 374 l 648 374 l 561 878 z "},"Æ":{"ha":1353,"x_min":-62,"x_max":1381,"o":"m 632 905 l 304 374 l 615 374 l 720 905 l 632 905 m 1381 1013 l 1358 897 l 856 897 l 796 597 l 1279 597 l 1257 482 l 774 482 l 703 115 l 1218 115 l 1196 0 l 543 0 l 593 260 l 236 260 l 77 0 l -62 0 l 558 1013 l 1381 1013 z "},"Ç":{"ha":970,"x_min":58,"x_max":965,"o":"m 965 935 l 937 790 q 799 888 872 856 q 642 920 726 920 q 438 864 526 920 q 286 694 350 808 q 224 539 245 621 q 203 375 203 458 q 274 164 203 237 q 482 92 346 92 q 663 122 576 92 q 832 212 750 152 l 800 50 q 637 -2 720 16 q 472 -20 555 -20 q 168 86 277 -20 q 58 380 58 192 q 100 618 58 501 q 220 831 142 734 q 409 982 302 933 q 656 1031 515 1031 q 820 1007 743 1031 q 965 935 898 983 m 507 0 q 543 -64 531 -35 q 554 -122 554 -94 q 504 -229 554 -190 q 368 -268 454 -268 q 309 -264 338 -268 q 251 -252 280 -260 l 267 -163 q 320 -179 293 -174 q 375 -184 347 -184 q 440 -164 416 -184 q 464 -107 464 -143 q 455 -63 464 -87 q 426 0 447 -39 l 507 0 z "},"È":{"ha":878,"x_min":37,"x_max":875,"o":"m 235 1013 l 875 1013 l 852 897 l 349 897 l 290 597 l 774 597 l 751 482 l 268 482 l 197 115 l 713 115 l 690 0 l 37 0 l 235 1013 m 547 1288 l 648 1109 l 553 1109 l 424 1288 l 547 1288 z "},"É":{"ha":878,"x_min":37,"x_max":875,"o":"m 235 1013 l 875 1013 l 852 897 l 349 897 l 290 597 l 774 597 l 751 482 l 268 482 l 197 115 l 713 115 l 690 0 l 37 0 l 235 1013 m 633 1288 l 774 1288 l 566 1109 l 458 1109 l 633 1288 z "},"Ê":{"ha":878,"x_min":37,"x_max":875,"o":"m 235 1013 l 875 1013 l 852 897 l 349 897 l 290 597 l 774 597 l 751 482 l 268 482 l 197 115 l 713 115 l 690 0 l 37 0 l 235 1013 m 515 1289 l 661 1289 l 768 1109 l 677 1109 l 582 1230 l 440 1109 l 338 1109 l 515 1289 z "},"Ë":{"ha":878,"x_min":37,"x_max":875,"o":"m 235 1013 l 875 1013 l 852 897 l 349 897 l 290 597 l 774 597 l 751 482 l 268 482 l 197 115 l 713 115 l 690 0 l 37 0 l 235 1013 m 384 1268 l 522 1268 l 494 1131 l 357 1131 l 384 1268 m 649 1268 l 786 1268 l 760 1131 l 623 1131 l 649 1268 z "},"Ì":{"ha":410,"x_min":37,"x_max":406,"o":"m 235 1013 l 372 1013 l 175 0 l 37 0 l 235 1013 m 305 1288 l 406 1109 l 311 1109 l 182 1288 l 305 1288 z "},"Í":{"ha":410,"x_min":37,"x_max":532,"o":"m 235 1013 l 372 1013 l 175 0 l 37 0 l 235 1013 m 391 1288 l 532 1288 l 323 1109 l 216 1109 l 391 1288 z "},"Î":{"ha":410,"x_min":37,"x_max":526,"o":"m 235 1013 l 372 1013 l 175 0 l 37 0 l 235 1013 m 273 1289 l 419 1289 l 526 1109 l 435 1109 l 340 1230 l 198 1109 l 96 1109 l 273 1289 z "},"Ï":{"ha":410,"x_min":37,"x_max":544,"o":"m 235 1013 l 372 1013 l 175 0 l 37 0 l 235 1013 m 142 1268 l 280 1268 l 252 1131 l 115 1131 l 142 1268 m 407 1268 l 544 1268 l 518 1131 l 380 1131 l 407 1268 z "},"Ð":{"ha":1076,"x_min":0,"x_max":1010,"o":"m 241 1013 l 536 1013 q 890 913 770 1013 q 1010 618 1010 814 q 964 369 1010 489 q 838 167 918 250 q 633 41 757 83 q 340 0 510 0 l 45 0 l 136 475 l 0 475 l 20 572 l 155 572 l 241 1013 m 357 900 l 293 572 l 521 572 l 501 475 l 273 475 l 204 113 l 383 113 q 740 245 614 113 q 865 618 865 377 q 784 832 865 764 q 529 900 703 900 l 357 900 z "},"Ñ":{"ha":1039,"x_min":37,"x_max":1002,"o":"m 235 1013 l 419 1013 l 699 144 l 868 1013 l 1002 1013 l 804 0 l 619 0 l 340 873 l 171 0 l 37 0 l 235 1013 m 633 1160 l 610 1177 l 609 1177 q 554 1199 580 1199 q 513 1182 531 1199 q 482 1131 494 1164 l 397 1131 q 463 1242 421 1204 q 562 1279 505 1279 q 607 1272 586 1279 q 652 1247 627 1264 l 673 1230 q 699 1216 686 1220 q 725 1211 711 1211 q 771 1230 751 1211 q 798 1279 790 1248 l 882 1279 q 818 1168 860 1205 q 713 1131 775 1131 q 673 1138 692 1131 q 633 1160 654 1145 z "},"Ò":{"ha":1093,"x_min":56,"x_max":1038,"o":"m 633 920 q 435 865 521 920 q 285 699 349 810 q 223 547 244 627 q 201 386 201 467 q 269 168 201 245 q 460 92 336 92 q 658 147 571 92 q 807 311 745 202 q 870 465 848 385 q 892 625 892 545 q 824 843 892 766 q 633 920 756 920 m 456 -20 q 162 91 269 -20 q 56 393 56 201 q 97 618 56 503 q 212 822 139 732 q 404 979 298 927 q 637 1031 510 1031 q 930 921 823 1031 q 1038 623 1038 812 q 997 393 1038 506 q 880 189 956 281 q 689 32 793 83 q 456 -20 584 -20 m 669 1288 l 770 1109 l 675 1109 l 546 1288 l 669 1288 z "},"Ó":{"ha":1093,"x_min":56,"x_max":1038,"o":"m 633 920 q 435 865 521 920 q 285 699 349 810 q 223 547 244 627 q 201 386 201 467 q 269 168 201 245 q 460 92 336 92 q 658 147 571 92 q 807 311 745 202 q 870 465 848 385 q 892 625 892 545 q 824 843 892 766 q 633 920 756 920 m 456 -20 q 162 91 269 -20 q 56 393 56 201 q 97 618 56 503 q 212 822 139 732 q 404 979 298 927 q 637 1031 510 1031 q 930 921 823 1031 q 1038 623 1038 812 q 997 393 1038 506 q 880 189 956 281 q 689 32 793 83 q 456 -20 584 -20 m 755 1288 l 896 1288 l 688 1109 l 581 1109 l 755 1288 z "},"Ô":{"ha":1093,"x_min":56,"x_max":1038,"o":"m 633 920 q 435 865 521 920 q 285 699 349 810 q 223 547 244 627 q 201 386 201 467 q 269 168 201 245 q 460 92 336 92 q 658 147 571 92 q 807 311 745 202 q 870 465 848 385 q 892 625 892 545 q 824 843 892 766 q 633 920 756 920 m 456 -20 q 162 91 269 -20 q 56 393 56 201 q 97 618 56 503 q 212 822 139 732 q 404 979 298 927 q 637 1031 510 1031 q 930 921 823 1031 q 1038 623 1038 812 q 997 393 1038 506 q 880 189 956 281 q 689 32 793 83 q 456 -20 584 -20 m 637 1289 l 783 1289 l 890 1109 l 799 1109 l 704 1230 l 562 1109 l 460 1109 l 637 1289 z "},"Õ":{"ha":1093,"x_min":56,"x_max":1038,"o":"m 633 920 q 435 865 521 920 q 285 699 349 810 q 223 547 244 627 q 201 386 201 467 q 269 168 201 245 q 460 92 336 92 q 658 147 571 92 q 807 311 745 202 q 870 465 848 385 q 892 625 892 545 q 824 843 892 766 q 633 920 756 920 m 456 -20 q 162 91 269 -20 q 56 393 56 201 q 97 618 56 503 q 212 822 139 732 q 404 979 298 927 q 637 1031 510 1031 q 930 921 823 1031 q 1038 623 1038 812 q 997 393 1038 506 q 880 189 956 281 q 689 32 793 83 q 456 -20 584 -20 m 692 1160 l 668 1177 l 667 1177 q 612 1199 638 1199 q 571 1182 589 1199 q 541 1131 553 1164 l 456 1131 q 521 1242 479 1204 q 621 1279 563 1279 q 665 1272 644 1279 q 710 1247 686 1264 l 732 1230 q 757 1216 744 1220 q 783 1211 770 1211 q 829 1230 810 1211 q 856 1279 848 1248 l 941 1279 q 876 1168 918 1205 q 771 1131 833 1131 q 731 1138 750 1131 q 692 1160 713 1145 z "},"Ö":{"ha":1093,"x_min":56,"x_max":1038,"o":"m 633 920 q 435 865 521 920 q 285 699 349 810 q 223 547 244 627 q 201 386 201 467 q 269 168 201 245 q 460 92 336 92 q 658 147 571 92 q 807 311 745 202 q 870 465 848 385 q 892 625 892 545 q 824 843 892 766 q 633 920 756 920 m 456 -20 q 162 91 269 -20 q 56 393 56 201 q 97 618 56 503 q 212 822 139 732 q 404 979 298 927 q 637 1031 510 1031 q 930 921 823 1031 q 1038 623 1038 812 q 997 393 1038 506 q 880 189 956 281 q 689 32 793 83 q 456 -20 584 -20 m 506 1268 l 644 1268 l 616 1131 l 479 1131 l 506 1268 m 771 1268 l 908 1268 l 882 1131 l 745 1131 l 771 1268 z "},"×":{"ha":1164,"x_min":191,"x_max":974,"o":"m 974 746 l 664 435 l 974 125 l 893 43 l 582 354 l 271 43 l 191 125 l 500 435 l 191 746 l 271 828 l 582 517 l 893 828 l 974 746 z "},"Ø":{"ha":1093,"x_min":-47,"x_max":1124,"o":"m 829 838 q 749 899 799 878 q 633 920 700 920 q 435 865 522 920 q 286 700 349 810 q 222 545 244 626 q 200 387 200 465 q 204 327 200 357 q 216 268 208 298 l 829 838 m 873 757 l 258 183 q 343 114 293 137 q 460 92 393 92 q 658 147 571 92 q 807 311 745 202 q 870 467 849 387 q 892 629 892 547 q 887 699 892 667 q 873 757 883 730 m 109 167 q 69 277 82 221 q 56 390 56 332 q 97 616 56 503 q 212 822 138 730 q 403 979 297 926 q 637 1031 509 1031 q 797 1005 726 1031 q 925 926 868 979 l 1063 1057 l 1124 990 l 982 856 q 1023 749 1009 806 q 1036 625 1036 692 q 996 393 1036 505 q 880 189 956 281 q 689 32 793 83 q 456 -20 584 -20 q 288 9 361 -20 q 163 93 214 37 l 14 -45 l -47 22 l 109 167 z "},"Ù":{"ha":1017,"x_min":81,"x_max":990,"o":"m 215 1013 l 353 1013 l 233 397 q 223 329 226 356 q 220 282 220 302 q 272 140 220 189 q 425 92 324 92 q 629 163 556 92 q 733 397 702 235 l 852 1013 l 990 1013 l 868 380 q 716 78 828 176 q 410 -20 604 -20 q 169 57 258 -20 q 81 264 81 133 q 84 317 81 288 q 94 380 87 347 l 215 1013 m 608 1288 l 709 1109 l 614 1109 l 485 1288 l 608 1288 z "},"Ú":{"ha":1017,"x_min":81,"x_max":990,"o":"m 215 1013 l 353 1013 l 233 397 q 223 329 226 356 q 220 282 220 302 q 272 140 220 189 q 425 92 324 92 q 629 163 556 92 q 733 397 702 235 l 852 1013 l 990 1013 l 868 380 q 716 78 828 176 q 410 -20 604 -20 q 169 57 258 -20 q 81 264 81 133 q 84 317 81 288 q 94 380 87 347 l 215 1013 m 694 1288 l 835 1288 l 627 1109 l 519 1109 l 694 1288 z "},"Û":{"ha":1017,"x_min":81,"x_max":990,"o":"m 215 1013 l 353 1013 l 233 397 q 223 329 226 356 q 220 282 220 302 q 272 140 220 189 q 425 92 324 92 q 629 163 556 92 q 733 397 702 235 l 852 1013 l 990 1013 l 868 380 q 716 78 828 176 q 410 -20 604 -20 q 169 57 258 -20 q 81 264 81 133 q 84 317 81 288 q 94 380 87 347 l 215 1013 m 576 1289 l 722 1289 l 829 1109 l 738 1109 l 643 1230 l 501 1109 l 399 1109 l 576 1289 z "},"Ü":{"ha":1017,"x_min":81,"x_max":990,"o":"m 215 1013 l 353 1013 l 233 397 q 223 329 226 356 q 220 282 220 302 q 272 140 220 189 q 425 92 324 92 q 629 163 556 92 q 733 397 702 235 l 852 1013 l 990 1013 l 868 380 q 716 78 828 176 q 410 -20 604 -20 q 169 57 258 -20 q 81 264 81 133 q 84 317 81 288 q 94 380 87 347 l 215 1013 m 445 1268 l 583 1268 l 555 1131 l 418 1131 l 445 1268 m 710 1268 l 847 1268 l 821 1131 l 684 1131 l 710 1268 z "},"Ý":{"ha":848,"x_min":87,"x_max":939,"o":"m 87 1013 l 235 1013 l 424 596 l 785 1013 l 939 1013 l 479 482 l 386 0 l 249 0 l 342 482 l 87 1013 m 611 1288 l 751 1288 l 543 1109 l 436 1109 l 611 1288 z "},"Þ":{"ha":844,"x_min":37,"x_max":802,"o":"m 393 229 l 220 229 l 175 0 l 37 0 l 235 1013 l 372 1013 l 338 833 l 518 833 q 729 769 656 833 q 802 581 802 705 q 694 321 802 414 q 393 229 587 229 m 317 721 l 243 342 l 415 342 q 594 401 532 342 q 657 572 657 460 q 615 682 657 643 q 496 721 573 721 l 317 721 z "},"ß":{"ha":875,"x_min":65,"x_max":819,"o":"m 215 771 q 331 980 241 905 q 554 1055 420 1055 q 746 992 672 1055 q 819 829 819 929 q 817 792 819 812 q 811 746 815 771 q 633 695 701 741 q 566 583 566 649 q 580 532 566 556 q 627 482 594 507 l 660 456 q 768 348 741 392 q 796 249 796 303 q 702 56 796 132 q 460 -20 608 -20 q 361 -11 408 -20 q 271 14 313 -3 l 292 125 q 383 95 336 105 q 478 85 430 85 q 614 123 562 85 q 667 224 667 162 q 651 281 667 254 q 582 353 635 307 l 547 382 q 459 475 481 437 q 436 558 436 513 q 508 712 436 644 q 697 806 580 781 q 699 818 699 811 q 700 838 700 825 q 662 921 700 890 q 555 951 623 951 q 411 905 465 951 q 339 768 357 859 l 191 0 l 65 0 l 215 771 z "},"à":{"ha":851,"x_min":57,"x_max":760,"o":"m 746 433 l 661 0 l 536 0 l 559 115 q 434 14 505 47 q 278 -20 364 -20 q 119 40 181 -20 q 57 192 57 99 q 163 402 57 325 q 456 479 269 479 l 629 479 l 636 513 q 638 525 637 518 q 639 545 639 531 q 590 638 639 605 q 452 672 541 672 q 327 656 391 672 q 195 610 262 641 l 216 725 q 354 765 287 751 q 485 778 422 778 q 689 720 619 778 q 760 550 760 661 q 756 497 760 528 q 746 433 753 467 m 611 382 l 486 382 q 259 341 333 382 q 186 214 186 300 q 223 120 186 154 q 328 86 261 86 q 505 159 429 86 q 606 354 581 232 l 611 382 m 465 1111 l 607 857 l 503 857 l 332 1111 l 465 1111 z "},"á":{"ha":851,"x_min":57,"x_max":793,"o":"m 746 433 l 661 0 l 536 0 l 559 115 q 434 14 505 47 q 278 -20 364 -20 q 119 40 181 -20 q 57 192 57 99 q 163 402 57 325 q 456 479 269 479 l 629 479 l 636 513 q 638 525 637 518 q 639 545 639 531 q 590 638 639 605 q 452 672 541 672 q 327 656 391 672 q 195 610 262 641 l 216 725 q 354 765 287 751 q 485 778 422 778 q 689 720 619 778 q 760 550 760 661 q 756 497 760 528 q 746 433 753 467 m 611 382 l 486 382 q 259 341 333 382 q 186 214 186 300 q 223 120 186 154 q 328 86 261 86 q 505 159 429 86 q 606 354 581 232 l 611 382 m 658 1111 l 793 1111 l 522 856 l 418 856 l 658 1111 z "},"â":{"ha":851,"x_min":57,"x_max":760,"o":"m 746 433 l 661 0 l 536 0 l 559 115 q 434 14 505 47 q 278 -20 364 -20 q 119 40 181 -20 q 57 192 57 99 q 163 402 57 325 q 456 479 269 479 l 629 479 l 636 513 q 638 525 637 518 q 639 545 639 531 q 590 638 639 605 q 452 672 541 672 q 327 656 391 672 q 195 610 262 641 l 216 725 q 354 765 287 751 q 485 778 422 778 q 689 720 619 778 q 760 550 760 661 q 756 497 760 528 q 746 433 753 467 m 611 382 l 486 382 q 259 341 333 382 q 186 214 186 300 q 223 120 186 154 q 328 86 261 86 q 505 159 429 86 q 606 354 581 232 l 611 382 m 513 1111 l 614 1111 l 730 856 l 636 856 l 550 1017 l 391 856 l 297 856 l 513 1111 z "},"ã":{"ha":851,"x_min":57,"x_max":781,"o":"m 746 433 l 661 0 l 536 0 l 559 115 q 434 14 505 47 q 278 -20 364 -20 q 119 40 181 -20 q 57 192 57 99 q 163 402 57 325 q 456 479 269 479 l 629 479 l 636 513 q 638 525 637 518 q 639 545 639 531 q 590 638 639 605 q 452 672 541 672 q 327 656 391 672 q 195 610 262 641 l 216 725 q 354 765 287 751 q 485 778 422 778 q 689 720 619 778 q 760 550 760 661 q 756 497 760 528 q 746 433 753 467 m 611 382 l 486 382 q 259 341 333 382 q 186 214 186 300 q 223 120 186 154 q 328 86 261 86 q 505 159 429 86 q 606 354 581 232 l 611 382 m 525 929 l 494 966 q 475 984 486 977 q 453 993 464 991 q 409 968 427 993 q 380 888 392 943 l 296 888 q 360 1030 316 981 q 465 1079 404 1079 q 512 1068 490 1079 q 551 1038 534 1058 l 583 1000 q 601 983 591 989 q 623 974 610 977 q 666 998 649 974 q 696 1079 682 1022 l 781 1079 q 717 937 761 986 q 611 888 673 888 q 563 898 585 888 q 525 929 541 909 z "},"ä":{"ha":851,"x_min":57,"x_max":760,"o":"m 746 433 l 661 0 l 536 0 l 559 115 q 434 14 505 47 q 278 -20 364 -20 q 119 40 181 -20 q 57 192 57 99 q 163 402 57 325 q 456 479 269 479 l 629 479 l 636 513 q 638 525 637 518 q 639 545 639 531 q 590 638 639 605 q 452 672 541 672 q 327 656 391 672 q 195 610 262 641 l 216 725 q 354 765 287 751 q 485 778 422 778 q 689 720 619 778 q 760 550 760 661 q 756 497 760 528 q 746 433 753 467 m 611 382 l 486 382 q 259 341 333 382 q 186 214 186 300 q 223 120 186 154 q 328 86 261 86 q 505 159 429 86 q 606 354 581 232 l 611 382 m 350 1053 l 489 1053 l 461 916 l 323 916 l 350 1053 m 615 1053 l 753 1053 l 726 916 l 589 916 l 615 1053 z "},"å":{"ha":851,"x_min":57,"x_max":760,"o":"m 746 433 l 661 0 l 536 0 l 559 115 q 434 14 505 47 q 278 -20 364 -20 q 119 40 181 -20 q 57 192 57 99 q 163 402 57 325 q 456 479 269 479 l 629 479 l 636 513 q 638 525 637 518 q 639 545 639 531 q 590 638 639 605 q 452 672 541 672 q 327 656 391 672 q 195 610 262 641 l 216 725 q 354 765 287 751 q 485 778 422 778 q 689 720 619 778 q 760 550 760 661 q 756 497 760 528 q 746 433 753 467 m 611 382 l 486 382 q 259 341 333 382 q 186 214 186 300 q 223 120 186 154 q 328 86 261 86 q 505 159 429 86 q 606 354 581 232 l 611 382 m 730 1034 q 676 901 730 956 q 544 847 623 847 q 412 901 466 847 q 358 1034 358 956 q 412 1166 358 1112 q 544 1219 466 1219 q 676 1166 623 1219 q 730 1034 730 1112 m 647 1034 q 617 1106 647 1077 q 544 1136 588 1136 q 470 1107 499 1136 q 441 1034 441 1078 q 470 960 441 989 q 544 930 499 930 q 618 960 589 930 q 647 1034 647 989 z "},"æ":{"ha":1382,"x_min":57,"x_max":1321,"o":"m 1196 448 q 1199 470 1198 458 q 1200 493 1200 481 q 1152 624 1200 576 q 1019 672 1103 672 q 855 613 926 672 q 747 447 784 555 l 1196 448 m 216 725 q 354 765 287 751 q 485 778 422 778 q 646 747 583 778 q 739 654 709 717 q 873 747 798 715 q 1039 778 949 778 q 1244 701 1168 778 q 1321 493 1321 623 q 1317 426 1321 462 q 1304 350 1312 391 l 724 350 q 718 309 720 324 q 717 283 717 294 q 775 138 717 189 q 939 86 833 86 q 1093 104 1020 86 q 1227 158 1166 123 l 1204 35 q 1065 -6 1137 7 q 920 -20 994 -20 q 729 19 806 -20 q 614 135 652 58 q 470 18 545 55 q 306 -20 395 -20 q 122 36 188 -20 q 57 192 57 92 q 163 402 57 325 q 456 479 269 479 l 629 479 l 636 513 q 638 525 637 518 q 639 545 639 531 q 590 638 639 605 q 452 672 541 672 q 327 656 391 672 q 195 610 262 641 l 216 725 m 611 382 l 486 382 q 259 341 333 382 q 186 214 186 300 q 223 120 186 154 q 328 86 261 86 q 505 159 429 86 q 606 354 581 232 l 611 382 z "},"ç":{"ha":764,"x_min":64,"x_max":745,"o":"m 745 730 l 720 607 q 624 656 675 640 q 519 672 574 672 q 406 651 460 672 q 315 591 352 630 q 225 453 257 532 q 193 289 193 374 q 244 136 193 186 q 400 86 296 86 q 510 102 452 86 q 631 149 568 117 l 607 25 q 495 -8 553 3 q 378 -20 438 -20 q 145 56 227 -20 q 64 272 64 132 q 106 489 64 390 q 232 668 149 589 q 366 750 289 722 q 533 778 442 778 q 638 766 586 778 q 745 730 690 754 m 404 0 q 440 -64 429 -35 q 452 -122 452 -94 q 402 -229 452 -190 q 265 -268 352 -268 q 207 -264 236 -268 q 149 -252 178 -260 l 164 -163 q 217 -179 191 -174 q 273 -184 244 -184 q 337 -164 313 -184 q 361 -107 361 -143 q 353 -63 361 -87 q 323 0 345 -39 l 404 0 z "},"è":{"ha":854,"x_min":64,"x_max":793,"o":"m 668 448 q 671 470 670 458 q 672 493 672 481 q 624 624 672 576 q 492 672 575 672 q 328 613 399 672 q 220 447 256 555 l 668 448 m 777 350 l 196 350 q 191 309 192 324 q 189 283 189 294 q 247 138 189 189 q 411 86 305 86 q 565 104 492 86 q 700 158 637 123 l 676 35 q 537 -6 609 7 q 392 -20 466 -20 q 149 56 234 -20 q 64 271 64 132 q 106 491 64 389 q 231 673 149 593 q 356 751 283 724 q 511 778 429 778 q 716 701 640 778 q 793 493 793 623 q 789 426 793 462 q 777 350 785 391 m 473 1111 l 614 857 l 510 857 l 339 1111 l 473 1111 z "},"é":{"ha":854,"x_min":64,"x_max":800,"o":"m 668 448 q 671 470 670 458 q 672 493 672 481 q 624 624 672 576 q 492 672 575 672 q 328 613 399 672 q 220 447 256 555 l 668 448 m 777 350 l 196 350 q 191 309 192 324 q 189 283 189 294 q 247 138 189 189 q 411 86 305 86 q 565 104 492 86 q 700 158 637 123 l 676 35 q 537 -6 609 7 q 392 -20 466 -20 q 149 56 234 -20 q 64 271 64 132 q 106 491 64 389 q 231 673 149 593 q 356 751 283 724 q 511 778 429 778 q 716 701 640 778 q 793 493 793 623 q 789 426 793 462 q 777 350 785 391 m 665 1111 l 800 1111 l 530 856 l 425 856 l 665 1111 z "},"ê":{"ha":854,"x_min":64,"x_max":793,"o":"m 668 448 q 671 470 670 458 q 672 493 672 481 q 624 624 672 576 q 492 672 575 672 q 328 613 399 672 q 220 447 256 555 l 668 448 m 777 350 l 196 350 q 191 309 192 324 q 189 283 189 294 q 247 138 189 189 q 411 86 305 86 q 565 104 492 86 q 700 158 637 123 l 676 35 q 537 -6 609 7 q 392 -20 466 -20 q 149 56 234 -20 q 64 271 64 132 q 106 491 64 389 q 231 673 149 593 q 356 751 283 724 q 511 778 429 778 q 716 701 640 778 q 793 493 793 623 q 789 426 793 462 q 777 350 785 391 m 521 1111 l 621 1111 l 738 856 l 644 856 l 557 1017 l 399 856 l 304 856 l 521 1111 z "},"ë":{"ha":854,"x_min":64,"x_max":793,"o":"m 668 448 q 671 470 670 458 q 672 493 672 481 q 624 624 672 576 q 492 672 575 672 q 328 613 399 672 q 220 447 256 555 l 668 448 m 777 350 l 196 350 q 191 309 192 324 q 189 283 189 294 q 247 138 189 189 q 411 86 305 86 q 565 104 492 86 q 700 158 637 123 l 676 35 q 537 -6 609 7 q 392 -20 466 -20 q 149 56 234 -20 q 64 271 64 132 q 106 491 64 389 q 231 673 149 593 q 356 751 283 724 q 511 778 429 778 q 716 701 640 778 q 793 493 793 623 q 789 426 793 462 q 777 350 785 391 m 357 1053 l 496 1053 l 469 916 l 331 916 l 357 1053 m 623 1053 l 760 1053 l 734 916 l 596 916 l 623 1053 z "},"ì":{"ha":386,"x_min":49,"x_max":364,"o":"m 197 760 l 322 760 l 174 0 l 49 0 l 197 760 m 222 1111 l 364 857 l 260 857 l 89 1111 l 222 1111 z "},"í":{"ha":386,"x_min":49,"x_max":550,"o":"m 197 760 l 322 760 l 174 0 l 49 0 l 197 760 m 415 1111 l 550 1111 l 279 856 l 175 856 l 415 1111 z "},"î":{"ha":386,"x_min":49,"x_max":488,"o":"m 197 760 l 322 760 l 174 0 l 49 0 l 197 760 m 271 1111 l 371 1111 l 488 856 l 393 856 l 307 1017 l 149 856 l 54 856 l 271 1111 z "},"ï":{"ha":386,"x_min":49,"x_max":510,"o":"m 197 760 l 322 760 l 174 0 l 49 0 l 197 760 m 107 1053 l 246 1053 l 218 916 l 81 916 l 107 1053 m 372 1053 l 510 1053 l 484 916 l 346 916 l 372 1053 z "},"ð":{"ha":850,"x_min":62,"x_max":815,"o":"m 689 774 q 759 630 735 705 q 782 475 782 555 q 755 297 782 382 q 677 143 728 211 q 537 22 621 64 q 357 -20 454 -20 q 142 60 222 -20 q 62 272 62 140 q 90 433 62 353 q 170 582 118 513 q 311 703 229 661 q 488 745 393 745 q 521 743 501 745 q 568 738 541 741 l 484 860 l 245 787 l 224 851 l 446 917 l 351 1055 l 498 1055 l 564 957 l 791 1031 l 815 966 l 603 900 l 689 774 m 619 621 q 561 637 590 632 q 501 643 531 643 q 278 541 364 643 q 192 277 192 439 q 236 135 192 183 q 367 86 281 86 q 573 196 490 86 q 656 471 656 305 q 647 553 656 517 q 619 621 638 590 z "},"ñ":{"ha":880,"x_min":49,"x_max":806,"o":"m 774 458 l 685 0 l 559 0 l 648 454 q 658 510 654 486 q 661 549 661 534 q 625 637 661 606 q 525 669 589 669 q 352 603 425 669 q 257 421 279 536 l 174 0 l 49 0 l 196 760 l 321 760 l 296 640 q 421 742 348 706 q 575 778 494 778 q 731 724 675 778 q 786 571 786 669 q 783 519 786 547 q 774 458 780 491 m 550 929 l 519 966 q 500 984 511 977 q 478 993 489 991 q 434 968 452 993 q 406 888 417 943 l 321 888 q 385 1030 341 981 q 490 1079 429 1079 q 537 1068 515 1079 q 576 1038 559 1058 l 608 1000 q 626 983 616 989 q 648 974 635 977 q 691 998 674 974 q 721 1079 707 1022 l 806 1079 q 742 937 786 986 q 636 888 699 888 q 588 898 610 888 q 550 929 566 909 z "},"ò":{"ha":850,"x_min":64,"x_max":786,"o":"m 353 -20 q 141 63 219 -20 q 64 288 64 145 q 91 456 64 370 q 160 600 117 542 q 310 734 227 691 q 497 778 393 778 q 706 697 627 778 q 786 486 786 616 q 760 307 786 396 q 690 158 733 217 q 541 24 624 67 q 353 -20 458 -20 m 193 292 q 236 137 193 189 q 367 86 279 86 q 575 196 492 86 q 657 473 657 305 q 613 622 657 572 q 484 672 569 672 q 358 639 413 672 q 260 539 303 606 q 211 425 228 489 q 193 292 193 360 m 475 1111 l 617 857 l 513 857 l 342 1111 l 475 1111 z "},"ó":{"ha":850,"x_min":64,"x_max":803,"o":"m 353 -20 q 141 63 219 -20 q 64 288 64 145 q 91 456 64 370 q 160 600 117 542 q 310 734 227 691 q 497 778 393 778 q 706 697 627 778 q 786 486 786 616 q 760 307 786 396 q 690 158 733 217 q 541 24 624 67 q 353 -20 458 -20 m 193 292 q 236 137 193 189 q 367 86 279 86 q 575 196 492 86 q 657 473 657 305 q 613 622 657 572 q 484 672 569 672 q 358 639 413 672 q 260 539 303 606 q 211 425 228 489 q 193 292 193 360 m 668 1111 l 803 1111 l 532 856 l 428 856 l 668 1111 z "},"ô":{"ha":850,"x_min":64,"x_max":786,"o":"m 353 -20 q 141 63 219 -20 q 64 288 64 145 q 91 456 64 370 q 160 600 117 542 q 310 734 227 691 q 497 778 393 778 q 706 697 627 778 q 786 486 786 616 q 760 307 786 396 q 690 158 733 217 q 541 24 624 67 q 353 -20 458 -20 m 193 292 q 236 137 193 189 q 367 86 279 86 q 575 196 492 86 q 657 473 657 305 q 613 622 657 572 q 484 672 569 672 q 358 639 413 672 q 260 539 303 606 q 211 425 228 489 q 193 292 193 360 m 524 1111 l 624 1111 l 741 856 l 646 856 l 560 1017 l 401 856 l 307 856 l 524 1111 z "},"õ":{"ha":850,"x_min":64,"x_max":791,"o":"m 353 -20 q 141 63 219 -20 q 64 288 64 145 q 91 456 64 370 q 160 600 117 542 q 310 734 227 691 q 497 778 393 778 q 706 697 627 778 q 786 486 786 616 q 760 307 786 396 q 690 158 733 217 q 541 24 624 67 q 353 -20 458 -20 m 193 292 q 236 137 193 189 q 367 86 279 86 q 575 196 492 86 q 657 473 657 305 q 613 622 657 572 q 484 672 569 672 q 358 639 413 672 q 260 539 303 606 q 211 425 228 489 q 193 292 193 360 m 535 929 l 505 966 q 485 984 496 977 q 463 993 474 991 q 419 968 437 993 q 391 888 402 943 l 306 888 q 370 1030 326 981 q 475 1079 414 1079 q 522 1068 500 1079 q 562 1038 544 1058 l 593 1000 q 611 983 602 989 q 633 974 621 977 q 676 998 659 974 q 706 1079 692 1022 l 791 1079 q 727 937 771 986 q 621 888 684 888 q 573 898 595 888 q 535 929 551 909 z "},"ö":{"ha":850,"x_min":64,"x_max":786,"o":"m 353 -20 q 141 63 219 -20 q 64 288 64 145 q 91 456 64 370 q 160 600 117 542 q 310 734 227 691 q 497 778 393 778 q 706 697 627 778 q 786 486 786 616 q 760 307 786 396 q 690 158 733 217 q 541 24 624 67 q 353 -20 458 -20 m 193 292 q 236 137 193 189 q 367 86 279 86 q 575 196 492 86 q 657 473 657 305 q 613 622 657 572 q 484 672 569 672 q 358 639 413 672 q 260 539 303 606 q 211 425 228 489 q 193 292 193 360 m 360 1053 l 499 1053 l 471 916 l 334 916 l 360 1053 m 625 1053 l 763 1053 l 736 916 l 599 916 l 625 1053 z "},"÷":{"ha":1164,"x_min":147,"x_max":1017,"o":"m 498 770 l 665 770 l 665 603 l 498 603 l 498 770 m 498 268 l 665 268 l 665 102 l 498 102 l 498 268 m 147 493 l 1017 493 l 1017 378 l 147 378 l 147 493 z "},"ø":{"ha":850,"x_min":-20,"x_max":864,"o":"m 611 625 q 554 661 586 649 q 484 672 523 672 q 276 563 357 672 q 195 285 195 454 q 196 239 195 253 q 200 214 197 225 l 611 625 m 104 117 q 74 193 84 150 q 64 286 64 235 q 91 455 64 369 q 160 600 117 542 q 309 734 227 691 q 497 778 391 778 q 606 760 556 778 q 696 708 656 743 l 806 819 l 864 761 l 747 644 q 776 565 766 607 q 786 476 786 522 q 759 304 786 392 q 690 158 732 216 q 542 24 625 67 q 353 -20 460 -20 q 244 -2 294 -20 q 155 52 194 16 l 39 -64 l -20 -7 l 104 117 m 652 549 l 239 135 q 296 98 265 110 q 367 86 327 86 q 576 197 495 86 q 657 486 657 308 q 656 526 657 513 q 652 549 654 538 z "},"ù":{"ha":880,"x_min":79,"x_max":818,"o":"m 93 301 l 182 760 l 307 760 l 218 306 q 209 249 212 273 q 205 210 205 225 q 241 120 205 152 q 340 89 276 89 q 514 157 441 89 q 610 339 587 224 l 693 760 l 818 760 l 671 0 l 546 0 l 571 119 q 445 17 518 53 q 290 -20 372 -20 q 135 35 191 -20 q 79 187 79 90 q 83 238 79 208 q 93 301 86 269 m 469 1111 l 611 857 l 507 857 l 336 1111 l 469 1111 z "},"ú":{"ha":880,"x_min":79,"x_max":818,"o":"m 93 301 l 182 760 l 307 760 l 218 306 q 209 249 212 273 q 205 210 205 225 q 241 120 205 152 q 340 89 276 89 q 514 157 441 89 q 610 339 587 224 l 693 760 l 818 760 l 671 0 l 546 0 l 571 119 q 445 17 518 53 q 290 -20 372 -20 q 135 35 191 -20 q 79 187 79 90 q 83 238 79 208 q 93 301 86 269 m 662 1111 l 797 1111 l 526 856 l 422 856 l 662 1111 z "},"û":{"ha":880,"x_min":79,"x_max":818,"o":"m 93 301 l 182 760 l 307 760 l 218 306 q 209 249 212 273 q 205 210 205 225 q 241 120 205 152 q 340 89 276 89 q 514 157 441 89 q 610 339 587 224 l 693 760 l 818 760 l 671 0 l 546 0 l 571 119 q 445 17 518 53 q 290 -20 372 -20 q 135 35 191 -20 q 79 187 79 90 q 83 238 79 208 q 93 301 86 269 m 517 1111 l 618 1111 l 734 856 l 640 856 l 554 1017 l 395 856 l 301 856 l 517 1111 z "},"ü":{"ha":880,"x_min":79,"x_max":818,"o":"m 93 301 l 182 760 l 307 760 l 218 306 q 209 249 212 273 q 205 210 205 225 q 241 120 205 152 q 340 89 276 89 q 514 157 441 89 q 610 339 587 224 l 693 760 l 818 760 l 671 0 l 546 0 l 571 119 q 445 17 518 53 q 290 -20 372 -20 q 135 35 191 -20 q 79 187 79 90 q 83 238 79 208 q 93 301 86 269 m 354 1053 l 493 1053 l 465 916 l 328 916 l 354 1053 m 619 1053 l 757 1053 l 730 916 l 593 916 l 619 1053 z "},"ý":{"ha":822,"x_min":-35,"x_max":838,"o":"m 345 -71 q 203 -253 258 -216 q 64 -289 149 -289 l -35 -289 l -14 -184 l 58 -184 q 147 -156 111 -184 q 229 -45 184 -127 l 268 28 l 100 760 l 232 760 l 358 178 l 707 760 l 838 760 l 345 -71 m 654 1111 l 789 1111 l 518 856 l 414 856 l 654 1111 z "},"þ":{"ha":882,"x_min":-4,"x_max":818,"o":"m 689 468 q 646 621 689 568 q 521 673 602 673 q 415 645 465 673 q 325 562 364 616 q 263 433 286 509 q 240 282 240 357 q 283 136 240 187 q 407 85 327 85 q 516 113 466 85 q 603 193 567 140 q 665 324 642 249 q 689 468 689 399 m 302 644 q 421 744 353 710 q 572 778 489 778 q 753 702 689 778 q 818 488 818 625 q 778 273 818 375 q 663 90 738 171 q 549 8 612 37 q 416 -20 486 -20 q 281 14 336 -20 q 199 114 226 47 l 121 -289 l -4 -289 l 254 1055 l 379 1055 l 302 644 z "},"ÿ":{"ha":822,"x_min":-35,"x_max":838,"o":"m 345 -71 q 203 -253 258 -216 q 64 -289 149 -289 l -35 -289 l -14 -184 l 58 -184 q 147 -156 111 -184 q 229 -45 184 -127 l 268 28 l 100 760 l 232 760 l 358 178 l 707 760 l 838 760 l 345 -71 m 346 1053 l 485 1053 l 457 916 l 319 916 l 346 1053 m 611 1053 l 749 1053 l 722 916 l 585 916 l 611 1053 z "},"Ā":{"ha":950,"x_min":-74,"x_max":854,"o":"m 511 1013 l 667 1013 l 854 0 l 711 0 l 669 260 l 214 260 l 71 0 l -74 0 l 511 1013 m 561 878 l 277 374 l 648 374 l 561 878 m 406 1249 l 811 1249 l 791 1148 l 386 1148 l 406 1249 z "},"ā":{"ha":851,"x_min":57,"x_max":760,"o":"m 746 433 l 661 0 l 536 0 l 559 115 q 434 14 505 47 q 278 -20 364 -20 q 119 40 181 -20 q 57 192 57 99 q 163 402 57 325 q 456 479 269 479 l 629 479 l 636 513 q 638 525 637 518 q 639 545 639 531 q 590 638 639 605 q 452 672 541 672 q 327 656 391 672 q 195 610 262 641 l 216 725 q 354 765 287 751 q 485 778 422 778 q 689 720 619 778 q 760 550 760 661 q 756 497 760 528 q 746 433 753 467 m 611 382 l 486 382 q 259 341 333 382 q 186 214 186 300 q 223 120 186 154 q 328 86 261 86 q 505 159 429 86 q 606 354 581 232 l 611 382 m 328 1035 l 734 1035 l 714 935 l 309 935 l 328 1035 z "},"Ă":{"ha":950,"x_min":-74,"x_max":867,"o":"m 442 1286 l 519 1286 l 519 1276 q 548 1207 519 1230 q 635 1185 576 1185 q 730 1210 692 1185 q 788 1286 767 1234 l 867 1286 q 781 1142 845 1192 q 617 1092 716 1092 q 486 1136 530 1092 q 441 1264 441 1179 q 441 1276 441 1268 q 442 1286 442 1283 m 511 1013 l 667 1013 l 854 0 l 711 0 l 669 260 l 214 260 l 71 0 l -74 0 l 511 1013 m 561 878 l 277 374 l 648 374 l 561 878 z "},"ă":{"ha":851,"x_min":57,"x_max":781,"o":"m 356 1057 l 433 1057 l 433 1046 q 462 978 433 1000 q 549 955 490 955 q 644 980 606 955 q 702 1057 681 1004 l 781 1057 q 694 912 759 962 q 531 862 630 862 q 399 906 444 862 q 355 1034 355 949 q 355 1046 355 1038 q 356 1057 356 1053 m 746 433 l 661 0 l 536 0 l 559 115 q 434 14 505 47 q 278 -20 364 -20 q 119 40 181 -20 q 57 192 57 99 q 163 402 57 325 q 456 479 269 479 l 629 479 l 636 513 q 638 525 637 518 q 639 545 639 531 q 590 638 639 605 q 452 672 541 672 q 327 656 391 672 q 195 610 262 641 l 216 725 q 354 765 287 751 q 485 778 422 778 q 689 720 619 778 q 760 550 760 661 q 756 497 760 528 q 746 433 753 467 m 611 382 l 486 382 q 259 341 333 382 q 186 214 186 300 q 223 120 186 154 q 328 86 261 86 q 505 159 429 86 q 606 354 581 232 l 611 382 z "},"Ą":{"ha":950,"x_min":-74,"x_max":859,"o":"m 711 0 l 792 0 q 727 -80 749 -45 q 706 -138 706 -114 q 721 -173 706 -161 q 767 -184 736 -184 q 810 -179 787 -184 q 859 -164 833 -174 l 842 -254 q 793 -266 817 -262 q 748 -269 769 -269 q 643 -243 678 -269 q 608 -167 608 -218 q 634 -90 608 -132 q 711 0 660 -48 m 511 1013 l 667 1013 l 854 0 l 711 0 l 669 260 l 214 260 l 71 0 l -74 0 l 511 1013 m 561 878 l 277 374 l 648 374 l 561 878 z "},"ą":{"ha":851,"x_min":57,"x_max":760,"o":"m 537 0 l 618 0 q 553 -80 574 -45 q 532 -138 532 -114 q 547 -173 532 -161 q 593 -184 562 -184 q 636 -179 612 -184 q 684 -164 659 -174 l 668 -254 q 619 -266 643 -262 q 574 -269 595 -269 q 469 -243 504 -269 q 433 -167 433 -218 q 459 -90 433 -132 q 537 0 486 -48 m 746 433 l 661 0 l 536 0 l 559 115 q 434 14 505 47 q 278 -20 364 -20 q 119 40 181 -20 q 57 192 57 99 q 163 402 57 325 q 456 479 269 479 l 629 479 l 636 513 q 638 525 637 518 q 639 545 639 531 q 590 638 639 605 q 452 672 541 672 q 327 656 391 672 q 195 610 262 641 l 216 725 q 354 765 287 751 q 485 778 422 778 q 689 720 619 778 q 760 550 760 661 q 756 497 760 528 q 746 433 753 467 m 611 382 l 486 382 q 259 341 333 382 q 186 214 186 300 q 223 120 186 154 q 328 86 261 86 q 505 159 429 86 q 606 354 581 232 l 611 382 z "},"Ć":{"ha":970,"x_min":58,"x_max":965,"o":"m 965 935 l 937 790 q 799 888 872 856 q 642 920 726 920 q 438 864 526 920 q 286 694 350 808 q 224 539 245 621 q 203 375 203 458 q 274 164 203 237 q 482 92 346 92 q 663 122 576 92 q 832 212 750 152 l 800 50 q 637 -2 720 16 q 472 -20 555 -20 q 168 86 277 -20 q 58 380 58 192 q 100 618 58 501 q 220 831 142 734 q 409 982 302 933 q 656 1031 515 1031 q 820 1007 743 1031 q 965 935 898 983 m 729 1288 l 869 1288 l 661 1109 l 554 1109 l 729 1288 z "},"ć":{"ha":764,"x_min":64,"x_max":806,"o":"m 745 730 l 720 607 q 624 656 675 640 q 519 672 574 672 q 406 651 460 672 q 315 591 352 630 q 225 453 257 532 q 193 289 193 374 q 244 136 193 186 q 400 86 296 86 q 510 102 452 86 q 631 149 568 117 l 607 25 q 495 -8 553 3 q 378 -20 438 -20 q 145 56 227 -20 q 64 272 64 132 q 106 489 64 390 q 232 668 149 589 q 366 750 289 722 q 533 778 442 778 q 638 766 586 778 q 745 730 690 754 m 671 1111 l 806 1111 l 535 856 l 431 856 l 671 1111 z "},"Ĉ":{"ha":970,"x_min":58,"x_max":965,"o":"m 634 1289 l 780 1289 l 887 1109 l 795 1109 l 701 1230 l 559 1109 l 456 1109 l 634 1289 m 965 935 l 937 790 q 799 888 872 856 q 642 920 726 920 q 438 864 526 920 q 286 694 350 808 q 224 539 245 621 q 203 375 203 458 q 274 164 203 237 q 482 92 346 92 q 663 122 576 92 q 832 212 750 152 l 800 50 q 637 -2 720 16 q 472 -20 555 -20 q 168 86 277 -20 q 58 380 58 192 q 100 618 58 501 q 220 831 142 734 q 409 982 302 933 q 656 1031 515 1031 q 820 1007 743 1031 q 965 935 898 983 z "},"ĉ":{"ha":764,"x_min":64,"x_max":766,"o":"m 549 1111 l 649 1111 l 766 856 l 671 856 l 585 1017 l 427 856 l 332 856 l 549 1111 m 745 730 l 720 607 q 624 656 675 640 q 519 672 574 672 q 406 651 460 672 q 315 591 352 630 q 225 453 257 532 q 193 289 193 374 q 244 136 193 186 q 400 86 296 86 q 510 102 452 86 q 631 149 568 117 l 607 25 q 495 -8 553 3 q 378 -20 438 -20 q 145 56 227 -20 q 64 272 64 132 q 106 489 64 390 q 232 668 149 589 q 366 750 289 722 q 533 778 442 778 q 638 766 586 778 q 745 730 690 754 z "},"Ċ":{"ha":970,"x_min":58,"x_max":965,"o":"m 630 1270 l 768 1270 l 741 1131 l 602 1131 l 630 1270 m 965 935 l 937 790 q 799 888 872 856 q 642 920 726 920 q 438 864 526 920 q 286 694 350 808 q 224 539 245 621 q 203 375 203 458 q 274 164 203 237 q 482 92 346 92 q 663 122 576 92 q 832 212 750 152 l 800 50 q 637 -2 720 16 q 472 -20 555 -20 q 168 86 277 -20 q 58 380 58 192 q 100 618 58 501 q 220 831 142 734 q 409 982 302 933 q 656 1031 515 1031 q 820 1007 743 1031 q 965 935 898 983 z "},"ċ":{"ha":764,"x_min":64,"x_max":745,"o":"m 513 1055 l 638 1055 l 608 897 l 483 897 l 513 1055 m 745 730 l 720 607 q 624 656 675 640 q 519 672 574 672 q 406 651 460 672 q 315 591 352 630 q 225 453 257 532 q 193 289 193 374 q 244 136 193 186 q 400 86 296 86 q 510 102 452 86 q 631 149 568 117 l 607 25 q 495 -8 553 3 q 378 -20 438 -20 q 145 56 227 -20 q 64 272 64 132 q 106 489 64 390 q 232 668 149 589 q 366 750 289 722 q 533 778 442 778 q 638 766 586 778 q 745 730 690 754 z "},"Č":{"ha":970,"x_min":58,"x_max":965,"o":"m 965 935 l 937 790 q 799 888 872 856 q 642 920 726 920 q 438 864 526 920 q 286 694 350 808 q 224 539 245 621 q 203 375 203 458 q 274 164 203 237 q 482 92 346 92 q 663 122 576 92 q 832 212 750 152 l 800 50 q 637 -2 720 16 q 472 -20 555 -20 q 168 86 277 -20 q 58 380 58 192 q 100 618 58 501 q 220 831 142 734 q 409 982 302 933 q 656 1031 515 1031 q 820 1007 743 1031 q 965 935 898 983 m 728 1109 l 583 1109 l 476 1289 l 567 1289 l 661 1168 l 803 1289 l 905 1289 l 728 1109 z "},"č":{"ha":764,"x_min":64,"x_max":792,"o":"m 745 730 l 720 607 q 624 656 675 640 q 519 672 574 672 q 406 651 460 672 q 315 591 352 630 q 225 453 257 532 q 193 289 193 374 q 244 136 193 186 q 400 86 296 86 q 510 102 452 86 q 631 149 568 117 l 607 25 q 495 -8 553 3 q 378 -20 438 -20 q 145 56 227 -20 q 64 272 64 132 q 106 489 64 390 q 232 668 149 589 q 366 750 289 722 q 533 778 442 778 q 638 766 586 778 q 745 730 690 754 m 575 856 l 475 856 l 359 1111 l 454 1111 l 541 950 l 697 1111 l 792 1111 l 575 856 z "},"Ď":{"ha":1069,"x_min":37,"x_max":1003,"o":"m 235 1013 l 529 1013 q 883 913 764 1013 q 1003 618 1003 814 q 958 369 1003 488 q 832 167 912 249 q 627 41 751 83 q 334 0 503 0 l 37 0 l 235 1013 m 350 900 l 197 113 l 376 113 q 732 245 606 113 q 859 618 859 377 q 777 832 859 764 q 522 900 696 900 l 350 900 m 675 1109 l 530 1109 l 423 1289 l 514 1289 l 608 1168 l 750 1289 l 852 1289 l 675 1109 z "},"ď":{"ha":882,"x_min":64,"x_max":1138,"o":"m 581 114 q 462 14 530 48 q 310 -20 393 -20 q 130 58 196 -20 q 64 271 64 136 q 104 485 64 383 q 220 668 144 587 q 333 750 270 722 q 465 778 396 778 q 594 743 538 778 q 681 642 650 707 l 762 1055 l 888 1055 l 682 0 l 557 0 l 581 114 m 193 293 q 238 140 193 195 q 361 85 282 85 q 469 113 419 85 q 557 196 519 141 q 620 328 597 253 q 643 475 643 402 q 598 622 643 569 q 476 675 554 675 q 366 647 417 675 q 279 567 315 619 q 217 436 240 511 q 193 293 193 361 m 1003 1054 l 1138 1054 l 1020 799 l 916 799 l 1003 1054 z "},"Đ":{"ha":1076,"x_min":0,"x_max":1010,"o":"m 241 1013 l 536 1013 q 890 913 770 1013 q 1010 618 1010 814 q 964 369 1010 489 q 838 167 918 250 q 633 41 757 83 q 340 0 510 0 l 45 0 l 136 475 l 0 475 l 20 572 l 155 572 l 241 1013 m 357 900 l 293 572 l 521 572 l 501 475 l 273 475 l 204 113 l 383 113 q 740 245 614 113 q 865 618 865 377 q 784 832 865 764 q 529 900 703 900 l 357 900 z "},"đ":{"ha":882,"x_min":64,"x_max":974,"o":"m 581 114 q 462 14 530 48 q 310 -20 393 -20 q 130 58 196 -20 q 64 271 64 136 q 104 485 64 383 q 220 668 144 587 q 333 750 270 722 q 465 778 396 778 q 594 743 538 778 q 681 642 650 707 l 726 871 l 505 871 l 524 954 l 745 954 l 762 1055 l 888 1055 l 869 954 l 974 954 l 956 871 l 851 871 l 682 0 l 557 0 l 581 114 m 193 293 q 238 140 193 195 q 361 85 282 85 q 469 113 419 85 q 557 196 519 141 q 620 328 597 253 q 643 475 643 402 q 598 622 643 569 q 476 675 554 675 q 366 647 417 675 q 279 567 315 619 q 217 436 240 511 q 193 293 193 361 z "},"Ē":{"ha":878,"x_min":37,"x_max":875,"o":"m 235 1013 l 875 1013 l 852 897 l 349 897 l 290 597 l 774 597 l 751 482 l 268 482 l 197 115 l 713 115 l 690 0 l 37 0 l 235 1013 m 387 1250 l 793 1250 l 773 1149 l 368 1149 l 387 1250 z "},"ē":{"ha":854,"x_min":64,"x_max":793,"o":"m 668 448 q 671 470 670 458 q 672 493 672 481 q 624 624 672 576 q 492 672 575 672 q 328 613 399 672 q 220 447 256 555 l 668 448 m 777 350 l 196 350 q 191 309 192 324 q 189 283 189 294 q 247 138 189 189 q 411 86 305 86 q 565 104 492 86 q 700 158 637 123 l 676 35 q 537 -6 609 7 q 392 -20 466 -20 q 149 56 234 -20 q 64 271 64 132 q 106 491 64 389 q 231 673 149 593 q 356 751 283 724 q 511 778 429 778 q 716 701 640 778 q 793 493 793 623 q 789 426 793 462 q 777 350 785 391 m 380 1035 l 785 1035 l 766 935 l 360 935 l 380 1035 z "},"Ĕ":{"ha":878,"x_min":37,"x_max":875,"o":"m 372 1289 l 453 1289 q 488 1230 461 1248 q 566 1211 514 1211 q 661 1230 624 1211 q 717 1289 697 1249 l 798 1289 q 712 1169 774 1213 q 563 1125 650 1125 q 433 1166 481 1125 q 372 1289 386 1207 m 235 1013 l 875 1013 l 852 897 l 349 897 l 290 597 l 774 597 l 751 482 l 268 482 l 197 115 l 713 115 l 690 0 l 37 0 l 235 1013 z "},"ĕ":{"ha":854,"x_min":64,"x_max":793,"o":"m 355 1090 l 432 1090 l 432 1080 q 460 1011 432 1034 q 547 989 489 989 q 642 1014 605 989 q 701 1090 680 1038 l 779 1090 q 693 946 758 996 q 530 896 629 896 q 398 940 443 896 q 353 1068 353 983 q 354 1080 353 1072 q 355 1090 355 1087 m 668 448 q 671 470 670 458 q 672 493 672 481 q 624 624 672 576 q 492 672 575 672 q 328 613 399 672 q 220 447 256 555 l 668 448 m 777 350 l 196 350 q 191 309 192 324 q 189 283 189 294 q 247 138 189 189 q 411 86 305 86 q 565 104 492 86 q 700 158 637 123 l 676 35 q 537 -6 609 7 q 392 -20 466 -20 q 149 56 234 -20 q 64 271 64 132 q 106 491 64 389 q 231 673 149 593 q 356 751 283 724 q 511 778 429 778 q 716 701 640 778 q 793 493 793 623 q 789 426 793 462 q 777 350 785 391 z "},"Ė":{"ha":878,"x_min":37,"x_max":875,"o":"m 517 1270 l 654 1270 l 628 1131 l 489 1131 l 517 1270 m 235 1013 l 875 1013 l 852 897 l 349 897 l 290 597 l 774 597 l 751 482 l 268 482 l 197 115 l 713 115 l 690 0 l 37 0 l 235 1013 z "},"ė":{"ha":854,"x_min":64,"x_max":793,"o":"m 486 1055 l 610 1055 l 580 897 l 455 897 l 486 1055 m 668 448 q 671 470 670 458 q 672 493 672 481 q 624 624 672 576 q 492 672 575 672 q 328 613 399 672 q 220 447 256 555 l 668 448 m 777 350 l 196 350 q 191 309 192 324 q 189 283 189 294 q 247 138 189 189 q 411 86 305 86 q 565 104 492 86 q 700 158 637 123 l 676 35 q 537 -6 609 7 q 392 -20 466 -20 q 149 56 234 -20 q 64 271 64 132 q 106 491 64 389 q 231 673 149 593 q 356 751 283 724 q 511 778 429 778 q 716 701 640 778 q 793 493 793 623 q 789 426 793 462 q 777 350 785 391 z "},"Ę":{"ha":878,"x_min":37,"x_max":875,"o":"m 545 0 l 626 0 q 561 -80 583 -45 q 540 -138 540 -114 q 555 -173 540 -161 q 601 -184 570 -184 q 644 -179 621 -184 q 692 -164 667 -174 l 676 -254 q 627 -266 651 -262 q 582 -269 603 -269 q 477 -243 512 -269 q 441 -167 441 -218 q 468 -90 441 -132 q 545 0 494 -48 m 235 1013 l 875 1013 l 852 897 l 349 897 l 290 597 l 774 597 l 751 482 l 268 482 l 197 115 l 713 115 l 690 0 l 37 0 l 235 1013 z "},"ę":{"ha":854,"x_min":64,"x_max":793,"o":"m 482 0 l 563 0 q 498 -80 519 -45 q 477 -138 477 -114 q 492 -173 477 -161 q 538 -184 507 -184 q 581 -179 557 -184 q 629 -164 604 -174 l 613 -254 q 564 -266 588 -262 q 519 -269 540 -269 q 414 -243 449 -269 q 378 -167 378 -218 q 405 -90 378 -132 q 482 0 431 -48 m 668 448 q 671 470 670 458 q 672 493 672 481 q 624 624 672 576 q 492 672 575 672 q 328 613 399 672 q 220 447 256 555 l 668 448 m 777 350 l 196 350 q 191 309 192 324 q 189 283 189 294 q 247 138 189 189 q 411 86 305 86 q 565 104 492 86 q 700 158 637 123 l 676 35 q 537 -6 609 7 q 392 -20 466 -20 q 149 56 234 -20 q 64 271 64 132 q 106 491 64 389 q 231 673 149 593 q 356 751 283 724 q 511 778 429 778 q 716 701 640 778 q 793 493 793 623 q 789 426 793 462 q 777 350 785 391 z "},"Ě":{"ha":878,"x_min":37,"x_max":875,"o":"m 235 1013 l 875 1013 l 852 897 l 349 897 l 290 597 l 774 597 l 751 482 l 268 482 l 197 115 l 713 115 l 690 0 l 37 0 l 235 1013 m 650 1109 l 506 1109 l 399 1289 l 490 1289 l 584 1168 l 726 1289 l 828 1289 l 650 1109 z "},"ě":{"ha":854,"x_min":64,"x_max":793,"o":"m 668 448 q 671 470 670 458 q 672 493 672 481 q 624 624 672 576 q 492 672 575 672 q 328 613 399 672 q 220 447 256 555 l 668 448 m 777 350 l 196 350 q 191 309 192 324 q 189 283 189 294 q 247 138 189 189 q 411 86 305 86 q 565 104 492 86 q 700 158 637 123 l 676 35 q 537 -6 609 7 q 392 -20 466 -20 q 149 56 234 -20 q 64 271 64 132 q 106 491 64 389 q 231 673 149 593 q 356 751 283 724 q 511 778 429 778 q 716 701 640 778 q 793 493 793 623 q 789 426 793 462 q 777 350 785 391 m 575 856 l 475 856 l 359 1111 l 454 1111 l 541 950 l 697 1111 l 792 1111 l 575 856 z "},"Ĝ":{"ha":1076,"x_min":62,"x_max":1007,"o":"m 637 1289 l 783 1289 l 890 1109 l 798 1109 l 703 1230 l 562 1109 l 459 1109 l 637 1289 m 758 151 l 811 416 l 586 416 l 607 529 l 966 529 l 879 83 q 682 7 789 34 q 468 -20 576 -20 q 170 86 277 -20 q 62 380 62 192 q 128 679 62 537 q 309 914 193 820 q 467 1002 381 973 q 659 1031 553 1031 q 841 1007 753 1031 q 1007 935 928 983 l 979 789 q 836 886 918 852 q 661 920 754 920 q 471 879 553 920 q 325 751 389 838 q 238 579 270 678 q 207 376 207 479 q 279 163 207 235 q 496 92 352 92 q 635 107 568 92 q 758 151 702 122 z "},"ĝ":{"ha":882,"x_min":45,"x_max":828,"o":"m 540 1111 l 640 1111 l 757 856 l 663 856 l 576 1017 l 418 856 l 323 856 l 540 1111 m 828 760 l 699 94 q 556 -194 661 -99 q 272 -289 450 -289 q 150 -279 206 -289 q 45 -249 94 -269 l 68 -127 q 165 -172 114 -157 q 275 -186 217 -186 q 470 -121 394 -186 q 571 65 547 -56 l 582 122 q 460 31 530 62 q 311 0 391 0 q 130 76 196 0 q 64 286 64 153 q 104 492 64 391 q 216 671 144 593 q 329 750 264 722 q 463 778 393 778 q 596 742 539 778 q 681 642 653 707 l 703 760 l 828 760 m 640 481 q 597 623 640 573 q 473 673 553 673 q 379 654 424 673 q 302 599 334 634 q 222 461 251 541 q 193 298 193 382 q 237 155 193 205 q 363 104 281 104 q 561 212 481 104 q 640 481 640 319 z "},"Ğ":{"ha":1076,"x_min":62,"x_max":1007,"o":"m 758 151 l 811 416 l 586 416 l 607 529 l 966 529 l 879 83 q 682 7 789 34 q 468 -20 576 -20 q 170 86 277 -20 q 62 380 62 192 q 128 679 62 537 q 309 914 193 820 q 467 1002 381 973 q 659 1031 553 1031 q 841 1007 753 1031 q 1007 935 928 983 l 979 789 q 836 886 918 852 q 661 920 754 920 q 471 879 553 920 q 325 751 389 838 q 238 579 270 678 q 207 376 207 479 q 279 163 207 235 q 496 92 352 92 q 635 107 568 92 q 758 151 702 122 m 464 1289 l 545 1289 q 579 1230 553 1248 q 657 1211 606 1211 q 752 1230 715 1211 q 808 1289 789 1249 l 889 1289 q 804 1169 866 1213 q 654 1125 741 1125 q 525 1166 572 1125 q 464 1289 477 1207 z "},"ğ":{"ha":882,"x_min":45,"x_max":828,"o":"m 828 760 l 699 94 q 556 -194 661 -99 q 272 -289 450 -289 q 150 -279 206 -289 q 45 -249 94 -269 l 68 -127 q 165 -172 114 -157 q 275 -186 217 -186 q 470 -121 394 -186 q 571 65 547 -56 l 582 122 q 460 31 530 62 q 311 0 391 0 q 130 76 196 0 q 64 286 64 153 q 104 492 64 391 q 216 671 144 593 q 329 750 264 722 q 463 778 393 778 q 596 742 539 778 q 681 642 653 707 l 703 760 l 828 760 m 640 481 q 597 623 640 573 q 473 673 553 673 q 379 654 424 673 q 302 599 334 634 q 222 461 251 541 q 193 298 193 382 q 237 155 193 205 q 363 104 281 104 q 561 212 481 104 q 640 481 640 319 m 374 1090 l 451 1090 l 451 1080 q 479 1011 451 1034 q 566 989 508 989 q 661 1014 624 989 q 720 1090 699 1038 l 798 1090 q 712 946 777 996 q 549 896 648 896 q 417 940 462 896 q 372 1068 372 983 q 373 1080 372 1072 q 374 1090 374 1087 z "},"Ġ":{"ha":1076,"x_min":62,"x_max":1007,"o":"m 633 1270 l 770 1270 l 744 1131 l 605 1131 l 633 1270 m 758 151 l 811 416 l 586 416 l 607 529 l 966 529 l 879 83 q 682 7 789 34 q 468 -20 576 -20 q 170 86 277 -20 q 62 380 62 192 q 128 679 62 537 q 309 914 193 820 q 467 1002 381 973 q 659 1031 553 1031 q 841 1007 753 1031 q 1007 935 928 983 l 979 789 q 836 886 918 852 q 661 920 754 920 q 471 879 553 920 q 325 751 389 838 q 238 579 270 678 q 207 376 207 479 q 279 163 207 235 q 496 92 352 92 q 635 107 568 92 q 758 151 702 122 z "},"ġ":{"ha":882,"x_min":45,"x_max":828,"o":"m 505 1055 l 629 1055 l 599 897 l 474 897 l 505 1055 m 828 760 l 699 94 q 556 -194 661 -99 q 272 -289 450 -289 q 150 -279 206 -289 q 45 -249 94 -269 l 68 -127 q 165 -172 114 -157 q 275 -186 217 -186 q 470 -121 394 -186 q 571 65 547 -56 l 582 122 q 460 31 530 62 q 311 0 391 0 q 130 76 196 0 q 64 286 64 153 q 104 492 64 391 q 216 671 144 593 q 329 750 264 722 q 463 778 393 778 q 596 742 539 778 q 681 642 653 707 l 703 760 l 828 760 m 640 481 q 597 623 640 573 q 473 673 553 673 q 379 654 424 673 q 302 599 334 634 q 222 461 251 541 q 193 298 193 382 q 237 155 193 205 q 363 104 281 104 q 561 212 481 104 q 640 481 640 319 z "},"Ģ":{"ha":1076,"x_min":62,"x_max":1007,"o":"m 481 -130 l 625 -130 l 471 -347 l 384 -347 l 481 -130 m 758 151 l 811 416 l 586 416 l 607 529 l 966 529 l 879 83 q 682 7 789 34 q 468 -20 576 -20 q 170 86 277 -20 q 62 380 62 192 q 128 679 62 537 q 309 914 193 820 q 467 1002 381 973 q 659 1031 553 1031 q 841 1007 753 1031 q 1007 935 928 983 l 979 789 q 836 886 918 852 q 661 920 754 920 q 471 879 553 920 q 325 751 389 838 q 238 579 270 678 q 207 376 207 479 q 279 163 207 235 q 496 92 352 92 q 635 107 568 92 q 758 151 702 122 z "},"ģ":{"ha":882,"x_min":45,"x_max":828,"o":"m 589 861 l 446 861 l 598 1077 l 686 1077 l 589 861 m 828 760 l 699 94 q 556 -194 661 -99 q 272 -289 450 -289 q 150 -279 206 -289 q 45 -249 94 -269 l 68 -127 q 165 -172 114 -157 q 275 -186 217 -186 q 470 -121 394 -186 q 571 65 547 -56 l 582 122 q 460 31 530 62 q 311 0 391 0 q 130 76 196 0 q 64 286 64 153 q 104 492 64 391 q 216 671 144 593 q 329 750 264 722 q 463 778 393 778 q 596 742 539 778 q 681 642 653 707 l 703 760 l 828 760 m 640 481 q 597 623 640 573 q 473 673 553 673 q 379 654 424 673 q 302 599 334 634 q 222 461 251 541 q 193 298 193 382 q 237 155 193 205 q 363 104 281 104 q 561 212 481 104 q 640 481 640 319 z "},"Ĥ":{"ha":1044,"x_min":37,"x_max":1007,"o":"m 603 1289 l 749 1289 l 856 1109 l 764 1109 l 669 1230 l 528 1109 l 425 1109 l 603 1289 m 235 1013 l 372 1013 l 292 597 l 789 597 l 869 1013 l 1007 1013 l 810 0 l 672 0 l 766 482 l 269 482 l 175 0 l 37 0 l 235 1013 z "},"ĥ":{"ha":880,"x_min":49,"x_max":786,"o":"m 278 1289 l 424 1289 l 531 1109 l 439 1109 l 345 1230 l 203 1109 l 100 1109 l 278 1289 m 774 458 l 685 0 l 559 0 l 648 454 q 658 510 654 486 q 661 549 661 534 q 625 637 661 606 q 525 669 589 669 q 351 602 425 669 q 256 421 277 534 l 174 0 l 49 0 l 254 1055 l 379 1055 l 298 640 q 420 741 346 704 q 575 778 494 778 q 731 724 675 778 q 786 571 786 669 q 783 519 786 547 q 774 458 780 491 z "},"Ħ":{"ha":1272,"x_min":152,"x_max":1205,"o":"m 349 1013 l 486 1013 l 456 861 l 954 861 l 983 1013 l 1120 1013 l 1091 861 l 1205 861 l 1183 749 l 1069 749 l 924 0 l 787 0 l 880 482 l 382 482 l 289 0 l 152 0 l 298 749 l 184 749 l 205 861 l 319 861 l 349 1013 m 435 749 l 405 597 l 903 597 l 932 749 l 435 749 z "},"ħ":{"ha":965,"x_min":64,"x_max":800,"o":"m 789 458 l 700 0 l 575 0 l 663 454 q 671 532 671 497 q 652 616 671 583 q 537 669 621 669 q 365 605 436 669 q 273 429 294 541 l 189 0 l 64 0 l 231 861 l 146 861 l 168 972 l 253 972 l 269 1055 l 394 1055 l 378 972 l 617 972 l 595 861 l 357 861 l 314 642 q 439 744 372 710 q 586 778 506 778 q 768 697 716 778 q 800 566 800 646 q 789 458 800 517 z "},"Ĩ":{"ha":410,"x_min":37,"x_max":576,"o":"m 328 1160 l 304 1177 l 303 1177 q 248 1199 274 1199 q 207 1182 225 1199 q 176 1131 189 1164 l 92 1131 q 157 1242 115 1204 q 256 1279 199 1279 q 301 1272 280 1279 q 346 1247 321 1264 l 368 1230 q 393 1216 380 1220 q 419 1211 406 1211 q 465 1230 446 1211 q 492 1279 484 1248 l 576 1279 q 512 1168 554 1205 q 407 1131 469 1131 q 367 1138 386 1131 q 328 1160 349 1145 m 235 1013 l 372 1013 l 175 0 l 37 0 l 235 1013 z "},"ĩ":{"ha":386,"x_min":49,"x_max":538,"o":"m 282 929 l 252 966 q 232 984 243 977 q 210 993 221 991 q 166 968 184 993 q 138 888 149 943 l 53 888 q 117 1030 73 981 q 222 1079 161 1079 q 269 1068 248 1079 q 309 1038 291 1058 l 340 1000 q 358 983 349 989 q 380 974 368 977 q 423 998 406 974 q 453 1079 439 1022 l 538 1079 q 474 937 518 986 q 368 888 431 888 q 320 898 342 888 q 282 929 298 909 m 197 760 l 322 760 l 174 0 l 49 0 l 197 760 z "},"Ī":{"ha":410,"x_min":37,"x_max":541,"o":"m 235 1013 l 372 1013 l 175 0 l 37 0 l 235 1013 m 136 1249 l 541 1249 l 522 1148 l 116 1148 l 136 1249 z "},"ī":{"ha":386,"x_min":49,"x_max":530,"o":"m 197 760 l 322 760 l 174 0 l 49 0 l 197 760 m 124 1034 l 530 1034 l 510 934 l 104 934 l 124 1034 z "},"Ĭ":{"ha":410,"x_min":37,"x_max":555,"o":"m 130 1289 l 211 1289 q 245 1230 219 1248 q 323 1211 272 1211 q 418 1230 382 1211 q 475 1289 455 1249 l 555 1289 q 470 1169 532 1213 q 321 1125 408 1125 q 191 1166 239 1125 q 130 1289 144 1207 m 235 1013 l 372 1013 l 175 0 l 37 0 l 235 1013 z "},"ĭ":{"ha":386,"x_min":49,"x_max":529,"o":"m 104 1090 l 182 1090 l 182 1080 q 210 1011 182 1034 q 297 989 239 989 q 392 1014 355 989 q 450 1090 429 1038 l 529 1090 q 443 946 507 996 q 279 896 378 896 q 148 940 193 896 q 103 1068 103 983 q 104 1080 103 1072 q 104 1090 104 1087 m 197 760 l 322 760 l 174 0 l 49 0 l 197 760 z "},"Į":{"ha":410,"x_min":-9,"x_max":372,"o":"m 94 0 l 175 0 q 110 -80 132 -45 q 89 -138 89 -114 q 104 -173 89 -161 q 150 -184 119 -184 q 193 -179 170 -184 q 241 -164 216 -174 l 225 -254 q 176 -266 200 -262 q 131 -269 152 -269 q 26 -243 61 -269 q -9 -167 -9 -218 q 17 -90 -9 -132 q 94 0 43 -48 m 235 1013 l 372 1013 l 175 0 l 37 0 l 235 1013 z "},"į":{"ha":386,"x_min":-11,"x_max":379,"o":"m 93 0 l 174 0 q 109 -80 130 -45 q 87 -138 87 -114 q 103 -173 87 -161 q 149 -184 118 -184 q 192 -179 168 -184 q 240 -164 215 -174 l 224 -254 q 175 -266 199 -262 q 130 -269 151 -269 q 24 -243 60 -269 q -11 -167 -11 -218 q 15 -90 -11 -132 q 93 0 41 -48 m 254 1055 l 379 1055 l 349 897 l 224 897 l 254 1055 m 197 760 l 322 760 l 174 0 l 49 0 l 197 760 z "},"İ":{"ha":410,"x_min":37,"x_max":422,"o":"m 235 1013 l 372 1013 l 175 0 l 37 0 l 235 1013 m 285 1270 l 422 1270 l 396 1131 l 257 1131 l 285 1270 z "},"ı":{"ha":386,"x_min":49,"x_max":322,"o":"m 197 760 l 322 760 l 174 0 l 49 0 l 197 760 z "},"Ĳ":{"ha":819,"x_min":37,"x_max":779,"o":"m 235 1013 l 372 1013 l 175 0 l 37 0 l 235 1013 m 642 1013 l 779 1013 l 595 71 q 474 -196 559 -113 q 236 -278 389 -278 l 182 -278 l 204 -163 l 247 -163 q 386 -111 338 -163 q 458 71 433 -58 l 642 1013 z "},"ĳ":{"ha":772,"x_min":49,"x_max":770,"o":"m 254 1055 l 379 1055 l 349 897 l 224 897 l 254 1055 m 197 760 l 322 760 l 174 0 l 49 0 l 197 760 m 587 760 l 711 760 l 562 -14 l 561 -17 q 503 -195 536 -146 q 414 -264 473 -240 q 275 -289 355 -289 l 229 -289 l 249 -183 l 281 -183 q 385 -153 354 -183 q 437 -14 416 -122 l 587 760 m 645 1055 l 770 1055 l 739 897 l 614 897 l 645 1055 z "},"Ĵ":{"ha":410,"x_min":-228,"x_max":536,"o":"m 283 1289 l 429 1289 l 536 1109 l 444 1109 l 349 1230 l 208 1109 l 105 1109 l 283 1289 m 232 1013 l 370 1013 l 186 71 q 65 -196 150 -113 q -174 -278 -20 -278 l -228 -278 l -205 -163 l -163 -163 q -24 -111 -71 -163 q 49 71 24 -58 l 232 1013 z "},"ĵ":{"ha":386,"x_min":-157,"x_max":500,"o":"m 283 1111 l 384 1111 l 500 856 l 406 856 l 320 1017 l 161 856 l 67 856 l 283 1111 m 201 760 l 326 760 l 176 -14 l 176 -17 q 118 -195 151 -146 q 29 -264 87 -240 q -110 -289 -30 -289 l -157 -289 l -136 -183 l -104 -183 q 0 -153 -31 -183 q 52 -14 31 -122 l 201 760 z "},"Ķ":{"ha":911,"x_min":37,"x_max":1003,"o":"m 453 -110 l 596 -110 l 443 -327 l 355 -327 l 453 -110 m 235 1013 l 372 1013 l 289 586 l 821 1013 l 1003 1013 l 401 529 l 842 0 l 675 0 l 271 493 l 175 0 l 37 0 l 235 1013 z "},"ķ":{"ha":804,"x_min":49,"x_max":850,"o":"m 399 -110 l 542 -110 l 389 -327 l 301 -327 l 399 -110 m 254 1055 l 379 1055 l 260 440 l 688 760 l 850 760 l 372 396 l 721 0 l 570 0 l 245 371 l 174 0 l 49 0 l 254 1055 z "},"ĸ":{"ha":804,"x_min":52,"x_max":857,"o":"m 200 760 l 326 760 l 262 431 l 698 760 l 857 760 l 385 403 l 726 0 l 564 0 l 250 370 l 178 0 l 52 0 l 200 760 z "},"Ĺ":{"ha":774,"x_min":37,"x_max":690,"o":"m 446 1289 l 587 1289 l 378 1109 l 271 1109 l 446 1289 m 233 1013 l 371 1013 l 197 114 l 690 114 l 668 0 l 37 0 l 233 1013 z "},"ĺ":{"ha":386,"x_min":49,"x_max":587,"o":"m 446 1289 l 587 1289 l 378 1109 l 271 1109 l 446 1289 m 254 1055 l 379 1055 l 174 0 l 49 0 l 254 1055 z "},"Ļ":{"ha":774,"x_min":37,"x_max":690,"o":"m 366 -110 l 509 -110 l 356 -327 l 269 -327 l 366 -110 m 233 1013 l 371 1013 l 197 114 l 690 114 l 668 0 l 37 0 l 233 1013 z "},"ļ":{"ha":386,"x_min":27,"x_max":379,"o":"m 125 -110 l 268 -110 l 115 -327 l 27 -327 l 125 -110 m 254 1055 l 379 1055 l 174 0 l 49 0 l 254 1055 z "},"Ľ":{"ha":774,"x_min":37,"x_max":690,"o":"m 520 1012 l 655 1012 l 537 757 l 433 757 l 520 1012 m 233 1013 l 371 1013 l 197 114 l 690 114 l 668 0 l 37 0 l 233 1013 z "},"ľ":{"ha":386,"x_min":49,"x_max":658,"o":"m 523 1055 l 658 1055 l 540 800 l 435 800 l 523 1055 m 254 1055 l 379 1055 l 174 0 l 49 0 l 254 1055 z "},"Ŀ":{"ha":774,"x_min":37,"x_max":690,"o":"m 473 593 l 616 593 l 583 421 l 439 421 l 473 593 m 233 1013 l 371 1013 l 197 114 l 690 114 l 668 0 l 37 0 l 233 1013 z "},"ŀ":{"ha":386,"x_min":49,"x_max":615,"o":"m 472 548 l 615 548 l 581 376 l 438 376 l 472 548 m 254 1055 l 379 1055 l 174 0 l 49 0 l 254 1055 z "},"Ł":{"ha":781,"x_min":-28,"x_max":697,"o":"m 240 1013 l 378 1013 l 293 583 l 532 689 l 570 604 l 272 473 l 204 114 l 697 114 l 675 0 l 45 0 l 122 407 l 11 355 l -28 439 l 143 515 l 240 1013 z "},"ł":{"ha":399,"x_min":24,"x_max":441,"o":"m 264 1055 l 389 1055 l 310 644 l 406 688 l 441 607 l 290 538 l 183 0 l 58 0 l 151 475 l 60 433 l 24 514 l 172 581 l 264 1055 z "},"Ń":{"ha":1039,"x_min":37,"x_max":1002,"o":"m 704 1289 l 844 1289 l 636 1109 l 529 1109 l 704 1289 m 235 1013 l 419 1013 l 699 144 l 868 1013 l 1002 1013 l 804 0 l 619 0 l 340 873 l 171 0 l 37 0 l 235 1013 z "},"ń":{"ha":880,"x_min":49,"x_max":786,"o":"m 627 1116 l 762 1116 l 491 861 l 387 861 l 627 1116 m 774 458 l 685 0 l 559 0 l 648 454 q 658 510 654 486 q 661 549 661 534 q 625 637 661 606 q 525 669 589 669 q 352 603 425 669 q 257 421 279 536 l 174 0 l 49 0 l 196 760 l 321 760 l 296 640 q 421 742 348 706 q 575 778 494 778 q 731 724 675 778 q 786 571 786 669 q 783 519 786 547 q 774 458 780 491 z "},"Ņ":{"ha":1039,"x_min":37,"x_max":1002,"o":"m 435 -110 l 578 -110 l 425 -327 l 337 -327 l 435 -110 m 235 1013 l 419 1013 l 699 144 l 868 1013 l 1002 1013 l 804 0 l 619 0 l 340 873 l 171 0 l 37 0 l 235 1013 z "},"ņ":{"ha":880,"x_min":49,"x_max":786,"o":"m 380 -110 l 524 -110 l 370 -327 l 283 -327 l 380 -110 m 774 458 l 685 0 l 559 0 l 648 454 q 658 510 654 486 q 661 549 661 534 q 625 637 661 606 q 525 669 589 669 q 352 603 425 669 q 257 421 279 536 l 174 0 l 49 0 l 196 760 l 321 760 l 296 640 q 421 742 348 706 q 575 778 494 778 q 731 724 675 778 q 786 571 786 669 q 783 519 786 547 q 774 458 780 491 z "},"Ň":{"ha":1039,"x_min":37,"x_max":1002,"o":"m 235 1013 l 419 1013 l 699 144 l 868 1013 l 1002 1013 l 804 0 l 619 0 l 340 873 l 171 0 l 37 0 l 235 1013 m 728 1109 l 583 1109 l 476 1289 l 567 1289 l 661 1168 l 803 1289 l 905 1289 l 728 1109 z "},"ň":{"ha":880,"x_min":49,"x_max":792,"o":"m 774 458 l 685 0 l 559 0 l 648 454 q 658 510 654 486 q 661 549 661 534 q 625 637 661 606 q 525 669 589 669 q 352 603 425 669 q 257 421 279 536 l 174 0 l 49 0 l 196 760 l 321 760 l 296 640 q 421 742 348 706 q 575 778 494 778 q 731 724 675 778 q 786 571 786 669 q 783 519 786 547 q 774 458 780 491 m 575 856 l 475 856 l 359 1111 l 454 1111 l 541 950 l 697 1111 l 792 1111 l 575 856 z "},"ŉ":{"ha":1130,"x_min":104,"x_max":1017,"o":"m 224 1013 l 368 1013 l 345 895 l 191 679 l 104 679 l 201 895 l 224 1013 m 1005 458 l 916 0 l 791 0 l 880 454 q 889 510 886 486 q 892 549 892 534 q 857 637 892 606 q 756 669 821 669 q 583 603 656 669 q 488 421 511 536 l 405 0 l 280 0 l 427 760 l 552 760 l 527 640 q 652 742 579 706 q 806 778 726 778 q 962 724 907 778 q 1017 571 1017 669 q 1014 519 1017 547 q 1005 458 1011 491 z "},"Ŋ":{"ha":1039,"x_min":64,"x_max":947,"o":"m 701 1031 q 947 761 947 1031 q 930 606 947 692 l 810 -14 q 714 -223 782 -158 q 524 -289 646 -289 l 465 -289 l 485 -183 l 518 -183 q 621 -153 588 -183 q 674 -14 653 -122 l 795 607 q 806 718 806 669 q 643 897 806 897 q 432 811 522 897 q 313 574 342 724 l 201 0 l 64 0 l 261 1013 l 398 1013 l 366 849 q 517 985 437 940 q 701 1031 597 1031 z "},"ŋ":{"ha":880,"x_min":49,"x_max":786,"o":"m 774 458 l 682 -17 q 625 -195 657 -146 q 535 -264 594 -240 q 397 -289 477 -289 l 221 -289 l 241 -183 l 402 -183 q 506 -153 475 -183 q 558 -14 537 -122 l 648 454 q 658 510 654 486 q 661 549 661 534 q 625 637 661 606 q 525 669 589 669 q 352 603 425 669 q 257 421 279 536 l 174 0 l 49 0 l 196 760 l 321 760 l 296 640 q 421 742 348 706 q 575 778 494 778 q 731 724 675 778 q 786 571 786 669 q 783 519 786 547 q 774 458 780 491 z "},"Ō":{"ha":1093,"x_min":56,"x_max":1038,"o":"m 633 920 q 435 865 521 920 q 285 699 349 810 q 223 547 244 627 q 201 386 201 467 q 269 168 201 245 q 460 92 336 92 q 658 147 571 92 q 807 311 745 202 q 870 465 848 385 q 892 625 892 545 q 824 843 892 766 q 633 920 756 920 m 456 -20 q 162 91 269 -20 q 56 393 56 201 q 97 618 56 503 q 212 822 139 732 q 404 979 298 927 q 637 1031 510 1031 q 930 921 823 1031 q 1038 623 1038 812 q 997 393 1038 506 q 880 189 956 281 q 689 32 793 83 q 456 -20 584 -20 m 478 1249 l 884 1249 l 864 1148 l 458 1148 l 478 1249 z "},"ō":{"ha":850,"x_min":64,"x_max":786,"o":"m 353 -20 q 141 63 219 -20 q 64 288 64 145 q 91 456 64 370 q 160 600 117 542 q 310 734 227 691 q 497 778 393 778 q 706 697 627 778 q 786 486 786 616 q 760 307 786 396 q 690 158 733 217 q 541 24 624 67 q 353 -20 458 -20 m 193 292 q 236 137 193 189 q 367 86 279 86 q 575 196 492 86 q 657 473 657 305 q 613 622 657 572 q 484 672 569 672 q 358 639 413 672 q 260 539 303 606 q 211 425 228 489 q 193 292 193 360 m 356 1034 l 762 1034 l 742 934 l 336 934 l 356 1034 z "},"Ŏ":{"ha":1093,"x_min":56,"x_max":1038,"o":"m 494 1289 l 575 1289 q 610 1230 583 1248 q 688 1211 636 1211 q 783 1230 746 1211 q 839 1289 819 1249 l 920 1289 q 834 1169 897 1213 q 685 1125 772 1125 q 555 1166 603 1125 q 494 1289 508 1207 m 633 920 q 435 865 521 920 q 285 699 349 810 q 223 547 244 627 q 201 386 201 467 q 269 168 201 245 q 460 92 336 92 q 658 147 571 92 q 807 311 745 202 q 870 465 848 385 q 892 625 892 545 q 824 843 892 766 q 633 920 756 920 m 456 -20 q 162 91 269 -20 q 56 393 56 201 q 97 618 56 503 q 212 822 139 732 q 404 979 298 927 q 637 1031 510 1031 q 930 921 823 1031 q 1038 623 1038 812 q 997 393 1038 506 q 880 189 956 281 q 689 32 793 83 q 456 -20 584 -20 z "},"ŏ":{"ha":850,"x_min":64,"x_max":786,"o":"m 357 1090 l 435 1090 l 435 1080 q 463 1011 435 1034 q 550 989 492 989 q 645 1014 608 989 q 703 1090 682 1038 l 782 1090 q 696 946 760 996 q 532 896 631 896 q 401 940 446 896 q 356 1068 356 983 q 357 1080 356 1072 q 357 1090 357 1087 m 353 -20 q 141 63 219 -20 q 64 288 64 145 q 91 456 64 370 q 160 600 117 542 q 310 734 227 691 q 497 778 393 778 q 706 697 627 778 q 786 486 786 616 q 760 307 786 396 q 690 158 733 217 q 541 24 624 67 q 353 -20 458 -20 m 193 292 q 236 137 193 189 q 367 86 279 86 q 575 196 492 86 q 657 473 657 305 q 613 622 657 572 q 484 672 569 672 q 358 639 413 672 q 260 539 303 606 q 211 425 228 489 q 193 292 193 360 z "},"Ő":{"ha":1093,"x_min":56,"x_max":1074,"o":"m 934 1288 l 1074 1288 l 866 1109 l 759 1109 l 934 1288 m 720 1288 l 860 1288 l 652 1109 l 545 1109 l 720 1288 m 633 920 q 435 865 521 920 q 285 699 349 810 q 223 547 244 627 q 201 386 201 467 q 269 168 201 245 q 460 92 336 92 q 658 147 571 92 q 807 311 745 202 q 870 465 848 385 q 892 625 892 545 q 824 843 892 766 q 633 920 756 920 m 456 -20 q 162 91 269 -20 q 56 393 56 201 q 97 618 56 503 q 212 822 139 732 q 404 979 298 927 q 637 1031 510 1031 q 930 921 823 1031 q 1038 623 1038 812 q 997 393 1038 506 q 880 189 956 281 q 689 32 793 83 q 456 -20 584 -20 z "},"ő":{"ha":850,"x_min":64,"x_max":865,"o":"m 518 1111 l 633 1111 l 432 856 l 339 856 l 518 1111 m 745 1111 l 865 1111 l 648 856 l 556 856 l 745 1111 m 353 -20 q 141 63 219 -20 q 64 288 64 145 q 91 456 64 370 q 160 600 117 542 q 310 734 227 691 q 497 778 393 778 q 706 697 627 778 q 786 486 786 616 q 760 307 786 396 q 690 158 733 217 q 541 24 624 67 q 353 -20 458 -20 m 193 292 q 236 137 193 189 q 367 86 279 86 q 575 196 492 86 q 657 473 657 305 q 613 622 657 572 q 484 672 569 672 q 358 639 413 672 q 260 539 303 606 q 211 425 228 489 q 193 292 193 360 z "},"Œ":{"ha":1486,"x_min":64,"x_max":1482,"o":"m 821 897 l 739 897 q 539 871 627 897 q 392 796 451 846 q 255 620 302 722 q 208 395 208 517 q 294 186 208 257 q 547 115 380 115 l 581 115 l 668 115 l 821 897 m 1482 1013 l 1459 897 l 958 897 l 899 597 l 1381 597 l 1358 482 l 876 482 l 806 115 l 1321 115 l 1299 0 l 559 0 q 390 11 450 0 q 277 45 330 21 q 117 180 170 92 q 64 395 64 267 q 126 663 64 536 q 306 880 189 789 q 508 980 389 947 q 779 1013 627 1013 l 1482 1013 z "},"œ":{"ha":1428,"x_min":64,"x_max":1367,"o":"m 1350 350 l 770 350 q 765 315 767 332 q 764 283 764 298 q 821 138 764 189 q 985 86 879 86 q 1140 104 1066 86 q 1275 158 1213 123 l 1250 35 q 1112 -6 1183 8 q 966 -20 1040 -20 q 779 18 857 -20 q 669 122 701 55 q 523 16 601 51 q 353 -20 444 -20 q 143 61 223 -20 q 64 272 64 142 q 90 453 64 365 q 160 600 115 541 q 310 734 227 691 q 497 778 393 778 q 653 738 585 778 q 757 625 720 699 q 906 740 824 701 q 1084 778 988 778 q 1290 701 1214 778 q 1367 493 1367 623 q 1362 426 1367 462 q 1350 350 1358 391 m 1242 448 q 1245 470 1244 458 q 1246 493 1246 481 q 1197 624 1246 576 q 1065 672 1149 672 q 901 613 972 672 q 793 447 830 555 l 1242 448 m 193 292 q 236 137 193 189 q 367 86 279 86 q 575 195 492 86 q 657 472 657 303 q 613 622 657 572 q 484 672 570 672 q 358 639 413 672 q 260 539 303 606 q 211 425 228 489 q 193 292 193 360 z "},"Ŕ":{"ha":965,"x_min":37,"x_max":833,"o":"m 623 1289 l 763 1289 l 555 1109 l 448 1109 l 623 1289 m 350 900 l 281 541 l 457 541 q 625 598 561 541 q 689 747 689 655 q 646 861 689 821 q 522 900 603 900 l 350 900 m 602 486 q 674 436 645 476 q 741 277 703 396 l 827 0 l 682 0 l 603 260 q 532 394 572 360 q 410 428 492 428 l 258 428 l 175 0 l 37 0 l 235 1013 l 543 1013 q 759 949 684 1013 q 833 766 833 886 q 770 583 833 661 q 602 486 706 506 z "},"ŕ":{"ha":571,"x_min":49,"x_max":762,"o":"m 627 1116 l 762 1116 l 491 861 l 387 861 l 627 1116 m 619 644 q 576 660 600 654 q 524 665 551 665 q 349 590 424 665 q 250 387 275 514 l 174 0 l 49 0 l 197 760 l 322 760 l 298 642 q 417 743 348 707 q 564 778 486 778 q 604 775 584 778 q 643 768 623 773 l 619 644 z "},"Ŗ":{"ha":965,"x_min":37,"x_max":833,"o":"m 446 -110 l 589 -110 l 435 -327 l 348 -327 l 446 -110 m 350 900 l 281 541 l 457 541 q 625 598 561 541 q 689 747 689 655 q 646 861 689 821 q 522 900 603 900 l 350 900 m 602 486 q 674 436 645 476 q 741 277 703 396 l 827 0 l 682 0 l 603 260 q 532 394 572 360 q 410 428 492 428 l 258 428 l 175 0 l 37 0 l 235 1013 l 543 1013 q 759 949 684 1013 q 833 766 833 886 q 770 583 833 661 q 602 486 706 506 z "},"ŗ":{"ha":571,"x_min":27,"x_max":643,"o":"m 125 -110 l 268 -110 l 115 -327 l 27 -327 l 125 -110 m 619 644 q 576 660 600 654 q 524 665 551 665 q 349 590 424 665 q 250 387 275 514 l 174 0 l 49 0 l 197 760 l 322 760 l 298 642 q 417 743 348 707 q 564 778 486 778 q 604 775 584 778 q 643 768 623 773 l 619 644 z "},"Ř":{"ha":965,"x_min":37,"x_max":833,"o":"m 350 900 l 281 541 l 457 541 q 625 598 561 541 q 689 747 689 655 q 646 861 689 821 q 522 900 603 900 l 350 900 m 602 486 q 674 436 645 476 q 741 277 703 396 l 827 0 l 682 0 l 603 260 q 532 394 572 360 q 410 428 492 428 l 258 428 l 175 0 l 37 0 l 235 1013 l 543 1013 q 759 949 684 1013 q 833 766 833 886 q 770 583 833 661 q 602 486 706 506 m 585 1105 l 441 1105 l 334 1285 l 425 1285 l 519 1164 l 661 1285 l 763 1285 l 585 1105 z "},"ř":{"ha":571,"x_min":49,"x_max":683,"o":"m 619 644 q 576 660 600 654 q 524 665 551 665 q 349 590 424 665 q 250 387 275 514 l 174 0 l 49 0 l 197 760 l 322 760 l 298 642 q 417 743 348 707 q 564 778 486 778 q 604 775 584 778 q 643 768 623 773 l 619 644 m 466 856 l 366 856 l 250 1111 l 345 1111 l 431 950 l 588 1111 l 683 1111 l 466 856 z "},"Ś":{"ha":882,"x_min":8,"x_max":838,"o":"m 623 1289 l 763 1289 l 555 1109 l 448 1109 l 623 1289 m 838 979 l 811 846 q 675 901 743 882 q 545 920 608 920 q 349 866 422 920 q 277 724 277 812 q 303 649 277 675 q 441 593 330 623 l 524 572 q 717 481 663 536 q 771 326 771 426 q 651 77 771 173 q 334 -20 530 -20 q 172 -4 253 -20 q 8 45 90 12 l 36 186 q 187 115 111 139 q 338 92 262 92 q 543 149 466 92 q 621 297 621 205 q 590 390 621 358 q 457 447 559 421 l 375 468 q 183 552 235 505 q 132 686 132 600 q 249 934 132 838 q 551 1031 365 1031 q 695 1018 624 1031 q 838 979 766 1005 z "},"ś":{"ha":724,"x_min":16,"x_max":762,"o":"m 627 1116 l 762 1116 l 491 861 l 387 861 l 627 1116 m 694 737 l 671 619 q 566 660 621 646 q 453 673 511 673 q 298 640 355 673 q 241 549 241 606 q 373 446 241 481 q 388 441 383 443 l 428 429 q 594 357 553 395 q 636 253 636 319 q 540 56 636 132 q 289 -20 444 -20 q 162 -8 229 -20 q 16 28 96 3 l 40 157 q 175 103 109 121 q 302 85 241 85 q 451 124 394 85 q 509 224 509 163 q 358 329 509 289 l 345 332 l 302 343 q 163 409 208 368 q 119 514 119 450 q 211 707 119 635 q 458 778 302 778 q 579 768 520 778 q 694 737 637 758 z "},"Ŝ":{"ha":882,"x_min":8,"x_max":838,"o":"m 530 1289 l 675 1289 l 783 1109 l 691 1109 l 596 1230 l 454 1109 l 352 1109 l 530 1289 m 838 979 l 811 846 q 675 901 743 882 q 545 920 608 920 q 349 866 422 920 q 277 724 277 812 q 303 649 277 675 q 441 593 330 623 l 524 572 q 717 481 663 536 q 771 326 771 426 q 651 77 771 173 q 334 -20 530 -20 q 172 -4 253 -20 q 8 45 90 12 l 36 186 q 187 115 111 139 q 338 92 262 92 q 543 149 466 92 q 621 297 621 205 q 590 390 621 358 q 457 447 559 421 l 375 468 q 183 552 235 505 q 132 686 132 600 q 249 934 132 838 q 551 1031 365 1031 q 695 1018 624 1031 q 838 979 766 1005 z "},"ŝ":{"ha":724,"x_min":16,"x_max":694,"o":"m 474 1111 l 574 1111 l 691 856 l 597 856 l 511 1017 l 352 856 l 258 856 l 474 1111 m 694 737 l 671 619 q 566 660 621 646 q 453 673 511 673 q 298 640 355 673 q 241 549 241 606 q 373 446 241 481 q 388 441 383 443 l 428 429 q 594 357 553 395 q 636 253 636 319 q 540 56 636 132 q 289 -20 444 -20 q 162 -8 229 -20 q 16 28 96 3 l 40 157 q 175 103 109 121 q 302 85 241 85 q 451 124 394 85 q 509 224 509 163 q 358 329 509 289 l 345 332 l 302 343 q 163 409 208 368 q 119 514 119 450 q 211 707 119 635 q 458 778 302 778 q 579 768 520 778 q 694 737 637 758 z "},"Ş":{"ha":882,"x_min":8,"x_max":838,"o":"m 838 979 l 811 846 q 675 901 743 882 q 545 920 608 920 q 349 866 422 920 q 277 724 277 812 q 303 649 277 675 q 441 593 330 623 l 524 572 q 717 481 663 536 q 771 326 771 426 q 651 77 771 173 q 334 -20 530 -20 q 172 -4 253 -20 q 8 45 90 12 l 36 186 q 187 115 111 139 q 338 92 262 92 q 543 149 466 92 q 621 297 621 205 q 590 390 621 358 q 457 447 559 421 l 375 468 q 183 552 235 505 q 132 686 132 600 q 249 934 132 838 q 551 1031 365 1031 q 695 1018 624 1031 q 838 979 766 1005 m 391 0 q 427 -64 416 -35 q 439 -122 439 -94 q 389 -229 439 -190 q 252 -268 339 -268 q 194 -264 223 -268 q 136 -252 165 -260 l 151 -163 q 204 -179 178 -174 q 260 -184 231 -184 q 325 -164 300 -184 q 349 -107 349 -143 q 340 -63 349 -87 q 311 0 332 -39 l 391 0 z "},"ş":{"ha":724,"x_min":16,"x_max":694,"o":"m 694 737 l 671 619 q 566 660 621 646 q 453 673 511 673 q 298 640 355 673 q 241 549 241 606 q 373 446 241 481 q 388 441 383 443 l 428 429 q 594 357 553 395 q 636 253 636 319 q 540 56 636 132 q 289 -20 444 -20 q 162 -8 229 -20 q 16 28 96 3 l 40 157 q 175 103 109 121 q 302 85 241 85 q 451 124 394 85 q 509 224 509 163 q 358 329 509 289 l 345 332 l 302 343 q 163 409 208 368 q 119 514 119 450 q 211 707 119 635 q 458 778 302 778 q 579 768 520 778 q 694 737 637 758 m 339 0 q 375 -64 363 -35 q 387 -122 387 -94 q 337 -229 387 -190 q 200 -268 287 -268 q 142 -264 171 -268 q 83 -252 113 -260 l 99 -163 q 152 -179 125 -174 q 208 -184 179 -184 q 272 -164 248 -184 q 296 -107 296 -143 q 288 -63 296 -87 q 258 0 279 -39 l 339 0 z "},"Š":{"ha":882,"x_min":8,"x_max":838,"o":"m 838 979 l 811 846 q 675 901 743 882 q 545 920 608 920 q 349 866 422 920 q 277 724 277 812 q 303 649 277 675 q 441 593 330 623 l 524 572 q 717 481 663 536 q 771 326 771 426 q 651 77 771 173 q 334 -20 530 -20 q 172 -4 253 -20 q 8 45 90 12 l 36 186 q 187 115 111 139 q 338 92 262 92 q 543 149 466 92 q 621 297 621 205 q 590 390 621 358 q 457 447 559 421 l 375 468 q 183 552 235 505 q 132 686 132 600 q 249 934 132 838 q 551 1031 365 1031 q 695 1018 624 1031 q 838 979 766 1005 m 627 1109 l 482 1109 l 375 1289 l 466 1289 l 560 1168 l 702 1289 l 804 1289 l 627 1109 z "},"š":{"ha":724,"x_min":16,"x_max":727,"o":"m 694 737 l 671 619 q 566 660 621 646 q 453 673 511 673 q 298 640 355 673 q 241 549 241 606 q 373 446 241 481 q 388 441 383 443 l 428 429 q 594 357 553 395 q 636 253 636 319 q 540 56 636 132 q 289 -20 444 -20 q 162 -8 229 -20 q 16 28 96 3 l 40 157 q 175 103 109 121 q 302 85 241 85 q 451 124 394 85 q 509 224 509 163 q 358 329 509 289 l 345 332 l 302 343 q 163 409 208 368 q 119 514 119 450 q 211 707 119 635 q 458 778 302 778 q 579 768 520 778 q 694 737 637 758 m 510 856 l 410 856 l 294 1111 l 389 1111 l 475 950 l 632 1111 l 727 1111 l 510 856 z "},"Ţ":{"ha":848,"x_min":60,"x_max":939,"o":"m 375 0 q 411 -64 399 -35 q 422 -122 422 -94 q 373 -229 422 -190 q 236 -268 323 -268 q 178 -264 207 -268 q 119 -252 149 -260 l 135 -163 q 188 -179 161 -174 q 243 -184 215 -184 q 308 -164 284 -184 q 332 -107 332 -143 q 324 -63 332 -87 q 294 0 315 -39 l 375 0 m 82 1013 l 939 1013 l 917 897 l 555 897 l 382 0 l 244 0 l 418 897 l 60 897 l 82 1013 z "},"ţ":{"ha":545,"x_min":86,"x_max":587,"o":"m 342 0 q 378 -64 366 -35 q 389 -122 389 -94 q 339 -229 389 -190 q 203 -268 290 -268 q 144 -264 174 -268 q 86 -252 115 -260 l 102 -163 q 155 -179 128 -174 q 210 -184 182 -184 q 275 -164 251 -184 q 299 -107 299 -143 q 291 -63 299 -87 q 261 0 282 -39 l 342 0 m 587 760 l 568 663 l 319 663 l 239 250 q 233 212 235 227 q 231 187 231 196 q 257 124 231 144 q 340 104 283 104 l 467 104 l 446 0 l 326 0 q 160 43 215 0 q 106 175 106 87 q 108 209 106 191 q 114 250 110 228 l 195 663 l 89 663 l 109 760 l 212 760 l 254 975 l 379 975 l 338 760 l 587 760 z "},"Ť":{"ha":848,"x_min":60,"x_max":939,"o":"m 82 1013 l 939 1013 l 917 897 l 555 897 l 382 0 l 244 0 l 418 897 l 60 897 l 82 1013 m 610 1109 l 465 1109 l 358 1289 l 449 1289 l 543 1168 l 685 1289 l 787 1289 l 610 1109 z "},"ť":{"ha":545,"x_min":89,"x_max":663,"o":"m 587 760 l 568 663 l 319 663 l 239 250 q 233 212 235 227 q 231 187 231 196 q 257 124 231 144 q 340 104 283 104 l 467 104 l 446 0 l 326 0 q 160 43 215 0 q 106 175 106 87 q 108 209 106 191 q 114 250 110 228 l 195 663 l 89 663 l 109 760 l 212 760 l 254 975 l 379 975 l 338 760 l 587 760 m 528 1116 l 663 1116 l 545 861 l 440 861 l 528 1116 z "},"Ŧ":{"ha":848,"x_min":72,"x_max":951,"o":"m 94 1013 l 951 1013 l 928 897 l 569 897 l 493 507 l 673 507 l 650 391 l 471 391 l 395 0 l 257 0 l 333 391 l 153 391 l 176 507 l 355 507 l 431 897 l 72 897 l 94 1013 z "},"ŧ":{"ha":545,"x_min":22,"x_max":564,"o":"m 349 975 l 307 760 l 564 760 l 545 663 l 288 663 l 258 505 l 515 505 l 496 408 l 239 408 l 208 250 q 210 131 190 157 q 309 104 231 104 l 437 104 l 416 0 l 288 0 q 100 54 144 0 q 83 250 55 108 l 113 408 l 22 408 l 41 505 l 132 505 l 163 663 l 71 663 l 90 760 l 182 760 l 224 975 l 349 975 z "},"Ũ":{"ha":1017,"x_min":81,"x_max":990,"o":"m 631 1160 l 607 1177 l 606 1177 q 551 1199 577 1199 q 510 1182 528 1199 q 479 1131 492 1164 l 395 1131 q 460 1242 418 1204 q 559 1279 502 1279 q 604 1272 583 1279 q 649 1247 625 1264 l 671 1230 q 696 1216 683 1220 q 722 1211 709 1211 q 768 1230 749 1211 q 795 1279 787 1248 l 880 1279 q 815 1168 857 1205 q 710 1131 772 1131 q 670 1138 689 1131 q 631 1160 652 1145 m 215 1013 l 353 1013 l 233 397 q 223 329 226 356 q 220 282 220 302 q 272 140 220 189 q 425 92 324 92 q 629 163 556 92 q 733 397 702 235 l 852 1013 l 990 1013 l 868 380 q 716 78 828 176 q 410 -20 604 -20 q 169 57 258 -20 q 81 264 81 133 q 84 317 81 288 q 94 380 87 347 l 215 1013 z "},"ũ":{"ha":880,"x_min":79,"x_max":818,"o":"m 529 929 l 498 966 q 479 984 490 977 q 457 993 468 991 q 413 968 431 993 q 385 888 396 943 l 300 888 q 364 1030 320 981 q 469 1079 408 1079 q 516 1068 494 1079 q 555 1038 538 1058 l 587 1000 q 605 983 595 989 q 627 974 614 977 q 670 998 653 974 q 700 1079 686 1022 l 785 1079 q 721 937 765 986 q 615 888 677 888 q 567 898 589 888 q 529 929 545 909 m 93 301 l 182 760 l 307 760 l 218 306 q 209 249 212 273 q 205 210 205 225 q 241 120 205 152 q 340 89 276 89 q 514 157 441 89 q 610 339 587 224 l 693 760 l 818 760 l 671 0 l 546 0 l 571 119 q 445 17 518 53 q 290 -20 372 -20 q 135 35 191 -20 q 79 187 79 90 q 83 238 79 208 q 93 301 86 269 z "},"Ū":{"ha":1017,"x_min":81,"x_max":990,"o":"m 215 1013 l 353 1013 l 233 397 q 223 329 226 356 q 220 282 220 302 q 272 140 220 189 q 425 92 324 92 q 629 163 556 92 q 733 397 702 235 l 852 1013 l 990 1013 l 868 380 q 716 78 828 176 q 410 -20 604 -20 q 169 57 258 -20 q 81 264 81 133 q 84 317 81 288 q 94 380 87 347 l 215 1013 m 439 1249 l 845 1249 l 825 1148 l 420 1148 l 439 1249 z "},"ū":{"ha":880,"x_min":79,"x_max":818,"o":"m 93 301 l 182 760 l 307 760 l 218 306 q 209 249 212 273 q 205 210 205 225 q 241 120 205 152 q 340 89 276 89 q 514 157 441 89 q 610 339 587 224 l 693 760 l 818 760 l 671 0 l 546 0 l 571 119 q 445 17 518 53 q 290 -20 372 -20 q 135 35 191 -20 q 79 187 79 90 q 83 238 79 208 q 93 301 86 269 m 367 1034 l 772 1034 l 753 934 l 347 934 l 367 1034 z "},"Ŭ":{"ha":1017,"x_min":81,"x_max":990,"o":"m 433 1289 l 514 1289 q 549 1230 522 1248 q 627 1211 575 1211 q 722 1230 685 1211 q 778 1289 758 1249 l 859 1289 q 773 1169 836 1213 q 624 1125 711 1125 q 494 1166 542 1125 q 433 1289 447 1207 m 215 1013 l 353 1013 l 233 397 q 223 329 226 356 q 220 282 220 302 q 272 140 220 189 q 425 92 324 92 q 629 163 556 92 q 733 397 702 235 l 852 1013 l 990 1013 l 868 380 q 716 78 828 176 q 410 -20 604 -20 q 169 57 258 -20 q 81 264 81 133 q 84 317 81 288 q 94 380 87 347 l 215 1013 z "},"ŭ":{"ha":880,"x_min":79,"x_max":818,"o":"m 351 1090 l 429 1090 l 429 1080 q 457 1011 429 1034 q 544 989 486 989 q 639 1014 602 989 q 697 1090 676 1038 l 776 1090 q 690 946 754 996 q 526 896 625 896 q 395 940 439 896 q 350 1068 350 983 q 351 1080 350 1072 q 351 1090 351 1087 m 93 301 l 182 760 l 307 760 l 218 306 q 209 249 212 273 q 205 210 205 225 q 241 120 205 152 q 340 89 276 89 q 514 157 441 89 q 610 339 587 224 l 693 760 l 818 760 l 671 0 l 546 0 l 571 119 q 445 17 518 53 q 290 -20 372 -20 q 135 35 191 -20 q 79 187 79 90 q 83 238 79 208 q 93 301 86 269 z "},"Ů":{"ha":1017,"x_min":81,"x_max":990,"o":"m 798 1105 q 744 972 798 1027 q 612 918 690 918 q 480 972 534 918 q 426 1105 426 1027 q 480 1237 426 1183 q 612 1291 534 1291 q 744 1237 690 1291 q 798 1105 798 1183 m 715 1105 q 685 1178 715 1148 q 612 1207 656 1207 q 538 1178 567 1207 q 509 1105 509 1149 q 538 1031 509 1060 q 612 1002 567 1002 q 686 1031 657 1002 q 715 1105 715 1060 m 215 1013 l 353 1013 l 233 397 q 223 329 226 356 q 220 282 220 302 q 272 140 220 189 q 425 92 324 92 q 629 163 556 92 q 733 397 702 235 l 852 1013 l 990 1013 l 868 380 q 716 78 828 176 q 410 -20 604 -20 q 169 57 258 -20 q 81 264 81 133 q 84 317 81 288 q 94 380 87 347 l 215 1013 z "},"ů":{"ha":880,"x_min":79,"x_max":818,"o":"m 93 301 l 182 760 l 307 760 l 218 306 q 209 249 212 273 q 205 210 205 225 q 241 120 205 152 q 340 89 276 89 q 514 157 441 89 q 610 339 587 224 l 693 760 l 818 760 l 671 0 l 546 0 l 571 119 q 445 17 518 53 q 290 -20 372 -20 q 135 35 191 -20 q 79 187 79 90 q 83 238 79 208 q 93 301 86 269 m 710 1010 q 656 878 710 932 q 524 823 602 823 q 392 878 446 823 q 338 1010 338 932 q 392 1142 338 1088 q 524 1196 446 1196 q 656 1142 602 1196 q 710 1010 710 1088 m 627 1010 q 597 1083 627 1053 q 524 1112 568 1112 q 450 1083 479 1112 q 421 1010 421 1055 q 450 936 421 965 q 524 907 479 907 q 598 936 569 907 q 627 1010 627 965 z "},"Ű":{"ha":1017,"x_min":81,"x_max":1013,"o":"m 873 1288 l 1013 1288 l 805 1109 l 698 1109 l 873 1288 m 659 1288 l 799 1288 l 591 1109 l 484 1109 l 659 1288 m 215 1013 l 353 1013 l 233 397 q 223 329 226 356 q 220 282 220 302 q 272 140 220 189 q 425 92 324 92 q 629 163 556 92 q 733 397 702 235 l 852 1013 l 990 1013 l 868 380 q 716 78 828 176 q 410 -20 604 -20 q 169 57 258 -20 q 81 264 81 133 q 84 317 81 288 q 94 380 87 347 l 215 1013 z "},"ű":{"ha":880,"x_min":79,"x_max":859,"o":"m 512 1111 l 627 1111 l 426 856 l 333 856 l 512 1111 m 739 1111 l 859 1111 l 642 856 l 550 856 l 739 1111 m 93 301 l 182 760 l 307 760 l 218 306 q 209 249 212 273 q 205 210 205 225 q 241 120 205 152 q 340 89 276 89 q 514 157 441 89 q 610 339 587 224 l 693 760 l 818 760 l 671 0 l 546 0 l 571 119 q 445 17 518 53 q 290 -20 372 -20 q 135 35 191 -20 q 79 187 79 90 q 83 238 79 208 q 93 301 86 269 z "},"Ų":{"ha":1017,"x_min":81,"x_max":990,"o":"m 215 1013 l 353 1013 l 233 397 q 223 329 226 356 q 220 282 220 302 q 272 140 220 189 q 425 92 324 92 q 629 163 556 92 q 733 397 702 235 l 852 1013 l 990 1013 l 868 380 q 716 78 828 176 q 410 -20 604 -20 q 169 57 258 -20 q 81 264 81 133 q 84 317 81 288 q 94 380 87 347 l 215 1013 m 338 0 l 418 0 q 354 -80 375 -45 q 332 -138 332 -114 q 348 -173 332 -161 q 393 -184 363 -184 q 436 -179 413 -184 q 485 -164 460 -174 l 469 -254 q 419 -266 444 -262 q 374 -269 395 -269 q 269 -243 304 -269 q 234 -167 234 -218 q 260 -90 234 -132 q 338 0 286 -48 z "},"ų":{"ha":880,"x_min":79,"x_max":818,"o":"m 93 301 l 182 760 l 307 760 l 218 306 q 209 249 212 273 q 205 210 205 225 q 241 120 205 152 q 340 89 276 89 q 514 157 441 89 q 610 339 587 224 l 693 760 l 818 760 l 671 0 l 546 0 l 571 119 q 445 17 518 53 q 290 -20 372 -20 q 135 35 191 -20 q 79 187 79 90 q 83 238 79 208 q 93 301 86 269 m 589 0 l 669 0 q 605 -80 626 -45 q 583 -138 583 -114 q 598 -173 583 -161 q 644 -184 614 -184 q 687 -179 664 -184 q 736 -164 711 -174 l 720 -254 q 670 -266 694 -262 q 625 -269 646 -269 q 520 -243 555 -269 q 485 -167 485 -218 q 511 -90 485 -132 q 589 0 537 -48 z "},"Ŵ":{"ha":1373,"x_min":134,"x_max":1417,"o":"m 134 1013 l 267 1013 l 315 151 l 697 1013 l 850 1013 l 900 151 l 1278 1013 l 1417 1013 l 966 0 l 794 0 l 747 844 l 368 0 l 196 0 l 134 1013 m 758 1294 l 903 1294 l 1010 1114 l 919 1114 l 824 1234 l 682 1114 l 580 1114 l 758 1294 z "},"ŵ":{"ha":1136,"x_min":118,"x_max":1137,"o":"m 647 1111 l 747 1111 l 864 856 l 770 856 l 684 1017 l 525 856 l 431 856 l 647 1111 m 118 760 l 241 760 l 273 149 l 557 760 l 701 760 l 743 149 l 1013 760 l 1137 760 l 790 0 l 644 0 l 607 629 l 317 0 l 170 0 l 118 760 z "},"Ŷ":{"ha":848,"x_min":87,"x_max":939,"o":"m 87 1013 l 235 1013 l 424 596 l 785 1013 l 939 1013 l 479 482 l 386 0 l 249 0 l 342 482 l 87 1013 m 490 1294 l 636 1294 l 743 1114 l 652 1114 l 557 1234 l 415 1114 l 313 1114 l 490 1294 z "},"ŷ":{"ha":822,"x_min":-35,"x_max":838,"o":"m 488 1111 l 588 1111 l 705 856 l 610 856 l 524 1017 l 366 856 l 271 856 l 488 1111 m 345 -71 q 203 -253 258 -216 q 64 -289 149 -289 l -35 -289 l -14 -184 l 58 -184 q 147 -156 111 -184 q 229 -45 184 -127 l 268 28 l 100 760 l 232 760 l 358 178 l 707 760 l 838 760 l 345 -71 z "},"Ÿ":{"ha":848,"x_min":87,"x_max":939,"o":"m 87 1013 l 235 1013 l 424 596 l 785 1013 l 939 1013 l 479 482 l 386 0 l 249 0 l 342 482 l 87 1013 m 361 1268 l 500 1268 l 472 1131 l 335 1131 l 361 1268 m 627 1268 l 764 1268 l 738 1131 l 600 1131 l 627 1268 z "},"Ź":{"ha":951,"x_min":-31,"x_max":977,"o":"m 623 1289 l 763 1289 l 555 1109 l 448 1109 l 623 1289 m 182 1013 l 977 1013 l 957 908 l 172 115 l 818 115 l 796 0 l -31 0 l -11 104 l 774 897 l 160 897 l 182 1013 z "},"ź":{"ha":729,"x_min":-4,"x_max":762,"o":"m 627 1116 l 762 1116 l 491 861 l 387 861 l 627 1116 m 161 760 l 754 760 l 732 646 l 160 100 l 632 100 l 612 0 l -4 0 l 18 114 l 590 660 l 142 660 l 161 760 z "},"Ż":{"ha":951,"x_min":-31,"x_max":977,"o":"m 182 1013 l 977 1013 l 957 908 l 172 115 l 818 115 l 796 0 l -31 0 l -11 104 l 774 897 l 160 897 l 182 1013 m 556 1267 l 694 1267 l 667 1128 l 528 1128 l 556 1267 z "},"ż":{"ha":729,"x_min":-4,"x_max":754,"o":"m 431 1055 l 556 1055 l 526 897 l 401 897 l 431 1055 m 161 760 l 754 760 l 732 646 l 160 100 l 632 100 l 612 0 l -4 0 l 18 114 l 590 660 l 142 660 l 161 760 z "},"Ž":{"ha":951,"x_min":-31,"x_max":977,"o":"m 182 1013 l 977 1013 l 957 908 l 172 115 l 818 115 l 796 0 l -31 0 l -11 104 l 774 897 l 160 897 l 182 1013 m 661 1109 l 517 1109 l 410 1289 l 500 1289 l 595 1168 l 736 1289 l 839 1289 l 661 1109 z "},"ž":{"ha":729,"x_min":-4,"x_max":754,"o":"m 161 760 l 754 760 l 732 646 l 160 100 l 632 100 l 612 0 l -4 0 l 18 114 l 590 660 l 142 660 l 161 760 m 513 856 l 413 856 l 296 1111 l 392 1111 l 478 950 l 635 1111 l 730 1111 l 513 856 z "},"ſ":{"ha":489,"x_min":94,"x_max":664,"o":"m 220 0 l 94 0 l 224 663 l 104 663 l 122 760 l 241 760 l 252 812 q 342 1001 277 947 q 546 1055 407 1055 l 664 1055 l 644 951 l 525 951 q 426 925 457 951 q 380 827 395 898 l 220 0 z "},"ƀ":{"ha":882,"x_min":26,"x_max":779,"o":"m 649 379 q 635 595 676 517 q 494 673 593 673 q 323 595 395 673 q 224 379 252 517 q 239 163 198 241 q 380 85 281 85 q 551 163 479 85 q 649 379 623 241 m 276 644 q 395 745 329 712 q 545 778 462 778 q 749 668 684 778 q 779 379 814 558 q 636 90 744 200 q 390 -20 528 -20 q 253 14 307 -20 q 173 114 199 46 l 151 0 l 26 0 l 195 871 l 90 871 l 106 956 l 211 956 l 231 1055 l 356 1055 l 336 956 l 557 956 l 541 871 l 320 871 l 276 644 z "},"Ɓ":{"ha":1021,"x_min":71,"x_max":1028,"o":"m 435 484 l 363 113 l 583 113 q 755 159 693 113 q 836 298 818 204 q 810 438 854 393 q 655 484 766 484 l 435 484 m 751 1013 q 980 947 907 1013 q 1028 762 1052 882 q 956 614 1010 669 q 815 546 902 559 q 955 456 912 524 q 977 283 998 387 q 844 74 951 148 q 568 0 738 0 l 204 0 l 379 900 q 236 868 283 900 q 183 765 198 842 l 177 732 l 71 732 l 80 779 q 180 958 104 902 q 401 1013 256 1013 l 751 1013 m 516 900 l 456 595 l 659 595 q 817 632 760 595 q 888 747 873 670 q 861 862 903 824 q 719 900 819 900 l 516 900 z "},"Ƃ":{"ha":953,"x_min":38,"x_max":882,"o":"m 675 349 q 488 484 675 484 l 269 484 l 197 113 l 416 113 q 669 298 633 113 q 675 349 675 325 m 882 1013 l 860 900 l 350 900 l 291 596 l 517 596 q 765 522 688 596 q 822 374 822 469 q 814 298 822 339 q 678 74 785 148 q 401 0 572 0 l 38 0 l 235 1013 l 882 1013 z "},"ƃ":{"ha":882,"x_min":26,"x_max":804,"o":"m 276 644 q 395 745 329 712 q 545 778 462 778 q 749 668 684 778 q 779 379 814 558 q 636 90 744 200 q 390 -20 528 -20 q 253 14 307 -20 q 173 114 199 46 l 151 0 l 26 0 l 231 1055 l 804 1055 l 783 943 l 334 943 l 276 644 m 649 379 q 635 595 676 517 q 494 673 593 673 q 323 595 395 673 q 224 379 252 517 q 239 163 198 241 q 380 85 281 85 q 551 163 479 85 q 649 379 623 241 z "},"Ƅ":{"ha":953,"x_min":59,"x_max":835,"o":"m 690 298 q 665 438 709 392 q 510 484 621 484 l 290 484 l 218 113 l 437 113 q 610 159 548 113 q 690 298 673 204 m 393 1013 l 312 596 l 538 596 q 787 522 709 596 q 835 298 864 448 q 699 74 806 148 q 422 0 593 0 l 59 0 l 203 741 l 66 741 l 331 1013 l 393 1013 z "},"ƅ":{"ha":882,"x_min":49,"x_max":802,"o":"m 300 644 q 418 745 352 712 q 568 778 485 778 q 772 668 707 778 q 802 379 837 558 q 659 90 767 200 q 413 -20 551 -20 q 276 14 330 -20 q 197 114 222 46 l 174 0 l 49 0 l 193 741 l 66 741 l 325 1056 l 380 1056 l 300 644 m 673 379 q 658 595 699 517 q 517 673 616 673 q 347 595 418 673 q 248 379 275 517 q 262 163 221 241 q 403 85 304 85 q 574 163 502 85 q 673 379 646 241 z "},"Ɔ":{"ha":977,"x_min":87,"x_max":994,"o":"m 87 77 l 115 221 q 253 123 180 155 q 410 92 326 92 q 614 147 526 92 q 766 317 702 203 q 828 472 806 390 q 849 636 849 553 q 778 847 849 774 q 570 920 706 920 q 389 889 475 920 q 220 799 302 859 l 252 961 q 415 1013 332 996 q 580 1031 497 1031 q 884 925 774 1031 q 994 631 994 819 q 952 393 994 510 q 832 180 910 277 q 643 29 749 78 q 396 -20 537 -20 q 232 4 309 -20 q 87 77 154 28 z "},"Ƈ":{"ha":970,"x_min":54,"x_max":1230,"o":"m 832 1002 q 937 1200 869 1134 q 1177 1283 1023 1283 l 1230 1283 l 1207 1168 l 1164 1168 q 1026 1117 1074 1168 q 954 935 979 1066 l 925 790 q 796 886 869 854 q 636 918 724 918 q 373 832 480 918 q 372 831 373 832 q 372 831 372 831 q 371 831 372 831 q 370 830 371 831 q 370 829 370 830 q 369 829 370 829 q 368 828 369 829 q 368 827 368 828 q 366 827 368 827 q 366 827 366 827 q 365 826 366 827 q 364 825 365 826 q 363 825 364 825 q 363 824 363 825 q 362 823 363 824 q 361 823 362 823 q 361 823 361 823 q 360 822 361 823 q 359 821 360 822 q 359 821 359 821 q 358 820 359 821 q 357 819 358 820 q 357 819 357 819 q 356 818 357 819 q 355 817 356 818 q 355 817 355 817 q 354 817 355 817 q 353 816 354 817 q 353 815 353 816 q 352 814 353 815 q 351 814 352 814 q 351 813 351 814 q 350 812 351 813 q 198 505 237 706 q 231 199 159 305 q 476 93 302 93 q 648 125 564 93 q 814 221 733 157 l 787 78 q 621 5 705 29 q 446 -20 535 -20 q 111 121 216 -20 q 54 505 6 262 q 260 890 101 749 q 650 1031 420 1031 q 817 1006 741 1031 q 832 1002 825 1004 z "},"ƈ":{"ha":764,"x_min":54,"x_max":933,"o":"m 608 770 q 695 941 637 884 q 886 1006 763 1006 l 933 1006 l 913 900 l 880 900 q 776 867 808 900 q 724 730 744 834 l 701 614 q 604 658 654 643 q 498 672 553 672 q 295 595 377 672 q 186 379 213 518 q 211 163 159 240 q 385 86 263 86 q 495 100 439 86 q 610 144 551 115 l 587 29 q 472 -7 530 5 q 351 -20 414 -20 q 99 88 179 -20 q 54 379 19 196 q 214 671 91 565 q 514 778 336 778 q 608 770 562 778 z "},"Ɖ":{"ha":1076,"x_min":0,"x_max":1010,"o":"m 241 1013 l 536 1013 q 890 913 770 1013 q 1010 618 1010 814 q 964 369 1010 489 q 838 167 918 250 q 633 41 757 83 q 340 0 510 0 l 45 0 l 136 475 l 0 475 l 20 572 l 155 572 l 241 1013 m 357 900 l 293 572 l 521 572 l 501 475 l 273 475 l 204 113 l 383 113 q 740 245 614 113 q 865 618 865 377 q 784 832 865 764 q 529 900 703 900 l 357 900 z "},"Ɗ":{"ha":1137,"x_min":71,"x_max":1154,"o":"m 516 900 l 363 113 l 528 113 q 854 208 738 113 q 1009 507 970 302 q 970 806 1049 711 q 682 900 891 900 l 516 900 m 682 1013 q 1090 890 977 1013 q 1154 507 1204 768 q 941 123 1103 245 q 486 0 779 0 l 204 0 l 379 900 q 236 868 283 900 q 183 765 198 842 l 177 732 l 71 732 l 80 779 q 180 958 104 902 q 401 1013 256 1013 l 682 1013 z "},"Ƌ":{"ha":953,"x_min":96,"x_max":953,"o":"m 240 298 q 267 159 222 204 q 421 113 311 113 l 641 113 l 713 484 l 493 484 q 321 438 382 484 q 240 298 258 392 m 379 1013 l 953 1013 l 756 0 l 393 0 q 144 74 222 0 q 96 298 66 148 q 232 522 125 448 q 509 596 338 596 l 735 596 l 794 900 l 357 900 l 379 1013 z "},"ƌ":{"ha":882,"x_min":50,"x_max":860,"o":"m 655 644 l 713 943 l 265 943 l 287 1055 l 860 1055 l 655 0 l 530 0 l 552 114 q 433 14 500 46 q 283 -20 367 -20 q 80 90 145 -20 q 50 379 15 200 q 193 668 85 558 q 439 778 300 778 q 576 745 522 778 q 655 644 629 712 m 179 379 q 194 163 153 241 q 334 85 235 85 q 505 163 433 85 q 604 379 577 241 q 589 595 631 517 q 449 673 548 673 q 278 595 350 673 q 179 379 206 517 z "},"ƍ":{"ha":850,"x_min":77,"x_max":798,"o":"m 97 -138 q 319 -185 157 -185 q 506 -106 490 -185 q 345 -11 518 -43 q 144 90 210 14 q 102 370 66 182 q 251 655 138 549 q 528 762 365 762 q 762 655 690 762 q 798 363 835 549 q 657 113 772 224 q 557 45 612 69 q 633 -104 652 -9 q 298 -289 597 -289 q 77 -241 149 -289 l 97 -138 m 470 79 q 567 148 519 98 q 667 363 640 224 q 651 578 694 500 q 507 656 608 656 q 334 577 407 656 q 235 370 260 498 q 258 170 209 235 q 394 92 310 100 q 470 79 437 88 z "},"Ǝ":{"ha":878,"x_min":89,"x_max":938,"o":"m 938 1013 l 741 0 l 89 0 l 111 115 l 627 115 l 698 482 l 216 482 l 238 597 l 720 597 l 779 897 l 275 897 l 298 1013 l 938 1013 z "},"Ə":{"ha":1093,"x_min":71,"x_max":1041,"o":"m 884 529 q 873 751 907 646 q 776 879 842 838 q 602 920 709 920 q 414 886 509 920 q 233 789 319 852 l 262 935 q 456 1006 359 983 q 648 1031 553 1031 q 827 1002 753 1031 q 952 914 903 973 q 1041 678 1031 820 q 997 393 1052 545 q 880 189 956 281 q 689 32 793 83 q 456 -20 584 -20 q 163 91 258 -20 q 71 529 18 258 l 884 529 m 859 416 l 202 416 q 269 168 194 254 q 460 92 336 92 q 658 146 571 92 q 807 311 745 202 q 859 416 843 375 z "},"Ɛ":{"ha":853,"x_min":168,"x_max":939,"o":"m 426 546 q 305 627 342 568 q 284 768 268 684 q 412 960 308 889 q 673 1031 517 1031 q 800 1020 733 1031 q 939 987 865 1009 l 916 865 q 781 903 843 891 q 663 916 719 916 q 496 873 559 916 q 418 754 433 832 q 449 637 403 678 q 595 597 494 597 l 719 597 l 697 485 l 579 485 q 395 434 467 485 q 304 294 322 384 q 343 146 286 197 q 530 96 401 96 q 675 113 604 96 q 810 163 746 130 l 784 31 q 637 -7 707 5 q 503 -20 567 -20 q 227 62 313 -20 q 168 294 139 144 q 256 458 187 392 q 426 546 323 525 z "},"Ƒ":{"ha":799,"x_min":-197,"x_max":844,"o":"m 262 1013 l 844 1013 l 821 897 l 376 897 l 318 599 l 720 599 l 697 484 l 296 484 l 216 71 q 94 -195 180 -113 q -145 -278 9 -278 l -197 -278 l -175 -163 l -132 -163 q 6 -112 -41 -163 q 79 71 53 -61 l 262 1013 z "},"ƒ":{"ha":489,"x_min":-218,"x_max":646,"o":"m 646 1055 l 626 951 l 507 951 q 408 924 439 951 q 363 827 376 897 l 350 760 l 555 760 l 536 663 l 331 663 l 193 -46 q 98 -231 169 -173 q -100 -289 28 -289 l -218 -289 l -198 -185 l -79 -185 q 20 -158 -12 -185 q 65 -60 52 -131 l 205 663 l 86 663 l 105 760 l 224 760 l 235 812 q 330 997 259 939 q 528 1055 400 1055 l 646 1055 z "},"Ɠ":{"ha":1076,"x_min":54,"x_max":1271,"o":"m 732 144 l 785 416 l 561 416 l 583 529 l 943 529 l 858 94 q 667 9 768 38 q 456 -20 565 -20 q 113 119 219 -20 q 54 505 5 258 q 262 892 102 753 q 661 1031 423 1031 q 844 1006 760 1031 q 872 998 859 1002 q 979 1200 909 1133 q 1219 1283 1065 1283 l 1271 1283 l 1249 1168 l 1206 1168 q 1067 1117 1115 1168 q 995 935 1020 1066 l 966 789 q 824 886 903 853 q 650 918 745 918 q 351 814 465 918 q 198 505 238 711 q 231 197 158 300 q 490 93 304 93 q 622 106 563 93 q 732 144 682 118 z "},"Ɣ":{"ha":954,"x_min":132,"x_max":1075,"o":"m 372 -176 q 477 -63 477 -176 q 433 137 477 -16 l 341 -7 q 300 -123 300 -74 q 311 -154 300 -145 q 372 -176 336 -176 m 539 285 q 615 -58 615 47 q 612 -94 615 -78 q 534 -233 594 -189 q 350 -292 455 -292 q 189 -233 245 -292 q 159 -147 159 -202 q 166 -86 159 -123 q 231 50 173 -50 q 385 285 289 149 l 132 1013 l 283 1013 l 490 428 l 924 1013 l 1075 1013 l 539 285 z "},"ƕ":{"ha":1367,"x_min":23,"x_max":1246,"o":"m 546 778 q 760 565 760 778 q 749 458 760 517 l 713 275 q 703 191 703 224 q 713 140 703 157 q 798 106 731 106 q 803 106 800 106 l 838 106 q 1009 173 939 109 q 1101 346 1080 238 q 1114 467 1114 414 q 988 659 1114 623 l 1008 761 q 1246 492 1246 730 q 1230 357 1246 431 q 1081 96 1196 191 q 816 0 966 0 l 768 0 q 602 68 642 0 q 578 164 578 109 q 589 275 578 219 l 623 454 q 631 532 631 497 q 497 669 631 669 q 325 605 396 669 q 233 429 254 541 l 149 0 l 24 0 l 229 1055 l 354 1055 l 274 642 q 546 778 389 778 z "},"Ɩ":{"ha":491,"x_min":106,"x_max":406,"o":"m 106 349 l 235 1013 l 372 1013 l 243 349 q 245 166 217 217 q 363 115 272 115 l 406 115 l 383 0 l 331 0 q 123 83 177 0 q 106 349 70 165 z "},"Ɨ":{"ha":410,"x_min":1,"x_max":416,"o":"m 235 1013 l 372 1013 l 286 572 l 416 572 l 397 475 l 267 475 l 175 0 l 38 0 l 130 475 l 1 475 l 20 572 l 149 572 l 235 1013 z "},"Ƙ":{"ha":1036,"x_min":36,"x_max":1101,"o":"m 981 825 q 983 844 983 835 q 968 889 983 869 q 923 916 949 916 q 846 892 876 916 l 406 541 l 840 0 l 659 0 l 268 488 l 173 0 l 36 0 l 233 1013 l 370 1013 l 287 585 l 783 977 q 928 1031 851 1031 q 1066 968 1021 1031 q 1101 867 1101 922 q 1097 832 1101 850 l 1080 743 l 964 743 l 981 825 z "},"ƙ":{"ha":804,"x_min":24,"x_max":828,"o":"m 181 812 q 277 997 205 939 q 475 1055 347 1055 l 593 1055 l 573 951 l 454 951 q 355 924 387 951 q 310 827 324 897 l 233 432 l 669 760 l 828 760 l 357 404 l 698 0 l 535 0 l 221 371 l 149 0 l 24 0 l 181 812 z "},"ƚ":{"ha":386,"x_min":-3,"x_max":385,"o":"m 233 1055 l 358 1055 l 264 572 l 385 572 l 366 475 l 245 475 l 153 0 l 28 0 l 121 475 l -3 475 l 16 572 l 140 572 l 233 1055 z "},"ƛ":{"ha":822,"x_min":-61,"x_max":743,"o":"m -61 0 l 414 728 l 390 856 l 173 787 l 164 854 l 378 922 l 353 1055 l 489 1055 l 506 962 l 733 1032 l 743 966 l 517 896 l 678 0 l 546 0 l 442 562 l 71 0 l -61 0 z "},"Ɯ":{"ha":1353,"x_min":83,"x_max":1342,"o":"m 565 144 q 429 20 502 60 q 268 -20 356 -20 q 101 64 149 -20 q 83 300 53 146 l 221 1013 l 359 1013 l 222 307 q 216 144 197 180 q 324 92 245 92 q 490 156 421 92 q 581 332 559 220 l 713 1013 l 850 1013 l 713 307 q 720 144 692 197 q 829 92 749 92 q 982 156 913 92 q 1072 332 1050 221 l 1204 1013 l 1342 1013 l 1145 -1 l 1007 -1 l 1030 117 q 908 14 974 47 q 760 -20 842 -20 q 627 22 677 -20 q 565 144 577 64 z "},"Ɲ":{"ha":1039,"x_min":-197,"x_max":1028,"o":"m 262 1013 l 446 1013 l 730 165 l 895 1013 l 1028 1013 l 831 0 l 647 0 l 363 847 l 212 71 q 94 -194 176 -115 q -145 -278 7 -278 l -197 -278 l -175 -163 l -132 -163 q 6 -112 -41 -163 q 79 71 53 -61 l 262 1013 z "},"ƞ":{"ha":880,"x_min":79,"x_max":804,"o":"m 804 458 l 659 -289 l 534 -289 l 678 454 q 667 616 699 562 q 552 669 636 669 q 380 605 451 669 q 288 429 309 541 l 204 0 l 79 0 l 227 760 l 352 760 l 329 642 q 454 744 387 710 q 601 778 522 778 q 783 697 732 778 q 804 458 834 616 z "},"Ɵ":{"ha":1093,"x_min":56,"x_max":1038,"o":"m 456 -20 q 162 91 269 -20 q 56 393 56 201 q 97 618 56 503 q 212 822 139 732 q 404 979 298 927 q 637 1031 510 1031 q 930 921 823 1031 q 1038 623 1038 812 q 997 393 1038 506 q 880 189 956 281 q 689 32 793 83 q 456 -20 584 -20 m 866 481 l 218 481 q 209 378 209 426 q 252 203 209 274 q 467 92 317 92 q 721 199 616 92 q 866 481 826 307 m 883 597 q 884 636 884 617 q 842 808 884 736 q 628 920 777 920 q 369 808 479 920 q 246 597 288 726 l 883 597 z "},"Ơ":{"ha":1268,"x_min":47,"x_max":1143,"o":"m 852 877 l 868 958 q 930 912 903 927 q 979 898 958 898 q 1029 917 1010 898 q 1055 972 1048 935 q 1058 1015 1059 994 q 1051 1057 1057 1036 l 1141 1057 q 1142 1008 1143 1031 q 1137 964 1141 985 q 1084 843 1121 882 q 984 804 1047 804 q 919 822 951 804 q 852 877 887 840 m 625 920 q 427 865 513 920 q 277 699 340 810 q 215 547 236 627 q 193 386 193 467 q 261 168 193 245 q 452 92 328 92 q 650 147 563 92 q 799 311 737 202 q 862 465 840 385 q 884 625 884 545 q 816 843 884 766 q 625 920 748 920 m 448 -20 q 154 91 261 -20 q 47 393 47 201 q 89 618 47 503 q 204 822 131 732 q 396 979 290 927 q 629 1031 502 1031 q 922 921 815 1031 q 1029 623 1029 812 q 989 393 1029 506 q 872 189 948 281 q 681 32 785 83 q 448 -20 576 -20 z "},"ơ":{"ha":850,"x_min":67,"x_max":913,"o":"m 623 667 l 638 747 q 701 702 673 717 q 749 688 728 688 q 799 706 780 688 q 825 762 818 725 q 828 804 829 783 q 821 846 827 825 l 911 846 q 912 798 913 821 q 907 754 911 774 q 854 632 891 671 q 754 593 817 593 q 689 611 722 593 q 623 667 657 629 m 356 -20 q 145 63 222 -20 q 67 288 67 145 q 94 456 67 370 q 163 600 121 542 q 313 734 231 691 q 500 778 396 778 q 710 697 630 778 q 789 486 789 616 q 763 307 789 396 q 694 158 736 217 q 545 24 627 67 q 356 -20 462 -20 m 197 292 q 240 137 197 189 q 370 86 283 86 q 578 196 496 86 q 661 473 661 305 q 616 622 661 572 q 487 672 572 672 q 361 639 416 672 q 263 539 307 606 q 214 425 231 489 q 197 292 197 360 z "},"Ƣ":{"ha":1303,"x_min":78,"x_max":1213,"o":"m 628 920 q 369 808 479 920 q 222 505 260 697 q 252 203 185 314 q 467 92 317 92 q 694 203 585 92 l 812 808 q 628 920 740 920 m 947 0 l 1076 664 q 1074 846 1101 795 q 964 897 1046 897 l 813 123 q 445 -20 658 -20 q 132 123 231 -20 q 78 505 31 265 q 280 888 125 745 q 650 1031 436 1031 q 787 1013 726 1031 l 987 1013 q 1195 930 1141 1013 q 1213 664 1248 847 l 1084 0 l 947 0 z "},"ƣ":{"ha":1023,"x_min":103,"x_max":975,"o":"m 509 672 q 334 594 409 673 q 235 379 261 515 q 251 164 208 243 q 395 86 294 86 q 537 146 496 86 l 627 608 q 509 672 610 672 m 700 -289 l 850 484 q 851 621 870 588 q 760 654 831 654 l 650 87 q 374 -20 536 -20 q 138 87 210 -20 q 103 379 66 193 q 252 672 139 566 q 529 778 366 778 q 648 760 597 778 l 795 760 q 960 694 918 760 q 975 484 1003 629 l 825 -289 l 700 -289 z "},"Ƥ":{"ha":905,"x_min":71,"x_max":996,"o":"m 516 900 l 442 519 l 614 519 q 772 569 710 519 q 852 710 833 618 q 827 850 869 801 q 688 900 784 900 l 516 900 m 710 1013 q 953 936 880 1013 q 996 710 1025 859 q 865 484 967 560 q 593 407 763 407 l 420 407 l 341 0 l 204 0 l 379 900 q 235 862 292 900 q 183 765 197 836 l 177 732 l 71 732 l 80 779 q 180 958 104 902 q 401 1013 256 1013 l 710 1013 z "},"ƥ":{"ha":882,"x_min":-5,"x_max":805,"o":"m 675 379 q 661 595 702 517 q 520 673 619 673 q 349 595 421 673 q 251 379 277 517 q 265 163 224 241 q 406 85 307 85 q 576 163 505 85 q 675 379 648 241 m 338 827 l 302 644 q 421 745 355 712 q 571 778 488 778 q 774 668 709 778 q 805 379 840 558 q 663 90 770 200 q 416 -20 555 -20 q 279 14 333 -20 q 199 114 225 46 l 121 -289 l -5 -289 l 210 812 q 304 997 234 939 q 503 1055 375 1055 l 621 1055 l 601 951 l 481 951 q 383 924 414 951 q 338 827 351 897 z "},"Ʀ":{"ha":965,"x_min":55,"x_max":823,"o":"m 526 833 q 823 619 823 833 q 814 542 823 584 q 739 383 795 446 q 593 296 682 320 q 724 98 673 267 l 809 -179 l 662 -179 l 583 81 q 512 216 553 182 q 390 249 471 249 l 241 249 l 193 0 l 56 0 l 252 1013 l 389 1013 l 354 833 l 526 833 m 332 721 l 259 342 l 431 342 q 589 391 527 342 q 668 532 650 441 q 673 582 673 558 q 644 671 673 637 q 505 721 601 721 l 332 721 z "},"Ƨ":{"ha":882,"x_min":3,"x_max":806,"o":"m 200 979 q 359 1018 282 1005 q 507 1031 435 1031 q 752 954 673 1031 q 806 742 831 876 q 702 561 783 626 q 461 465 621 496 l 375 449 q 212 386 267 428 q 144 269 159 344 q 182 138 127 184 q 354 92 237 92 q 516 115 431 92 q 693 186 601 139 l 666 45 q 489 -3 573 13 q 332 -20 404 -20 q 58 56 142 -20 q 3 279 -26 132 q 114 476 27 403 q 360 579 201 550 l 446 596 q 610 651 563 617 q 670 753 657 686 q 633 876 686 833 q 469 920 581 920 q 332 901 405 920 q 174 846 259 883 l 200 979 z "},"ƨ":{"ha":724,"x_min":15,"x_max":657,"o":"m 159 737 q 277 768 214 758 q 409 778 340 778 q 614 720 549 778 q 657 554 678 661 q 578 415 640 466 q 397 340 517 365 l 351 330 q 191 278 231 305 q 142 200 151 251 q 172 115 131 145 q 302 85 214 85 q 439 103 368 85 q 585 157 509 121 l 560 28 q 414 -8 483 4 q 285 -20 346 -20 q 66 42 138 -20 q 15 210 -5 104 q 99 354 33 302 q 304 435 165 406 l 349 444 q 491 491 453 467 q 538 559 529 516 q 508 645 549 616 q 374 673 467 673 q 253 660 313 673 q 136 619 194 646 l 159 737 z "},"Ʃ":{"ha":878,"x_min":38,"x_max":875,"o":"m 218 115 l 713 115 l 690 0 l 38 0 l 60 115 l 467 538 l 212 897 l 235 1013 l 875 1013 l 852 897 l 370 897 l 625 541 l 218 115 z "},"ƪ":{"ha":467,"x_min":-81,"x_max":473,"o":"m 217 871 q 209 917 218 901 q 118 949 193 949 q 24 905 34 949 q 96 871 15 871 l 217 871 m 330 766 l 168 -60 q 176 -158 155 -130 q 263 -185 195 -185 l 382 -185 l 362 -289 l 244 -289 q 68 -231 113 -289 q 45 -46 22 -168 l 203 766 l 75 766 q -81 909 -109 766 q 153 1055 -52 1055 q 319 990 275 1055 q 344 871 347 947 l 473 871 l 453 766 l 330 766 z "},"ƫ":{"ha":545,"x_min":100,"x_max":592,"o":"m 377 975 l 335 760 l 592 760 l 574 663 l 317 663 l 236 250 q 239 131 218 157 q 337 104 259 104 l 465 104 l 441 -14 q 345 -224 414 -159 q 155 -289 277 -289 l 107 -289 l 128 -183 l 161 -183 q 264 -151 233 -183 q 317 -14 297 -117 l 319 0 l 317 0 q 127 54 172 0 q 111 250 83 108 l 191 663 l 100 663 l 118 760 l 210 760 l 252 975 l 377 975 z "},"Ƭ":{"ha":848,"x_min":60,"x_max":951,"o":"m 368 897 q 224 862 277 897 q 172 765 186 836 l 166 732 l 60 732 l 69 779 q 169 958 93 902 q 390 1013 245 1013 l 951 1013 l 928 897 l 569 897 l 395 0 l 257 0 l 431 897 l 368 897 z "},"ƭ":{"ha":545,"x_min":64,"x_max":595,"o":"m 184 812 q 279 997 209 939 q 477 1055 349 1055 l 595 1055 l 575 951 l 456 951 q 357 924 389 951 q 313 827 326 897 l 299 760 l 556 760 l 538 663 l 281 663 l 200 250 q 203 131 182 157 q 301 104 223 104 l 429 104 l 409 0 l 281 0 q 92 54 136 0 q 75 250 47 108 l 155 663 l 64 663 l 82 760 l 174 760 l 184 812 z "},"Ʈ":{"ha":848,"x_min":99,"x_max":978,"o":"m 458 897 l 99 897 l 121 1013 l 978 1013 l 956 897 l 596 897 l 435 71 q 437 -112 410 -62 q 555 -163 464 -163 l 597 -163 l 575 -278 l 523 -278 q 315 -195 369 -278 q 298 71 262 -113 l 458 897 z "},"Ư":{"ha":1164,"x_min":77,"x_max":1187,"o":"m 897 877 l 912 958 q 975 912 947 927 q 1023 898 1002 898 q 1073 917 1054 898 q 1099 972 1092 935 q 1102 1015 1103 994 q 1095 1057 1101 1036 l 1185 1057 q 1186 1008 1187 1031 q 1181 964 1185 985 q 1128 843 1165 882 q 1028 804 1091 804 q 963 822 996 804 q 897 877 931 840 m 212 1026 l 349 1026 l 230 411 q 219 343 222 370 q 216 296 216 316 q 269 154 216 202 q 422 105 321 105 q 626 177 553 105 q 730 411 699 249 l 849 1026 l 987 1026 l 865 394 q 713 92 825 189 q 406 -6 601 -6 q 166 70 254 -6 q 77 277 77 146 q 81 331 77 301 q 91 394 84 360 l 212 1026 z "},"ư":{"ha":880,"x_min":81,"x_max":1000,"o":"m 94 301 l 183 760 l 309 760 l 220 306 q 210 249 213 273 q 207 210 207 225 q 242 120 207 152 q 342 89 277 89 q 515 157 442 89 q 611 339 589 224 l 694 760 l 819 760 l 672 0 l 547 0 l 572 119 q 447 17 519 53 q 292 -20 374 -20 q 136 35 192 -20 q 81 187 81 90 q 84 238 81 208 q 94 301 87 269 m 710 674 l 726 755 q 788 710 761 724 q 836 695 815 695 q 886 714 867 695 q 913 769 905 732 q 916 812 917 791 q 909 854 915 833 l 999 854 q 1000 805 1001 828 q 995 762 999 782 q 942 640 979 679 q 842 601 905 601 q 777 619 809 601 q 710 674 745 637 z "},"Ʊ":{"ha":1061,"x_min":58,"x_max":1108,"o":"m 1084 884 l 867 884 q 987 688 958 789 q 990 456 1015 588 q 793 114 949 247 q 431 -20 636 -20 q 120 114 224 -20 q 58 463 16 248 q 151 689 82 588 q 345 884 220 790 l 129 884 l 153 1005 l 559 1005 l 536 884 q 313 706 402 819 q 197 456 224 593 q 236 195 165 294 q 454 97 307 97 q 709 195 600 97 q 849 456 817 294 q 830 706 876 593 q 677 884 785 819 l 701 1005 l 1108 1005 l 1084 884 z "},"Ʋ":{"ha":1001,"x_min":106,"x_max":942,"o":"m 406 115 q 661 214 552 115 q 801 475 770 312 q 783 724 827 612 q 690 857 753 798 l 699 903 l 820 903 q 939 707 910 807 q 942 475 968 606 q 745 132 901 265 q 383 -1 589 -1 l 331 0 q 123 83 174 4 q 106 349 71 165 l 235 1013 l 372 1013 l 243 349 q 245 166 217 217 q 363 115 272 115 l 406 115 z "},"Ƴ":{"ha":1033,"x_min":94,"x_max":1096,"o":"m 918 916 q 863 907 880 916 q 820 873 835 890 l 486 482 l 393 0 l 255 0 l 349 482 l 94 1013 l 241 1013 l 441 596 l 734 939 q 924 1031 813 1031 q 1061 968 1016 1031 q 1096 867 1096 922 q 1093 832 1096 850 l 1075 743 l 960 743 l 976 825 q 978 844 978 835 q 964 889 978 869 q 918 916 944 916 z "},"ƴ":{"ha":1015,"x_min":6,"x_max":1080,"o":"m 386 -71 q 248 -248 307 -206 q 106 -289 190 -289 l 6 -289 l 26 -184 l 100 -184 q 184 -160 151 -184 q 270 -45 218 -136 l 303 12 l 142 760 l 274 760 l 395 165 l 680 643 q 740 713 701 678 q 904 778 812 778 q 1043 713 993 778 q 1080 603 1080 665 q 1076 557 1080 581 l 1061 480 l 940 480 l 955 557 q 957 577 957 568 q 941 625 957 604 q 880 654 918 654 q 808 625 841 654 q 781 595 791 612 l 386 -71 z "},"Ƶ":{"ha":951,"x_min":-36,"x_max":972,"o":"m 176 1013 l 972 1013 l 951 908 l 615 572 l 806 572 l 787 475 l 517 475 l 157 115 l 813 115 l 791 0 l -36 0 l -16 104 l 355 475 l 153 475 l 172 572 l 453 572 l 779 897 l 154 897 l 176 1013 z "},"ƶ":{"ha":729,"x_min":-14,"x_max":743,"o":"m 151 760 l 743 760 l 721 646 l 512 448 l 644 448 l 625 350 l 410 350 l 146 100 l 615 100 l 595 0 l -14 0 l 8 114 l 257 350 l 113 350 l 132 448 l 359 448 l 583 660 l 131 660 l 151 760 z "},"Ʒ":{"ha":925,"x_min":32,"x_max":905,"o":"m 381 73 q 588 123 511 73 q 685 271 666 174 q 650 412 703 362 q 484 462 596 462 l 366 462 l 389 574 l 712 897 l 189 897 l 211 1013 l 905 1013 l 884 899 l 542 576 q 693 538 614 576 q 798 435 754 509 q 821 271 840 365 q 750 111 801 169 l 726 83 q 673 39 708 64 q 364 -43 554 -43 q 201 -30 283 -43 q 32 7 118 -18 l 58 140 q 206 90 123 106 q 381 73 288 73 z "},"Ƹ":{"ha":925,"x_min":21,"x_max":919,"o":"m 384 73 q 566 90 477 73 q 733 140 655 106 l 707 7 q 524 -30 612 -18 q 356 -43 437 -43 q 79 39 166 -43 q 43 83 53 64 l 30 111 q 21 271 1 169 q 108 435 39 365 q 252 538 180 509 q 418 576 347 576 l 203 899 l 224 1013 l 919 1013 l 897 897 l 373 897 l 572 574 l 549 462 l 431 462 q 247 412 319 462 q 157 271 175 362 q 196 123 138 174 q 384 73 254 73 z "},"ƹ":{"ha":802,"x_min":29,"x_max":825,"o":"m 427 323 l 211 646 l 233 760 l 825 760 l 806 660 l 354 660 l 580 321 l 557 209 l 439 209 q 255 159 328 209 q 165 18 182 108 q 204 -130 146 -79 q 391 -180 262 -180 q 536 -163 465 -180 q 670 -113 607 -146 l 644 -245 q 497 -283 568 -271 q 364 -296 428 -296 q 87 -214 174 -296 q 79 -206 83 -210 l 61 -184 q 29 18 5 -106 q 116 182 47 112 q 260 285 189 256 q 427 323 355 323 z "},"ƺ":{"ha":729,"x_min":-12,"x_max":740,"o":"m 320 -186 q 432 -172 377 -186 q 549 -127 488 -157 l 526 -249 q 406 -279 462 -271 q 280 -289 346 -289 q -12 -135 -12 -289 q -8 -98 -12 -118 q 305 99 23 63 q 516 191 503 124 q 517 205 517 199 q 373 275 517 275 l 176 275 l 580 660 l 127 660 l 147 760 l 740 760 l 718 646 l 423 366 q 645 243 645 366 q 642 211 645 228 q 284 -9 606 24 q 115 -92 128 -26 q 114 -105 114 -99 q 320 -186 114 -186 z "},"ƻ":{"ha":884,"x_min":1,"x_max":783,"o":"m 189 115 l 667 115 l 644 0 l 1 0 l 24 115 l 279 332 l 372 412 l 138 412 l 157 509 l 484 509 q 598 632 564 583 q 644 733 634 684 q 613 865 660 814 q 475 916 566 916 q 335 893 411 916 q 169 825 259 871 l 195 964 q 360 1014 285 997 q 495 1031 435 1031 q 730 952 652 1031 q 783 742 809 873 q 736 624 771 680 q 644 509 707 574 l 714 509 l 695 412 l 535 412 l 496 378 l 189 115 z "},"Ƽ":{"ha":925,"x_min":22,"x_max":869,"o":"m 543 576 q 694 538 613 576 q 799 435 755 509 q 822 271 840 365 q 751 111 802 169 l 726 83 q 673 39 709 64 q 365 -43 555 -43 q 79 39 167 -43 q 44 83 54 64 l 31 111 q 22 271 1 169 l 158 271 q 197 123 139 174 q 383 73 254 73 q 589 123 511 73 q 686 271 667 174 q 650 412 703 362 q 485 462 597 462 l 269 462 l 269 461 l 132 461 l 239 1013 l 869 1013 l 846 897 l 353 897 l 291 575 l 543 576 z "},"ƽ":{"ha":802,"x_min":-22,"x_max":764,"o":"m 416 323 q 568 285 488 323 q 673 182 629 256 q 696 18 714 112 q 625 -142 675 -84 l 600 -170 q 547 -214 583 -189 q 239 -296 429 -296 q 110 -283 175 -296 q -22 -245 45 -271 l 3 -113 q 119 -163 54 -146 q 257 -180 183 -180 q 463 -130 385 -180 q 559 18 541 -79 q 524 159 577 109 q 359 209 471 209 l 119 209 l 141 323 l 142 323 l 229 760 l 764 760 l 742 644 l 331 644 l 267 323 l 416 323 z "},"ƾ":{"ha":709,"x_min":-28,"x_max":597,"o":"m 408 677 l 391 592 q 562 491 502 572 q 597 298 620 413 q 482 87 573 172 q 182 -20 368 -20 q 72 -7 124 -20 q -28 28 19 4 l -5 144 q 93 101 39 117 q 197 86 143 86 q 401 163 319 86 q 466 298 448 208 q 450 416 479 364 q 276 493 406 493 l 234 493 l 271 677 l 116 677 l 138 788 l 293 788 l 330 975 l 467 975 l 430 788 l 587 788 l 565 677 l 408 677 z "},"ƿ":{"ha":882,"x_min":-7,"x_max":837,"o":"m 158 -83 l 118 -289 l -7 -289 l 197 760 l 322 760 l 300 644 q 446 745 346 692 q 650 778 507 778 q 812 702 774 778 q 837 590 837 652 q 830 522 837 557 q 158 -83 774 233 m 182 41 q 692 481 660 312 q 699 542 699 515 q 680 616 699 589 q 572 660 652 660 l 569 660 q 271 498 420 660 q 182 41 227 269 z "},"ǀ":{"ha":410,"x_min":9,"x_max":400,"o":"m 263 1013 l 400 1013 l 146 -289 l 9 -289 l 263 1013 z "},"ǁ":{"ha":684,"x_min":9,"x_max":674,"o":"m 537 1013 l 674 1013 l 420 -289 l 283 -289 l 537 1013 m 263 1013 l 400 1013 l 146 -289 l 9 -289 l 263 1013 z "},"ǂ":{"ha":637,"x_min":-18,"x_max":672,"o":"m 378 1013 l 515 1013 l 434 594 l 672 594 l 650 480 l 412 480 l 380 317 l 618 317 l 595 202 l 357 202 l 262 -289 l 125 -289 l 220 202 l -18 202 l 5 317 l 243 317 l 275 480 l 37 480 l 59 594 l 297 594 l 378 1013 z "},"ǃ":{"ha":410,"x_min":37,"x_max":371,"o":"m 234 1013 l 371 1013 l 285 568 l 224 326 l 114 326 l 148 568 l 234 1013 m 71 172 l 209 172 l 176 0 l 37 0 l 71 172 z "},"Ǆ":{"ha":2021,"x_min":37,"x_max":2046,"o":"m 235 1013 l 529 1013 q 883 913 764 1013 q 1003 618 1003 814 q 958 369 1003 488 q 832 167 912 249 q 627 41 751 83 q 334 0 503 0 l 37 0 l 235 1013 m 350 900 l 197 113 l 376 113 q 732 245 606 113 q 859 618 859 377 q 777 832 859 764 q 522 900 696 900 l 350 900 m 1251 1013 l 2046 1013 l 2026 908 l 1242 115 l 1887 115 l 1866 0 l 1039 0 l 1059 104 l 1843 897 l 1230 897 l 1251 1013 m 1731 1109 l 1586 1109 l 1479 1289 l 1570 1289 l 1664 1168 l 1806 1289 l 1908 1289 l 1731 1109 z "},"ǅ":{"ha":1799,"x_min":37,"x_max":1824,"o":"m 235 1013 l 529 1013 q 883 913 764 1013 q 1003 618 1003 814 q 958 369 1003 488 q 832 167 912 249 q 627 41 751 83 q 334 0 503 0 l 37 0 l 235 1013 m 350 900 l 197 113 l 376 113 q 732 245 606 113 q 859 618 859 377 q 777 832 859 764 q 522 900 696 900 l 350 900 m 1231 760 l 1824 760 l 1801 646 l 1230 100 l 1702 100 l 1682 0 l 1065 0 l 1088 114 l 1659 660 l 1211 660 l 1231 760 m 1582 856 l 1482 856 l 1366 1111 l 1461 1111 l 1548 950 l 1704 1111 l 1799 1111 l 1582 856 z "},"ǆ":{"ha":1611,"x_min":64,"x_max":1636,"o":"m 581 114 q 462 14 530 48 q 310 -20 393 -20 q 130 58 196 -20 q 64 271 64 136 q 104 485 64 383 q 220 668 144 587 q 333 750 270 722 q 465 778 396 778 q 594 743 538 778 q 681 642 650 707 l 762 1055 l 888 1055 l 682 0 l 557 0 l 581 114 m 193 293 q 238 140 193 195 q 361 85 282 85 q 469 113 419 85 q 557 196 519 141 q 620 328 597 253 q 643 475 643 402 q 598 622 643 569 q 476 675 554 675 q 366 647 417 675 q 279 567 315 619 q 217 436 240 511 q 193 293 193 361 m 1043 760 l 1636 760 l 1613 646 l 1042 100 l 1514 100 l 1494 0 l 878 0 l 900 114 l 1472 660 l 1023 660 l 1043 760 m 1394 856 l 1295 856 l 1178 1111 l 1274 1111 l 1360 950 l 1516 1111 l 1611 1111 l 1394 856 z "},"Ǉ":{"ha":1183,"x_min":37,"x_max":1143,"o":"m 1006 1013 l 1143 1013 l 960 71 q 839 -196 924 -113 q 600 -278 753 -278 l 546 -278 l 568 -163 l 611 -163 q 750 -111 703 -163 q 823 71 798 -58 l 1006 1013 m 233 1013 l 371 1013 l 197 114 l 690 114 l 668 0 l 37 0 l 233 1013 z "},"ǈ":{"ha":1160,"x_min":37,"x_max":1158,"o":"m 975 760 l 1100 760 l 950 -14 l 949 -17 q 892 -195 924 -146 q 803 -264 861 -240 q 664 -289 744 -289 l 617 -289 l 637 -183 l 669 -183 q 773 -153 743 -183 q 825 -14 804 -122 l 975 760 m 1034 1055 l 1158 1055 l 1128 897 l 1003 897 l 1034 1055 m 233 1013 l 371 1013 l 197 114 l 690 114 l 668 0 l 37 0 l 233 1013 z "},"ǉ":{"ha":772,"x_min":49,"x_max":770,"o":"m 587 760 l 712 760 l 562 -14 l 562 -17 q 504 -195 536 -146 q 415 -264 473 -240 q 276 -289 356 -289 l 229 -289 l 250 -183 l 281 -183 q 386 -153 355 -183 q 437 -14 416 -122 l 587 760 m 646 1055 l 770 1055 l 740 897 l 615 897 l 646 1055 m 254 1055 l 379 1055 l 174 0 l 49 0 l 254 1055 z "},"Ǌ":{"ha":1449,"x_min":37,"x_max":1409,"o":"m 1271 1013 l 1409 1013 l 1225 71 q 1104 -196 1189 -113 q 865 -278 1019 -278 l 811 -278 l 833 -163 l 876 -163 q 1015 -111 968 -163 q 1088 71 1063 -58 l 1271 1013 m 235 1013 l 419 1013 l 699 144 l 868 1013 l 1002 1013 l 804 0 l 619 0 l 340 873 l 171 0 l 37 0 l 235 1013 z "},"ǋ":{"ha":1425,"x_min":37,"x_max":1423,"o":"m 1240 760 l 1365 760 l 1215 -14 l 1215 -17 q 1157 -195 1190 -146 q 1068 -264 1126 -240 q 929 -289 1009 -289 l 882 -289 l 903 -183 l 935 -183 q 1039 -153 1008 -183 q 1090 -14 1069 -122 l 1240 760 m 1299 1055 l 1423 1055 l 1393 897 l 1268 897 l 1299 1055 m 235 1013 l 419 1013 l 699 144 l 868 1013 l 1002 1013 l 804 0 l 619 0 l 340 873 l 171 0 l 37 0 l 235 1013 z "},"ǌ":{"ha":1266,"x_min":49,"x_max":1265,"o":"m 1082 760 l 1206 760 l 1057 -14 l 1056 -17 q 998 -195 1031 -146 q 909 -264 968 -240 q 770 -289 850 -289 l 724 -289 l 744 -183 l 776 -183 q 880 -153 849 -183 q 932 -14 911 -122 l 1082 760 m 1140 1055 l 1265 1055 l 1234 897 l 1109 897 l 1140 1055 m 774 458 l 685 0 l 559 0 l 648 454 q 658 510 654 486 q 661 549 661 534 q 625 637 661 606 q 525 669 589 669 q 352 603 425 669 q 257 421 279 536 l 174 0 l 49 0 l 196 760 l 321 760 l 296 640 q 421 742 348 706 q 575 778 494 778 q 731 724 675 778 q 786 571 786 669 q 783 519 786 547 q 774 458 780 491 z "},"Ǎ":{"ha":950,"x_min":-74,"x_max":854,"o":"m 511 1013 l 667 1013 l 854 0 l 711 0 l 669 260 l 214 260 l 71 0 l -74 0 l 511 1013 m 561 878 l 277 374 l 648 374 l 561 878 m 671 1109 l 526 1109 l 419 1289 l 510 1289 l 604 1168 l 746 1289 l 848 1289 l 671 1109 z "},"ǎ":{"ha":851,"x_min":57,"x_max":772,"o":"m 555 856 l 456 856 l 339 1111 l 435 1111 l 521 950 l 677 1111 l 772 1111 l 555 856 m 746 433 l 661 0 l 536 0 l 559 115 q 434 14 505 47 q 278 -20 364 -20 q 119 40 181 -20 q 57 192 57 99 q 163 402 57 325 q 456 479 269 479 l 629 479 l 636 513 q 638 525 637 518 q 639 545 639 531 q 590 638 639 605 q 452 672 541 672 q 327 656 391 672 q 195 610 262 641 l 216 725 q 354 765 287 751 q 485 778 422 778 q 689 720 619 778 q 760 550 760 661 q 756 497 760 528 q 746 433 753 467 m 611 382 l 486 382 q 259 341 333 382 q 186 214 186 300 q 223 120 186 154 q 328 86 261 86 q 505 159 429 86 q 606 354 581 232 l 611 382 z "},"Ǐ":{"ha":410,"x_min":37,"x_max":574,"o":"m 235 1013 l 372 1013 l 175 0 l 37 0 l 235 1013 m 397 1109 l 252 1109 l 145 1289 l 236 1289 l 330 1168 l 472 1289 l 574 1289 l 397 1109 z "},"ǐ":{"ha":386,"x_min":49,"x_max":555,"o":"m 338 856 l 239 856 l 122 1111 l 218 1111 l 304 950 l 460 1111 l 555 1111 l 338 856 m 197 760 l 322 760 l 174 0 l 49 0 l 197 760 z "},"Ǒ":{"ha":1093,"x_min":56,"x_max":1038,"o":"m 633 920 q 435 865 521 920 q 285 699 349 810 q 223 547 244 627 q 201 386 201 467 q 269 168 201 245 q 460 92 336 92 q 658 147 571 92 q 807 311 745 202 q 870 465 848 385 q 892 625 892 545 q 824 843 892 766 q 633 920 756 920 m 456 -20 q 162 91 269 -20 q 56 393 56 201 q 97 618 56 503 q 212 822 139 732 q 404 979 298 927 q 637 1031 510 1031 q 930 921 823 1031 q 1038 623 1038 812 q 997 393 1038 506 q 880 189 956 281 q 689 32 793 83 q 456 -20 584 -20 m 751 1109 l 607 1109 l 500 1289 l 591 1289 l 685 1168 l 827 1289 l 929 1289 l 751 1109 z "},"ǒ":{"ha":850,"x_min":64,"x_max":830,"o":"m 613 856 l 513 856 l 397 1111 l 492 1111 l 578 950 l 735 1111 l 830 1111 l 613 856 m 353 -20 q 141 63 219 -20 q 64 288 64 145 q 91 456 64 370 q 160 600 117 542 q 310 734 227 691 q 497 778 393 778 q 706 697 627 778 q 786 486 786 616 q 760 307 786 396 q 690 158 733 217 q 541 24 624 67 q 353 -20 458 -20 m 193 292 q 236 137 193 189 q 367 86 279 86 q 575 196 492 86 q 657 473 657 305 q 613 622 657 572 q 484 672 569 672 q 358 639 413 672 q 260 539 303 606 q 211 425 228 489 q 193 292 193 360 z "},"Ǔ":{"ha":1017,"x_min":81,"x_max":990,"o":"m 215 1013 l 353 1013 l 233 397 q 223 329 226 356 q 220 282 220 302 q 272 140 220 189 q 425 92 324 92 q 629 163 556 92 q 733 397 702 235 l 852 1013 l 990 1013 l 868 380 q 716 78 828 176 q 410 -20 604 -20 q 169 57 258 -20 q 81 264 81 133 q 84 317 81 288 q 94 380 87 347 l 215 1013 m 685 1109 l 541 1109 l 433 1289 l 524 1289 l 618 1168 l 760 1289 l 863 1289 l 685 1109 z "},"ǔ":{"ha":880,"x_min":79,"x_max":818,"o":"m 576 856 l 476 856 l 359 1111 l 455 1111 l 541 950 l 698 1111 l 793 1111 l 576 856 m 93 301 l 182 760 l 307 760 l 218 306 q 209 249 212 273 q 205 210 205 225 q 241 120 205 152 q 340 89 276 89 q 514 157 441 89 q 610 339 587 224 l 693 760 l 818 760 l 671 0 l 546 0 l 571 119 q 445 17 518 53 q 290 -20 372 -20 q 135 35 191 -20 q 79 187 79 90 q 83 238 79 208 q 93 301 86 269 z "},"Ǖ":{"ha":1017,"x_min":81,"x_max":990,"o":"m 215 1013 l 353 1013 l 233 397 q 223 329 226 356 q 220 282 220 302 q 272 140 220 189 q 425 92 324 92 q 629 163 556 92 q 733 397 702 235 l 852 1013 l 990 1013 l 868 380 q 716 78 828 176 q 410 -20 604 -20 q 169 57 258 -20 q 81 264 81 133 q 84 317 81 288 q 94 380 87 347 l 215 1013 z "},"ǖ":{"ha":880,"x_min":79,"x_max":818,"o":"m 385 1249 l 790 1249 l 770 1148 l 365 1148 l 385 1249 m 93 301 l 182 760 l 307 760 l 218 306 q 209 249 212 273 q 205 210 205 225 q 241 120 205 152 q 340 89 276 89 q 514 157 441 89 q 610 339 587 224 l 693 760 l 818 760 l 671 0 l 546 0 l 571 119 q 445 17 518 53 q 290 -20 372 -20 q 135 35 191 -20 q 79 187 79 90 q 83 238 79 208 q 93 301 86 269 m 354 1053 l 493 1053 l 465 916 l 328 916 l 354 1053 m 619 1053 l 757 1053 l 730 916 l 593 916 l 619 1053 z "},"Ǘ":{"ha":1017,"x_min":81,"x_max":990,"o":"m 215 1013 l 353 1013 l 233 397 q 223 329 226 356 q 220 282 220 302 q 272 140 220 189 q 425 92 324 92 q 629 163 556 92 q 733 397 702 235 l 852 1013 l 990 1013 l 868 380 q 716 78 828 176 q 410 -20 604 -20 q 169 57 258 -20 q 81 264 81 133 q 84 317 81 288 q 94 380 87 347 l 215 1013 z "},"ǘ":{"ha":880,"x_min":79,"x_max":818,"o":"m 93 301 l 182 760 l 307 760 l 218 306 q 209 249 212 273 q 205 210 205 225 q 241 120 205 152 q 340 89 276 89 q 514 157 441 89 q 610 339 587 224 l 693 760 l 818 760 l 671 0 l 546 0 l 571 119 q 445 17 518 53 q 290 -20 372 -20 q 135 35 191 -20 q 79 187 79 90 q 83 238 79 208 q 93 301 86 269 z "},"Ǚ":{"ha":1017,"x_min":81,"x_max":990,"o":"m 215 1013 l 353 1013 l 233 397 q 223 329 226 356 q 220 282 220 302 q 272 140 220 189 q 425 92 324 92 q 629 163 556 92 q 733 397 702 235 l 852 1013 l 990 1013 l 868 380 q 716 78 828 176 q 410 -20 604 -20 q 169 57 258 -20 q 81 264 81 133 q 84 317 81 288 q 94 380 87 347 l 215 1013 z "},"ǚ":{"ha":880,"x_min":79,"x_max":818,"o":"m 93 301 l 182 760 l 307 760 l 218 306 q 209 249 212 273 q 205 210 205 225 q 241 120 205 152 q 340 89 276 89 q 514 157 441 89 q 610 339 587 224 l 693 760 l 818 760 l 671 0 l 546 0 l 571 119 q 445 17 518 53 q 290 -20 372 -20 q 135 35 191 -20 q 79 187 79 90 q 83 238 79 208 q 93 301 86 269 z "},"Ǜ":{"ha":1017,"x_min":81,"x_max":990,"o":"m 215 1013 l 353 1013 l 233 397 q 223 329 226 356 q 220 282 220 302 q 272 140 220 189 q 425 92 324 92 q 629 163 556 92 q 733 397 702 235 l 852 1013 l 990 1013 l 868 380 q 716 78 828 176 q 410 -20 604 -20 q 169 57 258 -20 q 81 264 81 133 q 84 317 81 288 q 94 380 87 347 l 215 1013 z "},"ǜ":{"ha":880,"x_min":79,"x_max":818,"o":"m 93 301 l 182 760 l 307 760 l 218 306 q 209 249 212 273 q 205 210 205 225 q 241 120 205 152 q 340 89 276 89 q 514 157 441 89 q 610 339 587 224 l 693 760 l 818 760 l 671 0 l 546 0 l 571 119 q 445 17 518 53 q 290 -20 372 -20 q 135 35 191 -20 q 79 187 79 90 q 83 238 79 208 q 93 301 86 269 z "},"ǝ":{"ha":854,"x_min":71,"x_max":782,"o":"m 71 347 l 82 408 l 656 408 q 616 605 673 537 q 436 672 560 672 q 294 654 364 672 q 149 602 222 637 l 172 720 q 318 763 245 748 q 464 778 391 778 q 731 672 646 778 q 782 386 817 566 q 623 90 745 199 q 331 -20 502 -20 q 107 79 178 -20 q 71 347 37 178 m 188 311 q 214 147 170 208 q 350 86 258 86 q 528 145 454 86 q 633 311 603 204 l 188 311 z "},"Ǟ":{"ha":950,"x_min":-74,"x_max":870,"o":"m 511 1013 l 667 1013 l 854 0 l 711 0 l 669 260 l 214 260 l 71 0 l -74 0 l 511 1013 m 561 878 l 277 374 l 648 374 l 561 878 z "},"ǟ":{"ha":851,"x_min":57,"x_max":762,"o":"m 356 1249 l 762 1249 l 742 1148 l 336 1148 l 356 1249 m 746 433 l 661 0 l 536 0 l 559 115 q 434 14 505 47 q 278 -20 364 -20 q 119 40 181 -20 q 57 192 57 99 q 163 402 57 325 q 456 479 269 479 l 629 479 l 636 513 q 638 525 637 518 q 639 545 639 531 q 590 638 639 605 q 452 672 541 672 q 327 656 391 672 q 195 610 262 641 l 216 725 q 354 765 287 751 q 485 778 422 778 q 689 720 619 778 q 760 550 760 661 q 756 497 760 528 q 746 433 753 467 m 611 382 l 486 382 q 259 341 333 382 q 186 214 186 300 q 223 120 186 154 q 328 86 261 86 q 505 159 429 86 q 606 354 581 232 l 611 382 m 350 1053 l 489 1053 l 461 916 l 323 916 l 350 1053 m 615 1053 l 753 1053 l 726 916 l 589 916 l 615 1053 z "},"Ǡ":{"ha":950,"x_min":-74,"x_max":871,"o":"m 511 1013 l 667 1013 l 854 0 l 711 0 l 669 260 l 214 260 l 71 0 l -74 0 l 511 1013 m 561 878 l 277 374 l 648 374 l 561 878 z "},"ǡ":{"ha":851,"x_min":57,"x_max":795,"o":"m 746 433 l 661 0 l 536 0 l 559 115 q 434 14 505 47 q 278 -20 364 -20 q 119 40 181 -20 q 57 192 57 99 q 163 402 57 325 q 456 479 269 479 l 629 479 l 636 513 q 638 525 637 518 q 639 545 639 531 q 590 638 639 605 q 452 672 541 672 q 327 656 391 672 q 195 610 262 641 l 216 725 q 354 765 287 751 q 485 778 422 778 q 689 720 619 778 q 760 550 760 661 q 756 497 760 528 q 746 433 753 467 m 611 382 l 486 382 q 259 341 333 382 q 186 214 186 300 q 223 120 186 154 q 328 86 261 86 q 505 159 429 86 q 606 354 581 232 l 611 382 z "},"Ǣ":{"ha":1353,"x_min":-62,"x_max":1381,"o":"m 632 905 l 304 374 l 615 374 l 720 905 l 632 905 m 1381 1013 l 1358 897 l 856 897 l 796 597 l 1279 597 l 1257 482 l 774 482 l 703 115 l 1218 115 l 1196 0 l 543 0 l 593 260 l 236 260 l 77 0 l -62 0 l 558 1013 l 1381 1013 m 771 1251 l 1177 1251 l 1157 1150 l 751 1150 l 771 1251 z "},"ǣ":{"ha":1382,"x_min":57,"x_max":1321,"o":"m 1196 448 q 1199 470 1198 458 q 1200 493 1200 481 q 1152 624 1200 576 q 1019 672 1103 672 q 855 613 926 672 q 747 447 784 555 l 1196 448 m 216 725 q 354 765 287 751 q 485 778 422 778 q 646 747 583 778 q 739 654 709 717 q 873 747 798 715 q 1039 778 949 778 q 1244 701 1168 778 q 1321 493 1321 623 q 1317 426 1321 462 q 1304 350 1312 391 l 724 350 q 718 309 720 324 q 717 283 717 294 q 775 138 717 189 q 939 86 833 86 q 1093 104 1020 86 q 1227 158 1166 123 l 1204 35 q 1065 -6 1137 7 q 920 -20 994 -20 q 729 19 806 -20 q 614 135 652 58 q 470 18 545 55 q 306 -20 395 -20 q 122 36 188 -20 q 57 192 57 92 q 163 402 57 325 q 456 479 269 479 l 629 479 l 636 513 q 638 525 637 518 q 639 545 639 531 q 590 638 639 605 q 452 672 541 672 q 327 656 391 672 q 195 610 262 641 l 216 725 m 611 382 l 486 382 q 259 341 333 382 q 186 214 186 300 q 223 120 186 154 q 328 86 261 86 q 505 159 429 86 q 606 354 581 232 l 611 382 m 609 1032 l 1015 1032 l 995 932 l 589 932 l 609 1032 z "},"Ǥ":{"ha":1076,"x_min":62,"x_max":1032,"o":"m 913 258 l 879 83 q 682 7 789 34 q 468 -20 576 -20 q 170 86 277 -20 q 62 380 62 192 q 127 678 62 537 q 309 914 193 820 q 467 1002 381 973 q 659 1031 553 1031 q 841 1006 753 1031 q 1007 935 928 983 l 979 789 q 836 886 918 852 q 661 920 754 920 q 471 879 553 920 q 325 751 389 838 q 239 579 270 678 q 207 376 207 479 q 279 163 207 235 q 496 92 352 92 q 635 107 568 92 q 758 151 702 122 l 780 258 l 624 258 l 643 318 l 791 318 l 811 416 l 586 416 l 607 529 l 966 529 l 925 318 l 1032 318 l 1013 258 l 913 258 z "},"ǥ":{"ha":882,"x_min":45,"x_max":828,"o":"m 640 481 q 597 623 640 573 q 473 673 553 673 q 379 654 424 673 q 302 599 334 634 q 222 461 251 541 q 193 298 193 382 q 237 155 193 205 q 363 104 281 104 q 561 212 481 104 q 640 481 640 319 m 525 -57 q 571 65 557 -5 l 582 122 q 460 31 530 62 q 311 0 391 0 q 130 76 196 0 q 64 286 64 153 q 104 492 64 391 q 216 671 144 593 q 328 750 264 722 q 463 778 393 778 q 596 742 539 778 q 681 642 653 707 l 703 760 l 828 760 l 699 94 q 652 -56 682 9 l 769 -57 l 747 -104 l 628 -104 q 556 -194 597 -157 q 272 -289 450 -289 q 150 -279 206 -289 q 45 -249 94 -269 l 68 -127 q 165 -172 114 -157 q 275 -186 217 -186 q 471 -121 394 -186 l 488 -104 l 280 -104 l 303 -57 l 525 -57 z "},"Ǧ":{"ha":1076,"x_min":62,"x_max":1007,"o":"m 758 151 l 811 416 l 586 416 l 607 529 l 966 529 l 879 83 q 682 7 789 34 q 468 -20 576 -20 q 170 86 277 -20 q 62 380 62 192 q 128 679 62 537 q 309 914 193 820 q 467 1002 381 973 q 659 1031 553 1031 q 841 1007 753 1031 q 1007 935 928 983 l 979 789 q 836 886 918 852 q 661 920 754 920 q 471 879 553 920 q 325 751 389 838 q 238 579 270 678 q 207 376 207 479 q 279 163 207 235 q 496 92 352 92 q 635 107 568 92 q 758 151 702 122 m 699 1109 l 555 1109 l 448 1289 l 538 1289 l 633 1168 l 774 1289 l 877 1289 l 699 1109 z "},"ǧ":{"ha":882,"x_min":45,"x_max":828,"o":"m 600 856 l 500 856 l 383 1111 l 479 1111 l 565 950 l 722 1111 l 817 1111 l 600 856 m 828 760 l 699 94 q 556 -194 661 -99 q 272 -289 450 -289 q 150 -279 206 -289 q 45 -249 94 -269 l 68 -127 q 165 -172 114 -157 q 275 -186 217 -186 q 470 -121 394 -186 q 571 65 547 -56 l 582 122 q 460 31 530 62 q 311 0 391 0 q 130 76 196 0 q 64 286 64 153 q 104 492 64 391 q 216 671 144 593 q 329 750 264 722 q 463 778 393 778 q 596 742 539 778 q 681 642 653 707 l 703 760 l 828 760 m 640 481 q 597 623 640 573 q 473 673 553 673 q 379 654 424 673 q 302 599 334 634 q 222 461 251 541 q 193 298 193 382 q 237 155 193 205 q 363 104 281 104 q 561 212 481 104 q 640 481 640 319 z "},"Ǩ":{"ha":911,"x_min":37,"x_max":1003,"o":"m 235 1013 l 372 1013 l 289 586 l 821 1013 l 1003 1013 l 401 529 l 842 0 l 675 0 l 271 493 l 175 0 l 37 0 l 235 1013 m 699 1109 l 555 1109 l 448 1289 l 538 1289 l 633 1168 l 774 1289 l 877 1289 l 699 1109 z "},"ǩ":{"ha":804,"x_min":49,"x_max":850,"o":"m 254 1055 l 379 1055 l 260 440 l 688 760 l 850 760 l 372 396 l 721 0 l 570 0 l 245 371 l 174 0 l 49 0 l 254 1055 m 419 1109 l 275 1109 l 168 1289 l 258 1289 l 353 1168 l 494 1289 l 597 1289 l 419 1109 z "},"Ǫ":{"ha":1093,"x_min":56,"x_max":1038,"o":"m 633 920 q 435 865 521 920 q 285 699 349 810 q 223 547 244 627 q 201 386 201 467 q 269 168 201 245 q 460 92 336 92 q 658 147 571 92 q 807 311 745 202 q 870 465 848 385 q 892 625 892 545 q 824 843 892 766 q 633 920 756 920 m 456 -20 q 162 91 269 -20 q 56 393 56 201 q 97 618 56 503 q 212 822 139 732 q 404 979 298 927 q 637 1031 510 1031 q 930 921 823 1031 q 1038 623 1038 812 q 997 393 1038 506 q 880 189 956 281 q 689 32 793 83 q 456 -20 584 -20 m 408 0 l 489 0 q 424 -80 446 -45 q 403 -138 403 -114 q 418 -173 403 -161 q 464 -184 433 -184 q 507 -179 484 -184 q 555 -164 530 -174 l 539 -254 q 490 -266 514 -262 q 445 -269 466 -269 q 340 -243 375 -269 q 304 -167 304 -218 q 331 -90 304 -132 q 408 0 357 -48 z "},"ǫ":{"ha":850,"x_min":64,"x_max":786,"o":"m 353 -20 q 141 63 219 -20 q 64 288 64 145 q 91 456 64 370 q 160 600 117 542 q 310 734 227 691 q 497 778 393 778 q 706 697 627 778 q 786 486 786 616 q 760 307 786 396 q 690 158 733 217 q 541 24 624 67 q 353 -20 458 -20 m 193 292 q 236 137 193 189 q 367 86 279 86 q 575 196 492 86 q 657 473 657 305 q 613 622 657 572 q 484 672 569 672 q 358 639 413 672 q 260 539 303 606 q 211 425 228 489 q 193 292 193 360 m 317 0 l 398 0 q 333 -80 355 -45 q 312 -138 312 -114 q 327 -173 312 -161 q 373 -184 342 -184 q 416 -179 393 -184 q 465 -164 439 -174 l 448 -254 q 399 -266 423 -262 q 354 -269 375 -269 q 249 -243 284 -269 q 214 -167 214 -218 q 240 -90 214 -132 q 317 0 266 -48 z "},"Ǭ":{"ha":1093,"x_min":56,"x_max":1038,"o":"m 633 920 q 435 865 521 920 q 285 699 349 810 q 223 547 244 627 q 201 386 201 467 q 269 168 201 245 q 460 92 336 92 q 658 147 571 92 q 807 311 745 202 q 870 465 848 385 q 892 625 892 545 q 824 843 892 766 q 633 920 756 920 m 456 -20 q 162 91 269 -20 q 56 393 56 201 q 97 618 56 503 q 212 822 139 732 q 404 979 298 927 q 637 1031 510 1031 q 930 921 823 1031 q 1038 623 1038 812 q 997 393 1038 506 q 880 189 956 281 q 689 32 793 83 q 456 -20 584 -20 m 408 0 l 489 0 q 424 -80 446 -45 q 403 -138 403 -114 q 418 -173 403 -161 q 464 -184 433 -184 q 507 -179 484 -184 q 555 -164 530 -174 l 539 -254 q 490 -266 514 -262 q 445 -269 466 -269 q 340 -243 375 -269 q 304 -167 304 -218 q 331 -90 304 -132 q 408 0 357 -48 m 478 1249 l 884 1249 l 864 1148 l 458 1148 l 478 1249 z "},"ǭ":{"ha":850,"x_min":64,"x_max":786,"o":"m 353 -20 q 141 63 219 -20 q 64 288 64 145 q 91 456 64 370 q 160 600 117 542 q 310 734 227 691 q 497 778 393 778 q 706 697 627 778 q 786 486 786 616 q 760 307 786 396 q 690 158 733 217 q 541 24 624 67 q 353 -20 458 -20 m 193 292 q 236 137 193 189 q 367 86 279 86 q 575 196 492 86 q 657 473 657 305 q 613 622 657 572 q 484 672 569 672 q 358 639 413 672 q 260 539 303 606 q 211 425 228 489 q 193 292 193 360 m 317 0 l 398 0 q 333 -80 355 -45 q 312 -138 312 -114 q 327 -173 312 -161 q 373 -184 342 -184 q 416 -179 393 -184 q 465 -164 439 -174 l 448 -254 q 399 -266 423 -262 q 354 -269 375 -269 q 249 -243 284 -269 q 214 -167 214 -218 q 240 -90 214 -132 q 317 0 266 -48 m 356 1034 l 762 1034 l 742 934 l 336 934 l 356 1034 z "},"Ǯ":{"ha":925,"x_min":32,"x_max":905,"o":"m 661 1109 l 517 1109 l 410 1289 l 500 1289 l 595 1168 l 736 1289 l 839 1289 l 661 1109 m 381 73 q 588 123 511 73 q 685 271 666 174 q 650 412 703 362 q 484 462 596 462 l 366 462 l 389 574 l 712 897 l 189 897 l 211 1013 l 905 1013 l 884 899 l 542 576 q 693 538 614 576 q 798 435 754 509 q 821 271 840 365 q 750 111 801 169 l 726 83 q 673 39 708 64 q 364 -43 554 -43 q 201 -30 283 -43 q 32 7 118 -18 l 58 140 q 206 90 123 106 q 381 73 288 73 z "},"ǯ":{"ha":729,"x_min":-66,"x_max":736,"o":"m 373 323 q 524 285 445 323 q 629 182 585 256 q 652 18 671 112 q 504 -214 623 -132 q 195 -296 385 -296 q 66 -283 132 -296 q -66 -245 1 -271 l -40 -113 q 75 -163 11 -146 q 214 -180 140 -180 q 419 -130 342 -180 q 516 18 497 -79 q 481 159 533 108 q 315 209 427 209 l 197 209 l 220 321 l 577 660 l 125 660 l 144 760 l 736 760 l 715 646 l 373 323 m 510 847 l 410 847 l 294 1102 l 389 1102 l 475 941 l 632 1102 l 727 1102 l 510 847 z "},"ǰ":{"ha":386,"x_min":-157,"x_max":544,"o":"m 327 847 l 227 847 l 111 1102 l 206 1102 l 292 941 l 449 1102 l 544 1102 l 327 847 m 201 760 l 326 760 l 176 -14 l 176 -17 q 118 -195 151 -146 q 29 -264 87 -240 q -110 -289 -30 -289 l -157 -289 l -136 -183 l -104 -183 q 0 -153 -31 -183 q 52 -14 31 -122 l 201 760 z "},"Ǳ":{"ha":2021,"x_min":37,"x_max":2046,"o":"m 235 1013 l 529 1013 q 883 913 764 1013 q 1003 618 1003 814 q 958 369 1003 488 q 832 167 912 249 q 627 41 751 83 q 334 0 503 0 l 37 0 l 235 1013 m 350 900 l 197 113 l 376 113 q 732 245 606 113 q 859 618 859 377 q 777 832 859 764 q 522 900 696 900 l 350 900 m 1251 1013 l 2046 1013 l 2026 908 l 1242 115 l 1887 115 l 1866 0 l 1039 0 l 1059 104 l 1843 897 l 1230 897 l 1251 1013 z "},"ǲ":{"ha":1799,"x_min":37,"x_max":1824,"o":"m 235 1013 l 529 1013 q 883 913 764 1013 q 1003 618 1003 814 q 958 369 1003 488 q 832 167 912 249 q 627 41 751 83 q 334 0 503 0 l 37 0 l 235 1013 m 350 900 l 197 113 l 376 113 q 732 245 606 113 q 859 618 859 377 q 777 832 859 764 q 522 900 696 900 l 350 900 m 1231 760 l 1824 760 l 1801 646 l 1230 100 l 1702 100 l 1682 0 l 1065 0 l 1088 114 l 1659 660 l 1211 660 l 1231 760 z "},"ǳ":{"ha":1611,"x_min":64,"x_max":1636,"o":"m 581 114 q 462 14 530 48 q 310 -20 393 -20 q 130 58 196 -20 q 64 271 64 136 q 104 485 64 383 q 220 668 144 587 q 333 750 270 722 q 465 778 396 778 q 594 743 538 778 q 681 642 650 707 l 762 1055 l 888 1055 l 682 0 l 557 0 l 581 114 m 193 293 q 238 140 193 195 q 361 85 282 85 q 469 113 419 85 q 557 196 519 141 q 620 328 597 253 q 643 475 643 402 q 598 622 643 569 q 476 675 554 675 q 366 647 417 675 q 279 567 315 619 q 217 436 240 511 q 193 293 193 361 m 1043 760 l 1636 760 l 1613 646 l 1042 100 l 1514 100 l 1494 0 l 878 0 l 900 114 l 1472 660 l 1023 660 l 1043 760 z "},"Ǵ":{"ha":1076,"x_min":62,"x_max":1007,"o":"m 704 1289 l 844 1289 l 636 1109 l 529 1109 l 704 1289 m 758 151 l 811 416 l 586 416 l 607 529 l 966 529 l 879 83 q 682 7 789 34 q 468 -20 576 -20 q 170 86 277 -20 q 62 380 62 192 q 128 679 62 537 q 309 914 193 820 q 467 1002 381 973 q 659 1031 553 1031 q 841 1007 753 1031 q 1007 935 928 983 l 979 789 q 836 886 918 852 q 661 920 754 920 q 471 879 553 920 q 325 751 389 838 q 238 579 270 678 q 207 376 207 479 q 279 163 207 235 q 496 92 352 92 q 635 107 568 92 q 758 151 702 122 z "},"ǵ":{"ha":882,"x_min":45,"x_max":828,"o":"m 828 760 l 699 94 q 556 -194 661 -99 q 272 -289 450 -289 q 150 -279 206 -289 q 45 -249 94 -269 l 68 -127 q 165 -172 114 -157 q 275 -186 217 -186 q 470 -121 394 -186 q 571 65 547 -56 l 582 122 q 460 31 530 62 q 311 0 391 0 q 130 76 196 0 q 64 286 64 153 q 104 492 64 391 q 216 671 144 593 q 329 750 264 722 q 463 778 393 778 q 596 742 539 778 q 681 642 653 707 l 703 760 l 828 760 m 640 481 q 597 623 640 573 q 473 673 553 673 q 379 654 424 673 q 302 599 334 634 q 222 461 251 541 q 193 298 193 382 q 237 155 193 205 q 363 104 281 104 q 561 212 481 104 q 640 481 640 319 m 532 1111 l 667 1111 l 397 856 l 292 856 l 532 1111 z "},"Ƕ":{"ha":1546,"x_min":40,"x_max":1470,"o":"m 1470 760 l 1381 300 q 1267 62 1352 149 q 995 -20 1186 -20 q 754 62 808 -20 q 733 300 702 142 l 768 482 l 271 482 l 177 0 l 40 0 l 237 1013 l 374 1013 l 293 597 l 791 597 l 871 1013 l 1008 1013 l 871 304 q 882 142 850 197 q 1016 89 913 90 q 1172 142 1116 89 q 1245 304 1223 193 l 1333 760 l 1470 760 z "},"Ƿ":{"ha":947,"x_min":-19,"x_max":924,"o":"m 195 106 l 118 -289 l -19 -289 l 234 1013 l 371 1013 l 347 887 q 504 995 394 936 q 723 1031 570 1031 q 898 949 857 1031 q 924 829 924 895 q 917 755 924 794 q 195 106 857 446 m 220 238 q 769 711 734 530 q 776 777 776 747 q 755 857 776 826 q 637 904 724 904 q 316 730 476 904 l 220 238 z "},"Ǹ":{"ha":1039,"x_min":37,"x_max":1002,"o":"m 623 1288 l 723 1109 l 628 1109 l 499 1288 l 623 1288 m 235 1013 l 419 1013 l 699 144 l 868 1013 l 1002 1013 l 804 0 l 619 0 l 340 873 l 171 0 l 37 0 l 235 1013 z "},"ǹ":{"ha":880,"x_min":49,"x_max":786,"o":"m 774 458 l 685 0 l 559 0 l 648 454 q 658 510 654 486 q 661 549 661 534 q 625 637 661 606 q 525 669 589 669 q 352 603 425 669 q 257 421 279 536 l 174 0 l 49 0 l 196 760 l 321 760 l 296 640 q 421 742 348 706 q 575 778 494 778 q 731 724 675 778 q 786 571 786 669 q 783 519 786 547 q 774 458 780 491 m 429 1111 l 570 857 l 466 857 l 295 1111 l 429 1111 z "},"Ǻ":{"ha":950,"x_min":-74,"x_max":1092,"o":"m 692 1103 q 662 1176 692 1145 q 589 1206 631 1206 q 516 1176 545 1206 q 486 1103 486 1147 q 516 1030 486 1060 q 589 1000 545 1000 q 662 1030 631 1000 q 692 1103 692 1060 m 478 954 q 422 1018 441 979 q 403 1103 403 1056 q 457 1235 403 1180 q 589 1289 511 1289 q 721 1235 666 1289 q 775 1103 775 1180 q 750 1008 775 1049 q 679 942 726 966 l 854 0 l 711 0 l 669 260 l 214 260 l 71 0 l -74 0 l 478 954 m 561 878 l 277 374 l 648 374 l 561 878 m 951 1289 l 1092 1289 l 884 1109 l 777 1109 l 951 1289 z "},"ǻ":{"ha":851,"x_min":57,"x_max":1073,"o":"m 932 1289 l 1073 1289 l 865 1109 l 758 1109 l 932 1289 m 746 433 l 661 0 l 536 0 l 559 115 q 434 14 505 47 q 278 -20 364 -20 q 119 40 181 -20 q 57 192 57 99 q 163 402 57 325 q 456 479 269 479 l 629 479 l 636 513 q 638 525 637 518 q 639 545 639 531 q 590 638 639 605 q 452 672 541 672 q 327 656 391 672 q 195 610 262 641 l 216 725 q 354 765 287 751 q 485 778 422 778 q 689 720 619 778 q 760 550 760 661 q 756 497 760 528 q 746 433 753 467 m 611 382 l 486 382 q 259 341 333 382 q 186 214 186 300 q 223 120 186 154 q 328 86 261 86 q 505 159 429 86 q 606 354 581 232 l 611 382 m 730 1034 q 676 901 730 956 q 544 847 623 847 q 412 901 466 847 q 358 1034 358 956 q 412 1166 358 1112 q 544 1219 466 1219 q 676 1166 623 1219 q 730 1034 730 1112 m 647 1034 q 617 1106 647 1077 q 544 1136 588 1136 q 470 1107 499 1136 q 441 1034 441 1078 q 470 960 441 989 q 544 930 499 930 q 618 960 589 930 q 647 1034 647 989 z "},"Ǽ":{"ha":1353,"x_min":-62,"x_max":1381,"o":"m 1027 1289 l 1167 1289 l 959 1109 l 852 1109 l 1027 1289 m 632 905 l 304 374 l 615 374 l 720 905 l 632 905 m 1381 1013 l 1358 897 l 856 897 l 796 597 l 1279 597 l 1257 482 l 774 482 l 703 115 l 1218 115 l 1196 0 l 543 0 l 593 260 l 236 260 l 77 0 l -62 0 l 558 1013 l 1381 1013 z "},"ǽ":{"ha":1382,"x_min":57,"x_max":1321,"o":"m 1196 448 q 1199 470 1198 458 q 1200 493 1200 481 q 1152 624 1200 576 q 1019 672 1103 672 q 855 613 926 672 q 747 447 784 555 l 1196 448 m 216 725 q 354 765 287 751 q 485 778 422 778 q 646 747 583 778 q 739 654 709 717 q 873 747 798 715 q 1039 778 949 778 q 1244 701 1168 778 q 1321 493 1321 623 q 1317 426 1321 462 q 1304 350 1312 391 l 724 350 q 718 309 720 324 q 717 283 717 294 q 775 138 717 189 q 939 86 833 86 q 1093 104 1020 86 q 1227 158 1166 123 l 1204 35 q 1065 -6 1137 7 q 920 -20 994 -20 q 729 19 806 -20 q 614 135 652 58 q 470 18 545 55 q 306 -20 395 -20 q 122 36 188 -20 q 57 192 57 92 q 163 402 57 325 q 456 479 269 479 l 629 479 l 636 513 q 638 525 637 518 q 639 545 639 531 q 590 638 639 605 q 452 672 541 672 q 327 656 391 672 q 195 610 262 641 l 216 725 m 611 382 l 486 382 q 259 341 333 382 q 186 214 186 300 q 223 120 186 154 q 328 86 261 86 q 505 159 429 86 q 606 354 581 232 l 611 382 m 715 1111 l 850 1111 l 580 856 l 475 856 l 715 1111 z "},"Ǿ":{"ha":1093,"x_min":-47,"x_max":1124,"o":"m 782 1289 l 922 1289 l 714 1109 l 607 1109 l 782 1289 m 829 838 q 749 899 799 878 q 633 920 700 920 q 435 865 522 920 q 286 700 349 810 q 222 545 244 626 q 200 387 200 465 q 204 327 200 357 q 216 268 208 298 l 829 838 m 873 757 l 258 183 q 343 114 293 137 q 460 92 393 92 q 658 147 571 92 q 807 311 745 202 q 870 467 849 387 q 892 629 892 547 q 887 699 892 667 q 873 757 883 730 m 109 167 q 69 277 82 221 q 56 390 56 332 q 97 616 56 503 q 212 822 138 730 q 403 979 297 926 q 637 1031 509 1031 q 797 1005 726 1031 q 925 926 868 979 l 1063 1057 l 1124 990 l 982 856 q 1023 749 1009 806 q 1036 625 1036 692 q 996 393 1036 505 q 880 189 956 281 q 689 32 793 83 q 456 -20 584 -20 q 288 9 361 -20 q 163 93 214 37 l 14 -45 l -47 22 l 109 167 z "},"ǿ":{"ha":850,"x_min":-20,"x_max":864,"o":"m 611 625 q 554 661 586 649 q 484 672 523 672 q 276 563 357 672 q 195 285 195 454 q 196 239 195 253 q 200 214 197 225 l 611 625 m 104 117 q 74 193 84 150 q 64 286 64 235 q 91 455 64 369 q 160 600 117 542 q 309 734 227 691 q 497 778 391 778 q 606 760 556 778 q 696 708 656 743 l 806 819 l 864 761 l 747 644 q 776 565 766 607 q 786 476 786 522 q 759 304 786 392 q 690 158 732 216 q 542 24 625 67 q 353 -20 460 -20 q 244 -2 294 -20 q 155 52 194 16 l 39 -64 l -20 -7 l 104 117 m 652 549 l 239 135 q 296 98 265 110 q 367 86 327 86 q 576 197 495 86 q 657 486 657 308 q 656 526 657 513 q 652 549 654 538 m 590 1111 l 725 1111 l 454 856 l 350 856 l 590 1111 z "},"Ȁ":{"ha":950,"x_min":-74,"x_max":854,"o":"m 511 1013 l 667 1013 l 854 0 l 711 0 l 669 260 l 214 260 l 71 0 l -74 0 l 511 1013 m 561 878 l 277 374 l 648 374 l 561 878 m 699 1291 l 799 1112 l 704 1112 l 575 1291 l 699 1291 m 509 1291 l 609 1112 l 514 1112 l 385 1291 l 509 1291 z "},"ȁ":{"ha":851,"x_min":57,"x_max":760,"o":"m 746 433 l 661 0 l 536 0 l 559 115 q 434 14 505 47 q 278 -20 364 -20 q 119 40 181 -20 q 57 192 57 99 q 163 402 57 325 q 456 479 269 479 l 629 479 l 636 513 q 638 525 637 518 q 639 545 639 531 q 590 638 639 605 q 452 672 541 672 q 327 656 391 672 q 195 610 262 641 l 216 725 q 354 765 287 751 q 485 778 422 778 q 689 720 619 778 q 760 550 760 661 q 756 497 760 528 q 746 433 753 467 m 611 382 l 486 382 q 259 341 333 382 q 186 214 186 300 q 223 120 186 154 q 328 86 261 86 q 505 159 429 86 q 606 354 581 232 l 611 382 m 353 1111 l 492 856 l 401 856 l 233 1111 l 353 1111 m 580 1111 l 709 856 l 616 856 l 465 1111 l 580 1111 z "},"Ȃ":{"ha":950,"x_min":-74,"x_max":854,"o":"m 511 1013 l 667 1013 l 854 0 l 711 0 l 669 260 l 214 260 l 71 0 l -74 0 l 511 1013 m 561 878 l 277 374 l 648 374 l 561 878 m 849 1109 l 768 1109 q 734 1169 760 1151 q 656 1187 707 1187 q 561 1169 597 1187 q 505 1109 524 1150 l 424 1109 q 509 1230 447 1186 q 659 1274 572 1274 q 788 1233 741 1274 q 849 1109 836 1192 z "},"ȃ":{"ha":851,"x_min":57,"x_max":763,"o":"m 746 433 l 661 0 l 536 0 l 559 115 q 434 14 505 47 q 278 -20 364 -20 q 119 40 181 -20 q 57 192 57 99 q 163 402 57 325 q 456 479 269 479 l 629 479 l 636 513 q 638 525 637 518 q 639 545 639 531 q 590 638 639 605 q 452 672 541 672 q 327 656 391 672 q 195 610 262 641 l 216 725 q 354 765 287 751 q 485 778 422 778 q 689 720 619 778 q 760 550 760 661 q 756 497 760 528 q 746 433 753 467 m 611 382 l 486 382 q 259 341 333 382 q 186 214 186 300 q 223 120 186 154 q 328 86 261 86 q 505 159 429 86 q 606 354 581 232 l 611 382 m 762 896 l 684 896 l 684 906 q 656 975 684 952 q 569 998 627 998 q 474 973 511 998 q 416 896 437 948 l 337 896 q 423 1040 359 990 q 587 1090 488 1090 q 718 1047 673 1090 q 763 918 763 1003 q 762 907 763 914 q 762 896 762 899 z "},"Ȅ":{"ha":878,"x_min":37,"x_max":875,"o":"m 235 1013 l 875 1013 l 852 897 l 349 897 l 290 597 l 774 597 l 751 482 l 268 482 l 197 115 l 713 115 l 690 0 l 37 0 l 235 1013 m 627 1291 l 728 1112 l 633 1112 l 504 1291 l 627 1291 m 437 1291 l 538 1112 l 443 1112 l 314 1291 l 437 1291 z "},"ȅ":{"ha":854,"x_min":64,"x_max":793,"o":"m 668 448 q 671 470 670 458 q 672 493 672 481 q 624 624 672 576 q 492 672 575 672 q 328 613 399 672 q 220 447 256 555 l 668 448 m 777 350 l 196 350 q 191 309 192 324 q 189 283 189 294 q 247 138 189 189 q 411 86 305 86 q 565 104 492 86 q 700 158 637 123 l 676 35 q 537 -6 609 7 q 392 -20 466 -20 q 149 56 234 -20 q 64 271 64 132 q 106 491 64 389 q 231 673 149 593 q 356 751 283 724 q 511 778 429 778 q 716 701 640 778 q 793 493 793 623 q 789 426 793 462 q 777 350 785 391 m 361 1111 l 500 856 l 408 856 l 240 1111 l 361 1111 m 587 1111 l 716 856 l 623 856 l 472 1111 l 587 1111 z "},"Ȇ":{"ha":878,"x_min":37,"x_max":875,"o":"m 235 1013 l 875 1013 l 852 897 l 349 897 l 290 597 l 774 597 l 751 482 l 268 482 l 197 115 l 713 115 l 690 0 l 37 0 l 235 1013 m 806 1109 l 726 1109 q 691 1169 718 1151 q 613 1187 665 1187 q 518 1169 555 1187 q 462 1109 481 1150 l 381 1109 q 467 1230 404 1186 q 616 1274 529 1274 q 745 1233 698 1274 q 806 1109 793 1192 z "},"ȇ":{"ha":854,"x_min":64,"x_max":793,"o":"m 668 448 q 671 470 670 458 q 672 493 672 481 q 624 624 672 576 q 492 672 575 672 q 328 613 399 672 q 220 447 256 555 l 668 448 m 777 350 l 196 350 q 191 309 192 324 q 189 283 189 294 q 247 138 189 189 q 411 86 305 86 q 565 104 492 86 q 700 158 637 123 l 676 35 q 537 -6 609 7 q 392 -20 466 -20 q 149 56 234 -20 q 64 271 64 132 q 106 491 64 389 q 231 673 149 593 q 356 751 283 724 q 511 778 429 778 q 716 701 640 778 q 793 493 793 623 q 789 426 793 462 q 777 350 785 391 m 769 896 l 692 896 l 692 906 q 663 975 692 952 q 576 998 635 998 q 481 973 519 998 q 423 896 444 948 l 345 896 q 431 1040 366 990 q 594 1090 495 1090 q 726 1047 681 1090 q 770 918 770 1003 q 770 907 770 914 q 769 896 769 899 z "},"Ȉ":{"ha":410,"x_min":37,"x_max":505,"o":"m 235 1013 l 372 1013 l 175 0 l 37 0 l 235 1013 m 404 1291 l 505 1112 l 410 1112 l 281 1291 l 404 1291 m 214 1291 l 315 1112 l 220 1112 l 91 1291 l 214 1291 z "},"ȉ":{"ha":386,"x_min":31,"x_max":507,"o":"m 152 1111 l 291 856 l 199 856 l 31 1111 l 152 1111 m 378 1111 l 507 856 l 414 856 l 263 1111 l 378 1111 m 197 760 l 322 760 l 174 0 l 49 0 l 197 760 z "},"Ȋ":{"ha":410,"x_min":37,"x_max":545,"o":"m 235 1013 l 372 1013 l 175 0 l 37 0 l 235 1013 m 545 1109 l 465 1109 q 430 1169 456 1151 q 352 1187 404 1187 q 257 1169 294 1187 q 201 1109 220 1150 l 120 1109 q 205 1230 143 1186 q 355 1274 268 1274 q 484 1233 437 1274 q 545 1109 532 1192 z "},"ȋ":{"ha":386,"x_min":49,"x_max":514,"o":"m 513 896 l 435 896 l 435 906 q 407 975 435 952 q 320 998 378 998 q 225 973 262 998 q 167 896 188 948 l 88 896 q 174 1040 110 990 q 338 1090 239 1090 q 469 1047 425 1090 q 514 918 514 1003 q 513 907 514 914 q 513 896 513 899 m 197 760 l 322 760 l 174 0 l 49 0 l 197 760 z "},"Ȍ":{"ha":1093,"x_min":56,"x_max":1038,"o":"m 633 920 q 435 865 521 920 q 285 699 349 810 q 223 547 244 627 q 201 386 201 467 q 269 168 201 245 q 460 92 336 92 q 658 147 571 92 q 807 311 745 202 q 870 465 848 385 q 892 625 892 545 q 824 843 892 766 q 633 920 756 920 m 456 -20 q 162 91 269 -20 q 56 393 56 201 q 97 618 56 503 q 212 822 139 732 q 404 979 298 927 q 637 1031 510 1031 q 930 921 823 1031 q 1038 623 1038 812 q 997 393 1038 506 q 880 189 956 281 q 689 32 793 83 q 456 -20 584 -20 m 779 1291 l 880 1112 l 785 1112 l 656 1291 l 779 1291 m 589 1291 l 690 1112 l 595 1112 l 466 1291 l 589 1291 z "},"ȍ":{"ha":850,"x_min":64,"x_max":786,"o":"m 341 1111 l 480 856 l 389 856 l 220 1111 l 341 1111 m 568 1111 l 696 856 l 604 856 l 452 1111 l 568 1111 m 353 -20 q 141 63 219 -20 q 64 288 64 145 q 91 456 64 370 q 160 600 117 542 q 310 734 227 691 q 497 778 393 778 q 706 697 627 778 q 786 486 786 616 q 760 307 786 396 q 690 158 733 217 q 541 24 624 67 q 353 -20 458 -20 m 193 292 q 236 137 193 189 q 367 86 279 86 q 575 196 492 86 q 657 473 657 305 q 613 622 657 572 q 484 672 569 672 q 358 639 413 672 q 260 539 303 606 q 211 425 228 489 q 193 292 193 360 z "},"Ȏ":{"ha":1093,"x_min":56,"x_max":1038,"o":"m 633 920 q 435 865 521 920 q 285 699 349 810 q 223 547 244 627 q 201 386 201 467 q 269 168 201 245 q 460 92 336 92 q 658 147 571 92 q 807 311 745 202 q 870 465 848 385 q 892 625 892 545 q 824 843 892 766 q 633 920 756 920 m 456 -20 q 162 91 269 -20 q 56 393 56 201 q 97 618 56 503 q 212 822 139 732 q 404 979 298 927 q 637 1031 510 1031 q 930 921 823 1031 q 1038 623 1038 812 q 997 393 1038 506 q 880 189 956 281 q 689 32 793 83 q 456 -20 584 -20 m 944 1109 l 863 1109 q 829 1169 855 1151 q 751 1187 802 1187 q 656 1169 692 1187 q 600 1109 619 1150 l 519 1109 q 604 1230 542 1186 q 753 1274 667 1274 q 883 1233 836 1274 q 944 1109 930 1192 z "},"ȏ":{"ha":850,"x_min":64,"x_max":786,"o":"m 769 896 l 692 896 l 692 906 q 663 975 692 952 q 576 998 635 998 q 481 973 519 998 q 423 896 444 948 l 345 896 q 431 1040 366 990 q 594 1090 495 1090 q 726 1047 681 1090 q 770 918 770 1003 q 770 907 770 914 q 769 896 769 899 m 353 -20 q 141 63 219 -20 q 64 288 64 145 q 91 456 64 370 q 160 600 117 542 q 310 734 227 691 q 497 778 393 778 q 706 697 627 778 q 786 486 786 616 q 760 307 786 396 q 690 158 733 217 q 541 24 624 67 q 353 -20 458 -20 m 193 292 q 236 137 193 189 q 367 86 279 86 q 575 196 492 86 q 657 473 657 305 q 613 622 657 572 q 484 672 569 672 q 358 639 413 672 q 260 539 303 606 q 211 425 228 489 q 193 292 193 360 z "},"Ȑ":{"ha":965,"x_min":37,"x_max":833,"o":"m 350 900 l 281 541 l 457 541 q 625 598 561 541 q 689 747 689 655 q 646 861 689 821 q 522 900 603 900 l 350 900 m 602 486 q 674 436 645 476 q 741 277 703 396 l 827 0 l 682 0 l 603 260 q 532 394 572 360 q 410 428 492 428 l 258 428 l 175 0 l 37 0 l 235 1013 l 543 1013 q 759 949 684 1013 q 833 766 833 886 q 770 583 833 661 q 602 486 706 506 m 623 1291 l 723 1112 l 628 1112 l 499 1291 l 623 1291 m 433 1291 l 533 1112 l 438 1112 l 309 1291 l 433 1291 z "},"ȑ":{"ha":571,"x_min":49,"x_max":643,"o":"m 619 644 q 576 660 600 654 q 524 665 551 665 q 349 590 424 665 q 250 387 275 514 l 174 0 l 49 0 l 197 760 l 322 760 l 298 642 q 417 743 348 707 q 564 778 486 778 q 604 775 584 778 q 643 768 623 773 l 619 644 m 265 1111 l 404 856 l 313 856 l 144 1111 l 265 1111 m 492 1111 l 621 856 l 528 856 l 376 1111 l 492 1111 z "},"Ȓ":{"ha":965,"x_min":37,"x_max":833,"o":"m 350 900 l 281 541 l 457 541 q 625 598 561 541 q 689 747 689 655 q 646 861 689 821 q 522 900 603 900 l 350 900 m 602 486 q 674 436 645 476 q 741 277 703 396 l 827 0 l 682 0 l 603 260 q 532 394 572 360 q 410 428 492 428 l 258 428 l 175 0 l 37 0 l 235 1013 l 543 1013 q 759 949 684 1013 q 833 766 833 886 q 770 583 833 661 q 602 486 706 506 m 759 1109 l 678 1109 q 644 1169 670 1151 q 566 1187 617 1187 q 471 1169 507 1187 q 414 1109 434 1150 l 334 1109 q 419 1230 357 1186 q 568 1274 481 1274 q 698 1233 650 1274 q 759 1109 745 1192 z "},"ȓ":{"ha":571,"x_min":49,"x_max":675,"o":"m 619 644 q 576 660 600 654 q 524 665 551 665 q 349 590 424 665 q 250 387 275 514 l 174 0 l 49 0 l 197 760 l 322 760 l 298 642 q 417 743 348 707 q 564 778 486 778 q 604 775 584 778 q 643 768 623 773 l 619 644 m 673 896 l 596 896 l 596 906 q 568 975 596 952 q 481 998 539 998 q 386 973 423 998 q 328 896 349 948 l 249 896 q 335 1040 271 990 q 498 1090 399 1090 q 630 1047 585 1090 q 675 918 675 1003 q 674 907 675 914 q 673 896 673 899 z "},"Ȕ":{"ha":1017,"x_min":81,"x_max":990,"o":"m 215 1013 l 353 1013 l 233 397 q 223 329 226 356 q 220 282 220 302 q 272 140 220 189 q 425 92 324 92 q 629 163 556 92 q 733 397 702 235 l 852 1013 l 990 1013 l 868 380 q 716 78 828 176 q 410 -20 604 -20 q 169 57 258 -20 q 81 264 81 133 q 84 317 81 288 q 94 380 87 347 l 215 1013 m 699 1291 l 799 1112 l 704 1112 l 575 1291 l 699 1291 m 509 1291 l 609 1112 l 514 1112 l 385 1291 l 509 1291 z "},"ȕ":{"ha":880,"x_min":79,"x_max":818,"o":"m 93 301 l 182 760 l 307 760 l 218 306 q 209 249 212 273 q 205 210 205 225 q 241 120 205 152 q 340 89 276 89 q 514 157 441 89 q 610 339 587 224 l 693 760 l 818 760 l 671 0 l 546 0 l 571 119 q 445 17 518 53 q 290 -20 372 -20 q 135 35 191 -20 q 79 187 79 90 q 83 238 79 208 q 93 301 86 269 m 357 1111 l 496 856 l 405 856 l 237 1111 l 357 1111 m 584 1111 l 713 856 l 620 856 l 469 1111 l 584 1111 z "},"Ȗ":{"ha":1017,"x_min":81,"x_max":990,"o":"m 215 1013 l 353 1013 l 233 397 q 223 329 226 356 q 220 282 220 302 q 272 140 220 189 q 425 92 324 92 q 629 163 556 92 q 733 397 702 235 l 852 1013 l 990 1013 l 868 380 q 716 78 828 176 q 410 -20 604 -20 q 169 57 258 -20 q 81 264 81 133 q 84 317 81 288 q 94 380 87 347 l 215 1013 m 849 1109 l 768 1109 q 734 1169 760 1151 q 656 1187 707 1187 q 561 1169 597 1187 q 505 1109 524 1150 l 424 1109 q 509 1230 447 1186 q 659 1274 572 1274 q 788 1233 741 1274 q 849 1109 836 1192 z "},"ȗ":{"ha":880,"x_min":79,"x_max":818,"o":"m 93 301 l 182 760 l 307 760 l 218 306 q 209 249 212 273 q 205 210 205 225 q 241 120 205 152 q 340 89 276 89 q 514 157 441 89 q 610 339 587 224 l 693 760 l 818 760 l 671 0 l 546 0 l 571 119 q 445 17 518 53 q 290 -20 372 -20 q 135 35 191 -20 q 79 187 79 90 q 83 238 79 208 q 93 301 86 269 m 766 896 l 688 896 l 688 906 q 660 975 688 952 q 573 998 631 998 q 478 973 515 998 q 420 896 441 948 l 341 896 q 427 1040 363 990 q 591 1090 492 1090 q 722 1047 677 1090 q 767 918 767 1003 q 766 907 767 914 q 766 896 766 899 z "},"Ș":{"ha":882,"x_min":8,"x_max":838,"o":"m 340 -117 l 483 -117 l 330 -334 l 242 -334 l 340 -117 m 838 979 l 811 846 q 675 901 743 882 q 545 920 608 920 q 349 866 422 920 q 277 724 277 812 q 303 649 277 675 q 441 593 330 623 l 524 572 q 717 481 663 536 q 771 326 771 426 q 651 77 771 173 q 334 -20 530 -20 q 172 -4 253 -20 q 8 45 90 12 l 36 186 q 187 115 111 139 q 338 92 262 92 q 543 149 466 92 q 621 297 621 205 q 590 390 621 358 q 457 447 559 421 l 375 468 q 183 552 235 505 q 132 686 132 600 q 249 934 132 838 q 551 1031 365 1031 q 695 1018 624 1031 q 838 979 766 1005 z "},"ș":{"ha":724,"x_min":16,"x_max":694,"o":"m 290 -117 l 433 -117 l 280 -334 l 193 -334 l 290 -117 m 694 737 l 671 619 q 566 660 621 646 q 453 673 511 673 q 298 640 355 673 q 241 549 241 606 q 373 446 241 481 q 388 441 383 443 l 428 429 q 594 357 553 395 q 636 253 636 319 q 540 56 636 132 q 289 -20 444 -20 q 162 -8 229 -20 q 16 28 96 3 l 40 157 q 175 103 109 121 q 302 85 241 85 q 451 124 394 85 q 509 224 509 163 q 358 329 509 289 l 345 332 l 302 343 q 163 409 208 368 q 119 514 119 450 q 211 707 119 635 q 458 778 302 778 q 579 768 520 778 q 694 737 637 758 z "},"Ț":{"ha":848,"x_min":60,"x_max":939,"o":"m 294 -117 l 437 -117 l 284 -334 l 197 -334 l 294 -117 m 82 1013 l 939 1013 l 917 897 l 555 897 l 382 0 l 244 0 l 418 897 l 60 897 l 82 1013 z "},"ț":{"ha":545,"x_min":89,"x_max":587,"o":"m 290 -117 l 433 -117 l 279 -334 l 192 -334 l 290 -117 m 587 760 l 568 663 l 319 663 l 239 250 q 233 212 235 227 q 231 187 231 196 q 257 124 231 144 q 340 104 283 104 l 467 104 l 446 0 l 326 0 q 160 43 215 0 q 106 175 106 87 q 108 209 106 191 q 114 250 110 228 l 195 663 l 89 663 l 109 760 l 212 760 l 254 975 l 379 975 l 338 760 l 587 760 z "},"Ȝ":{"ha":871,"x_min":-50,"x_max":824,"o":"m 824 814 q 818 751 824 782 q 801 694 811 720 q 774 644 790 669 q 743 599 759 618 q 708 561 728 580 q 672 528 688 541 q 637 502 656 515 q 607 481 618 488 q 582 467 595 475 q 566 457 568 458 q 648 425 614 446 q 699 375 682 404 q 723 320 715 347 q 730 263 730 293 q 528 -62 730 87 q -50 -292 325 -212 l -27 -183 q 214 -106 107 -149 q 390 -20 321 -63 q 506 69 460 23 q 572 158 552 115 q 591 241 591 200 q 559 333 591 299 q 465 370 527 366 q 310 336 402 373 l 189 288 l 214 404 l 397 475 q 528 545 471 505 q 618 627 585 585 q 667 712 650 670 q 683 795 683 755 q 669 854 683 829 q 630 891 654 879 q 581 910 606 904 q 526 916 555 916 q 210 791 401 916 l 237 920 q 563 1031 423 1031 q 751 972 679 1031 q 824 814 824 914 z "},"ȝ":{"ha":724,"x_min":-86,"x_max":680,"o":"m 455 313 q 513 296 487 309 q 556 266 539 283 q 584 228 572 249 q 599 185 595 206 q 604 144 604 165 q 556 14 604 79 q 421 -109 509 -52 q 203 -214 334 -166 q -86 -294 73 -262 l -67 -205 q 348 -44 215 -130 q 481 146 481 41 q 450 222 481 194 q 364 251 418 251 q 277 234 324 251 l 119 176 l 139 270 l 302 328 q 488 441 423 371 q 553 585 553 511 q 540 633 553 612 q 506 664 528 654 q 460 680 484 675 q 410 684 437 684 q 302 664 363 684 q 128 583 241 644 l 151 688 q 441 778 350 778 q 562 758 508 778 q 647 699 615 739 q 680 606 680 660 q 674 560 680 583 q 662 518 669 537 q 641 479 654 499 q 617 445 628 459 q 588 413 606 430 q 558 386 570 396 q 528 362 547 376 q 500 342 508 348 q 474 325 492 336 q 455 313 457 314 z "},"Ȟ":{"ha":1044,"x_min":37,"x_max":1007,"o":"m 720 1109 l 575 1109 l 468 1289 l 559 1289 l 653 1168 l 795 1289 l 897 1289 l 720 1109 m 235 1013 l 372 1013 l 292 597 l 789 597 l 869 1013 l 1007 1013 l 810 0 l 672 0 l 766 482 l 269 482 l 175 0 l 37 0 l 235 1013 z "},"ȟ":{"ha":880,"x_min":49,"x_max":786,"o":"m 395 1109 l 250 1109 l 143 1289 l 234 1289 l 328 1168 l 470 1289 l 572 1289 l 395 1109 m 774 458 l 685 0 l 559 0 l 648 454 q 658 510 654 486 q 661 549 661 534 q 625 637 661 606 q 525 669 589 669 q 351 602 425 669 q 256 421 277 534 l 174 0 l 49 0 l 254 1055 l 379 1055 l 298 640 q 420 741 346 704 q 575 778 494 778 q 731 724 675 778 q 786 571 786 669 q 783 519 786 547 q 774 458 780 491 z "},"Ƞ":{"ha":1021,"x_min":37,"x_max":920,"o":"m 903 606 l 730 -289 l 593 -289 l 768 607 q 779 715 779 667 q 757 825 779 782 q 616 897 720 897 q 404 810 494 897 q 286 574 315 724 l 174 0 l 37 0 l 234 1013 l 371 1013 l 339 849 q 490 985 410 941 q 674 1031 570 1031 q 886 923 828 1031 q 920 761 920 859 q 903 606 920 692 z "},"ȡ":{"ha":1164,"x_min":57,"x_max":1034,"o":"m 742 88 q 778 85 753 85 q 909 203 886 85 q 880 235 916 234 q 742 88 845 235 m 704 213 q 895 338 803 338 q 1034 198 1061 338 q 759 -20 991 -20 q 675 -9 709 -20 q 619 -98 643 -58 l 486 -98 q 580 49 515 -51 q 559 114 555 90 q 441 14 507 46 q 290 -20 374 -20 q 87 90 153 -20 q 57 379 22 200 q 199 668 92 558 q 446 778 308 778 q 583 745 530 778 q 663 644 637 712 l 743 1055 l 867 1055 l 704 213 m 186 379 q 200 163 159 241 q 341 85 242 85 q 512 163 440 85 q 611 379 585 241 q 596 595 638 517 q 456 673 555 673 q 284 595 357 673 q 186 379 213 517 z "},"Ȣ":{"ha":970,"x_min":26,"x_max":921,"o":"m 479 481 q 273 429 355 481 q 172 285 190 376 q 168 246 168 264 q 216 141 168 182 q 403 89 278 89 q 610 141 528 89 q 711 285 693 194 q 715 324 715 305 q 667 429 715 388 q 479 481 606 481 m 513 854 q 358 810 424 852 q 282 715 292 768 q 281 701 281 708 q 328 619 281 661 q 500 589 362 589 q 687 633 614 589 q 779 769 761 677 q 785 828 785 802 q 753 905 785 885 q 603 963 690 958 l 616 1031 q 859 960 770 1031 q 921 823 921 909 q 916 768 921 798 q 829 621 899 682 q 652 539 760 561 q 817 449 765 516 q 854 334 854 399 q 849 285 854 311 q 700 59 821 138 q 382 -20 579 -20 q 95 59 184 -20 q 26 218 26 119 q 33 285 26 250 q 130 449 52 382 q 329 539 209 516 q 181 608 217 560 q 144 703 144 656 q 146 728 144 715 q 263 872 164 816 q 526 922 351 922 l 513 854 z "},"ȣ":{"ha":848,"x_min":47,"x_max":811,"o":"m 440 481 q 276 429 342 481 q 193 285 210 376 q 187 237 187 259 q 220 141 187 178 q 364 89 267 89 q 528 141 462 89 q 612 285 595 194 q 617 333 617 311 q 584 429 617 391 q 440 481 538 481 m 792 900 q 811 818 811 863 q 806 768 811 794 q 742 621 786 665 q 589 539 681 561 q 726 449 684 516 q 755 342 755 403 q 749 285 755 315 q 615 59 721 138 q 342 -20 510 -20 q 101 59 175 -20 q 47 209 47 116 q 55 285 47 244 q 142 449 74 382 q 315 539 211 516 q 193 621 222 563 q 178 695 178 650 q 186 768 178 728 q 254 900 200 840 l 359 878 q 307 755 321 834 q 302 715 302 734 q 332 633 302 665 q 461 589 372 589 q 607 633 549 589 q 682 755 666 677 q 688 817 688 789 q 675 878 688 854 l 792 900 z "},"Ȥ":{"ha":951,"x_min":-8,"x_max":1000,"o":"m 816 -14 q 661 -264 778 -210 q 529 -289 607 -289 l 357 -289 l 378 -183 l 536 -183 q 639 -151 607 -183 q 691 -14 671 -117 l 694 0 l -8 0 l 12 104 l 806 897 l 182 897 l 205 1013 l 1000 1013 l 980 908 l 185 115 l 841 115 l 816 -14 z "},"ȥ":{"ha":729,"x_min":14,"x_max":771,"o":"m 621 -14 q 465 -264 583 -210 q 334 -289 412 -289 l 162 -289 l 182 -183 l 340 -183 q 444 -151 412 -183 q 496 -14 476 -117 l 499 0 l 14 0 l 36 114 l 612 660 l 159 660 l 178 760 l 771 760 l 749 646 l 174 100 l 643 100 l 621 -14 z "},"Ȧ":{"ha":950,"x_min":-74,"x_max":854,"o":"m 555 1270 l 693 1270 l 667 1131 l 528 1131 l 555 1270 m 511 1013 l 667 1013 l 854 0 l 711 0 l 669 260 l 214 260 l 71 0 l -74 0 l 511 1013 m 561 878 l 277 374 l 648 374 l 561 878 z "},"ȧ":{"ha":851,"x_min":57,"x_max":760,"o":"m 478 1055 l 603 1055 l 572 897 l 448 897 l 478 1055 m 746 433 l 661 0 l 536 0 l 559 115 q 434 14 505 47 q 278 -20 364 -20 q 119 40 181 -20 q 57 192 57 99 q 163 402 57 325 q 456 479 269 479 l 629 479 l 636 513 q 638 525 637 518 q 639 545 639 531 q 590 638 639 605 q 452 672 541 672 q 327 656 391 672 q 195 610 262 641 l 216 725 q 354 765 287 751 q 485 778 422 778 q 689 720 619 778 q 760 550 760 661 q 756 497 760 528 q 746 433 753 467 m 611 382 l 486 382 q 259 341 333 382 q 186 214 186 300 q 223 120 186 154 q 328 86 261 86 q 505 159 429 86 q 606 354 581 232 l 611 382 z "},"Ȩ":{"ha":878,"x_min":37,"x_max":875,"o":"m 235 1013 l 875 1013 l 852 897 l 349 897 l 290 597 l 774 597 l 751 482 l 268 482 l 197 115 l 713 115 l 690 0 l 37 0 l 235 1013 m 427 5 q 463 -59 452 -30 q 475 -117 475 -89 q 425 -224 475 -185 q 288 -263 375 -263 q 230 -259 259 -263 q 172 -247 201 -255 l 187 -158 q 240 -174 214 -169 q 296 -180 267 -180 q 360 -159 336 -180 q 385 -102 385 -138 q 376 -58 385 -83 q 347 5 368 -34 l 427 5 z "}}}
